%TF.GenerationSoftware,KiCad,Pcbnew,10.0.1*%
%TF.CreationDate,2026-05-20T11:00:06+02:00*%
%TF.ProjectId,Luminosite,4c756d69-6e6f-4736-9974-652e6b696361,rev?*%
%TF.SameCoordinates,Original*%
%TF.FileFunction,Copper,L2,Bot*%
%TF.FilePolarity,Positive*%
%FSLAX46Y46*%
G04 Gerber Fmt 4.6, Leading zero omitted, Abs format (unit mm)*
G04 Created by KiCad (PCBNEW 10.0.1) date 2026-05-20 11:00:06*
%MOMM*%
%LPD*%
G01*
G04 APERTURE LIST*
G04 Aperture macros list*
%AMRoundRect*
0 Rectangle with rounded corners*
0 $1 Rounding radius*
0 $2 $3 $4 $5 $6 $7 $8 $9 X,Y pos of 4 corners*
0 Add a 4 corners polygon primitive as box body*
4,1,4,$2,$3,$4,$5,$6,$7,$8,$9,$2,$3,0*
0 Add four circle primitives for the rounded corners*
1,1,$1+$1,$2,$3*
1,1,$1+$1,$4,$5*
1,1,$1+$1,$6,$7*
1,1,$1+$1,$8,$9*
0 Add four rect primitives between the rounded corners*
20,1,$1+$1,$2,$3,$4,$5,0*
20,1,$1+$1,$4,$5,$6,$7,0*
20,1,$1+$1,$6,$7,$8,$9,0*
20,1,$1+$1,$8,$9,$2,$3,0*%
G04 Aperture macros list end*
%TA.AperFunction,ComponentPad*%
%ADD10R,1.700000X1.700000*%
%TD*%
%TA.AperFunction,ComponentPad*%
%ADD11C,1.700000*%
%TD*%
%TA.AperFunction,ComponentPad*%
%ADD12C,1.348000*%
%TD*%
%TA.AperFunction,ComponentPad*%
%ADD13R,1.108000X1.108000*%
%TD*%
%TA.AperFunction,ComponentPad*%
%ADD14C,1.108000*%
%TD*%
%TA.AperFunction,ComponentPad*%
%ADD15RoundRect,0.250000X0.550000X0.550000X-0.550000X0.550000X-0.550000X-0.550000X0.550000X-0.550000X0*%
%TD*%
%TA.AperFunction,ComponentPad*%
%ADD16C,1.600000*%
%TD*%
%TA.AperFunction,ComponentPad*%
%ADD17C,1.500000*%
%TD*%
%TA.AperFunction,ViaPad*%
%ADD18C,0.600000*%
%TD*%
G04 APERTURE END LIST*
D10*
%TO.P,J3,1,Pin_1_1*%
%TO.N,Net-(J3-Pin_1)*%
X123310000Y-80725000D03*
D11*
%TO.P,J3,2,Pin_2_2*%
%TO.N,Net-(J3-Pin_2)*%
X123310000Y-78185000D03*
%TD*%
D10*
%TO.P,J4,1,Pin_1_1*%
%TO.N,Net-(J4-Pin_1)*%
X123335000Y-73525000D03*
D11*
%TO.P,J4,2,Pin_2_2*%
%TO.N,Net-(J3-Pin_1)*%
X123335000Y-70985000D03*
%TD*%
D10*
%TO.P,J1,1,Pin_1_1*%
%TO.N,+5V*%
X147160000Y-72835000D03*
D11*
%TO.P,J1,2,Pin_2_2*%
%TO.N,GND*%
X149700000Y-72835000D03*
%TO.P,J1,3,Pin_3_3*%
%TO.N,Humidite_OUT*%
X152240000Y-72835000D03*
%TD*%
D10*
%TO.P,J2,1,Pin_1_1*%
%TO.N,Net-(J2-Pin_1)*%
X138600000Y-99340000D03*
D11*
%TO.P,J2,2,Pin_2_2*%
%TO.N,GND*%
X136060000Y-99340000D03*
%TD*%
D12*
%TO.P,U4,0,GPIO0_0*%
%TO.N,unconnected-(U4-GPIO0-Pad0)*%
X143545000Y-89655000D03*
%TO.P,U4,1,GPIO1_1*%
%TO.N,unconnected-(U4-GPIO1-Pad1)*%
X143545000Y-87115000D03*
%TO.P,U4,2,GPIO2_2*%
%TO.N,unconnected-(U4-GPIO2-Pad2)*%
X143545000Y-84575000D03*
%TO.P,U4,3,GPIO3_3*%
%TO.N,Temp\u00E9rature_OUT*%
X143545000Y-82035000D03*
%TO.P,U4,3.3,3V3_3.3*%
%TO.N,+3.3V*%
X143545000Y-76955000D03*
%TO.P,U4,4,GPIO4_4*%
%TO.N,Humidite_OUT*%
X143545000Y-79495000D03*
%TO.P,U4,5,GPIO5_5*%
%TO.N,unconnected-(U4-GPIO5-Pad5)*%
X128305000Y-71875000D03*
%TO.P,U4,5V,5V_5V*%
%TO.N,+5V*%
X143545000Y-71875000D03*
%TO.P,U4,6,GPIO6_6*%
%TO.N,unconnected-(U4-GPIO6-Pad6)*%
X128305000Y-74415000D03*
%TO.P,U4,7,GPIO7_7*%
%TO.N,unconnected-(U4-GPIO7-Pad7)*%
X128305000Y-76955000D03*
%TO.P,U4,8,GPIO8_8*%
%TO.N,unconnected-(U4-GPIO8-Pad8)*%
X128305000Y-79495000D03*
%TO.P,U4,9,GPIO9_9*%
%TO.N,unconnected-(U4-GPIO9-Pad9)*%
X128305000Y-82035000D03*
%TO.P,U4,10,GPIO10_10*%
%TO.N,unconnected-(U4-GPIO10-Pad10)*%
X128305000Y-84575000D03*
%TO.P,U4,20,GPIO20_20*%
%TO.N,Pompe_OUT*%
X128305000Y-87115000D03*
%TO.P,U4,21,GPIO21_21*%
%TO.N,Luminosit\u00E9_OUT*%
X128305000Y-89655000D03*
%TO.P,U4,G,GND_G*%
%TO.N,GND*%
X143545000Y-74415000D03*
%TD*%
D13*
%TO.P,Q3,1*%
%TO.N,Net-(D1-K)*%
X154285000Y-80100000D03*
D14*
%TO.P,Q3,2*%
%TO.N,Net-(Q3-Pad2)*%
X156825000Y-80100000D03*
%TO.P,Q3,3*%
%TO.N,GND*%
X159365000Y-80100000D03*
%TD*%
D13*
%TO.P,Q4,1*%
%TO.N,Net-(Q3-Pad2)*%
X159377500Y-83370000D03*
D14*
%TO.P,Q4,2*%
X156837500Y-83370000D03*
%TO.P,Q4,3*%
%TO.N,GND*%
X154297500Y-83370000D03*
%TD*%
D15*
%TO.P,D1,1,K_1*%
%TO.N,Net-(D1-K)*%
X154320000Y-76000000D03*
D16*
%TO.P,D1,2,A_2*%
%TO.N,+3.3V*%
X146700000Y-76000000D03*
%TD*%
D17*
%TO.P,K1,1*%
%TO.N,Pompe_OUT*%
X131555000Y-94690000D03*
%TO.P,K1,2*%
%TO.N,unconnected-(K1-Pad2)*%
X129015000Y-94690000D03*
%TO.P,K1,3*%
%TO.N,Net-(U5-VO)*%
X126475000Y-94690000D03*
%TO.P,K1,4*%
%TO.N,Net-(J3-Pin_2)*%
X123935000Y-94690000D03*
%TO.P,K1,5*%
%TO.N,GND*%
X121395000Y-94690000D03*
%TO.P,K1,6*%
%TO.N,unconnected-(K1-Pad6)*%
X121395000Y-102310000D03*
%TO.P,K1,7*%
%TO.N,unconnected-(K1-Pad7)*%
X123935000Y-102310000D03*
%TO.P,K1,8*%
%TO.N,unconnected-(K1-Pad8)*%
X126475000Y-102310000D03*
%TO.P,K1,9*%
%TO.N,unconnected-(K1-Pad9)*%
X129015000Y-102310000D03*
%TO.P,K1,10*%
%TO.N,unconnected-(K1-Pad10)*%
X131555000Y-102310000D03*
%TD*%
D18*
%TO.N,GND*%
X154250000Y-96650000D03*
X157625000Y-101125000D03*
X152225000Y-80000000D03*
X153125000Y-85600000D03*
X149962500Y-101312500D03*
X144350000Y-101125000D03*
X147925000Y-88300000D03*
X152125000Y-93050000D03*
X156735000Y-70950000D03*
%TD*%
%TA.AperFunction,Conductor*%
%TO.N,GND*%
G36*
X160492539Y-69120185D02*
G01*
X160538294Y-69172989D01*
X160549500Y-69224500D01*
X160549500Y-79582009D01*
X160529815Y-79649048D01*
X160477011Y-79694803D01*
X160407853Y-79704747D01*
X160344297Y-79675722D01*
X160310939Y-79629463D01*
X160299043Y-79600744D01*
X160266504Y-79552047D01*
X159718553Y-80099999D01*
X159718553Y-80100000D01*
X160266505Y-80647952D01*
X160299044Y-80599253D01*
X160310939Y-80570537D01*
X160354780Y-80516134D01*
X160421074Y-80494069D01*
X160488774Y-80511348D01*
X160536384Y-80562485D01*
X160549500Y-80617990D01*
X160549500Y-82433818D01*
X160529815Y-82500857D01*
X160477011Y-82546612D01*
X160407853Y-82556556D01*
X160344297Y-82527531D01*
X160326234Y-82508130D01*
X160296562Y-82468494D01*
X160289046Y-82458454D01*
X160289044Y-82458453D01*
X160289044Y-82458452D01*
X160173835Y-82372206D01*
X160173828Y-82372202D01*
X160038982Y-82321908D01*
X160038983Y-82321908D01*
X159979383Y-82315501D01*
X159979381Y-82315500D01*
X159979373Y-82315500D01*
X159979364Y-82315500D01*
X158775629Y-82315500D01*
X158775623Y-82315501D01*
X158716016Y-82321908D01*
X158581171Y-82372202D01*
X158581164Y-82372206D01*
X158465955Y-82458452D01*
X158465952Y-82458455D01*
X158379706Y-82573664D01*
X158379702Y-82573671D01*
X158329408Y-82708517D01*
X158323001Y-82768116D01*
X158323000Y-82768135D01*
X158323000Y-83971870D01*
X158323001Y-83971876D01*
X158329408Y-84031483D01*
X158379702Y-84166328D01*
X158379706Y-84166335D01*
X158465952Y-84281544D01*
X158465955Y-84281547D01*
X158581164Y-84367793D01*
X158581171Y-84367797D01*
X158716017Y-84418091D01*
X158716016Y-84418091D01*
X158722944Y-84418835D01*
X158775627Y-84424500D01*
X159979372Y-84424499D01*
X160038983Y-84418091D01*
X160173831Y-84367796D01*
X160289046Y-84281546D01*
X160307145Y-84257368D01*
X160326234Y-84231870D01*
X160382167Y-84189999D01*
X160451859Y-84185015D01*
X160513182Y-84218501D01*
X160546666Y-84279824D01*
X160549500Y-84306181D01*
X160549500Y-102975500D01*
X160529815Y-103042539D01*
X160477011Y-103088294D01*
X160425500Y-103099500D01*
X132758549Y-103099500D01*
X132691510Y-103079815D01*
X132645755Y-103027011D01*
X132635811Y-102957853D01*
X132648064Y-102919205D01*
X132713882Y-102790029D01*
X132713882Y-102790028D01*
X132713884Y-102790025D01*
X132774709Y-102602826D01*
X132805500Y-102408422D01*
X132805500Y-102211577D01*
X132774709Y-102017173D01*
X132713882Y-101829970D01*
X132624523Y-101654594D01*
X132508828Y-101495354D01*
X132369646Y-101356172D01*
X132210405Y-101240476D01*
X132035029Y-101151117D01*
X131847826Y-101090290D01*
X131653422Y-101059500D01*
X131653417Y-101059500D01*
X131456583Y-101059500D01*
X131456578Y-101059500D01*
X131262173Y-101090290D01*
X131074970Y-101151117D01*
X130899594Y-101240476D01*
X130808741Y-101306485D01*
X130740354Y-101356172D01*
X130740352Y-101356174D01*
X130740351Y-101356174D01*
X130601174Y-101495351D01*
X130601174Y-101495352D01*
X130601172Y-101495354D01*
X130551485Y-101563741D01*
X130485476Y-101654594D01*
X130395485Y-101831213D01*
X130347511Y-101882009D01*
X130279690Y-101898804D01*
X130213555Y-101876267D01*
X130174515Y-101831213D01*
X130084523Y-101654594D01*
X129968828Y-101495354D01*
X129829646Y-101356172D01*
X129670405Y-101240476D01*
X129495029Y-101151117D01*
X129307826Y-101090290D01*
X129113422Y-101059500D01*
X129113417Y-101059500D01*
X128916583Y-101059500D01*
X128916578Y-101059500D01*
X128722173Y-101090290D01*
X128534970Y-101151117D01*
X128359594Y-101240476D01*
X128268741Y-101306485D01*
X128200354Y-101356172D01*
X128200352Y-101356174D01*
X128200351Y-101356174D01*
X128061174Y-101495351D01*
X128061174Y-101495352D01*
X128061172Y-101495354D01*
X128011485Y-101563741D01*
X127945476Y-101654594D01*
X127855485Y-101831213D01*
X127807511Y-101882009D01*
X127739690Y-101898804D01*
X127673555Y-101876267D01*
X127634515Y-101831213D01*
X127544523Y-101654594D01*
X127428828Y-101495354D01*
X127289646Y-101356172D01*
X127130405Y-101240476D01*
X126955029Y-101151117D01*
X126767826Y-101090290D01*
X126573422Y-101059500D01*
X126573417Y-101059500D01*
X126376583Y-101059500D01*
X126376578Y-101059500D01*
X126182173Y-101090290D01*
X125994970Y-101151117D01*
X125819594Y-101240476D01*
X125728741Y-101306485D01*
X125660354Y-101356172D01*
X125660352Y-101356174D01*
X125660351Y-101356174D01*
X125521174Y-101495351D01*
X125521174Y-101495352D01*
X125521172Y-101495354D01*
X125471485Y-101563741D01*
X125405476Y-101654594D01*
X125315485Y-101831213D01*
X125267511Y-101882009D01*
X125199690Y-101898804D01*
X125133555Y-101876267D01*
X125094515Y-101831213D01*
X125004523Y-101654594D01*
X124888828Y-101495354D01*
X124749646Y-101356172D01*
X124590405Y-101240476D01*
X124415029Y-101151117D01*
X124227826Y-101090290D01*
X124033422Y-101059500D01*
X124033417Y-101059500D01*
X123836583Y-101059500D01*
X123836578Y-101059500D01*
X123642173Y-101090290D01*
X123454970Y-101151117D01*
X123279594Y-101240476D01*
X123188741Y-101306485D01*
X123120354Y-101356172D01*
X123120352Y-101356174D01*
X123120351Y-101356174D01*
X122981174Y-101495351D01*
X122981174Y-101495352D01*
X122981172Y-101495354D01*
X122931485Y-101563741D01*
X122865476Y-101654594D01*
X122775485Y-101831213D01*
X122727511Y-101882009D01*
X122659690Y-101898804D01*
X122593555Y-101876267D01*
X122554515Y-101831213D01*
X122464523Y-101654594D01*
X122348828Y-101495354D01*
X122209646Y-101356172D01*
X122050405Y-101240476D01*
X121875029Y-101151117D01*
X121687826Y-101090290D01*
X121493422Y-101059500D01*
X121493417Y-101059500D01*
X121296583Y-101059500D01*
X121296578Y-101059500D01*
X121102173Y-101090290D01*
X120914970Y-101151117D01*
X120739594Y-101240476D01*
X120648741Y-101306485D01*
X120580354Y-101356172D01*
X120580352Y-101356174D01*
X120580351Y-101356174D01*
X120441174Y-101495351D01*
X120441174Y-101495352D01*
X120441172Y-101495354D01*
X120391485Y-101563741D01*
X120325476Y-101654594D01*
X120236117Y-101829970D01*
X120175290Y-102017173D01*
X120144500Y-102211577D01*
X120144500Y-102408422D01*
X120175290Y-102602826D01*
X120236117Y-102790029D01*
X120301936Y-102919205D01*
X120314832Y-102987875D01*
X120288555Y-103052615D01*
X120231449Y-103092872D01*
X120191451Y-103099500D01*
X119674499Y-103099500D01*
X119607460Y-103079815D01*
X119561705Y-103027011D01*
X119550499Y-102975500D01*
X119550499Y-99233753D01*
X134710000Y-99233753D01*
X134710000Y-99446246D01*
X134743242Y-99656127D01*
X134743242Y-99656130D01*
X134808904Y-99858217D01*
X134905375Y-100047550D01*
X134944728Y-100101716D01*
X135577037Y-99469408D01*
X135594075Y-99532993D01*
X135659901Y-99647007D01*
X135752993Y-99740099D01*
X135867007Y-99805925D01*
X135930590Y-99822962D01*
X135298282Y-100455269D01*
X135298282Y-100455270D01*
X135352449Y-100494624D01*
X135541782Y-100591095D01*
X135743870Y-100656757D01*
X135953754Y-100690000D01*
X136166246Y-100690000D01*
X136376127Y-100656757D01*
X136376130Y-100656757D01*
X136578217Y-100591095D01*
X136767554Y-100494622D01*
X136821716Y-100455270D01*
X136821717Y-100455270D01*
X136189408Y-99822962D01*
X136252993Y-99805925D01*
X136367007Y-99740099D01*
X136460099Y-99647007D01*
X136525925Y-99532993D01*
X136542962Y-99469409D01*
X137213181Y-100139628D01*
X137246666Y-100200951D01*
X137249500Y-100227300D01*
X137249500Y-100237865D01*
X137249501Y-100237876D01*
X137255908Y-100297483D01*
X137306202Y-100432328D01*
X137306206Y-100432335D01*
X137392452Y-100547544D01*
X137392455Y-100547547D01*
X137507664Y-100633793D01*
X137507671Y-100633797D01*
X137642517Y-100684091D01*
X137642516Y-100684091D01*
X137649444Y-100684835D01*
X137702127Y-100690500D01*
X139497872Y-100690499D01*
X139557483Y-100684091D01*
X139692331Y-100633796D01*
X139807546Y-100547546D01*
X139893796Y-100432331D01*
X139944091Y-100297483D01*
X139950500Y-100237873D01*
X139950499Y-98442128D01*
X139944091Y-98382517D01*
X139893796Y-98247669D01*
X139893795Y-98247668D01*
X139893793Y-98247664D01*
X139807547Y-98132455D01*
X139807544Y-98132452D01*
X139692335Y-98046206D01*
X139692328Y-98046202D01*
X139557482Y-97995908D01*
X139557483Y-97995908D01*
X139497883Y-97989501D01*
X139497881Y-97989500D01*
X139497873Y-97989500D01*
X139497864Y-97989500D01*
X137702129Y-97989500D01*
X137702123Y-97989501D01*
X137642516Y-97995908D01*
X137507671Y-98046202D01*
X137507664Y-98046206D01*
X137392455Y-98132452D01*
X137392452Y-98132455D01*
X137306206Y-98247664D01*
X137306202Y-98247671D01*
X137255908Y-98382517D01*
X137249501Y-98442116D01*
X137249501Y-98442123D01*
X137249500Y-98442135D01*
X137249500Y-98452690D01*
X137229815Y-98519729D01*
X137213181Y-98540371D01*
X136542962Y-99210590D01*
X136525925Y-99147007D01*
X136460099Y-99032993D01*
X136367007Y-98939901D01*
X136252993Y-98874075D01*
X136189409Y-98857037D01*
X136821716Y-98224728D01*
X136767550Y-98185375D01*
X136578217Y-98088904D01*
X136376129Y-98023242D01*
X136166246Y-97990000D01*
X135953754Y-97990000D01*
X135743872Y-98023242D01*
X135743869Y-98023242D01*
X135541782Y-98088904D01*
X135352439Y-98185380D01*
X135298282Y-98224727D01*
X135298282Y-98224728D01*
X135930591Y-98857037D01*
X135867007Y-98874075D01*
X135752993Y-98939901D01*
X135659901Y-99032993D01*
X135594075Y-99147007D01*
X135577037Y-99210591D01*
X134944728Y-98578282D01*
X134944727Y-98578282D01*
X134905380Y-98632439D01*
X134808904Y-98821782D01*
X134743242Y-99023869D01*
X134743242Y-99023872D01*
X134710000Y-99233753D01*
X119550499Y-99233753D01*
X119550499Y-94591617D01*
X120145000Y-94591617D01*
X120145000Y-94788382D01*
X120175778Y-94982705D01*
X120236581Y-95169835D01*
X120325905Y-95345145D01*
X120351319Y-95380125D01*
X120351320Y-95380125D01*
X120995000Y-94736445D01*
X120995000Y-94742661D01*
X121022259Y-94844394D01*
X121074920Y-94935606D01*
X121149394Y-95010080D01*
X121240606Y-95062741D01*
X121342339Y-95090000D01*
X121348553Y-95090000D01*
X120704873Y-95733677D01*
X120704873Y-95733678D01*
X120739858Y-95759096D01*
X120915164Y-95848418D01*
X121102294Y-95909221D01*
X121296618Y-95940000D01*
X121493382Y-95940000D01*
X121687705Y-95909221D01*
X121874835Y-95848418D01*
X122050143Y-95759095D01*
X122085125Y-95733678D01*
X122085126Y-95733678D01*
X121441448Y-95090000D01*
X121447661Y-95090000D01*
X121549394Y-95062741D01*
X121640606Y-95010080D01*
X121715080Y-94935606D01*
X121767741Y-94844394D01*
X121795000Y-94742661D01*
X121795000Y-94736448D01*
X122438678Y-95380126D01*
X122438678Y-95380125D01*
X122464097Y-95345141D01*
X122554234Y-95168236D01*
X122602208Y-95117439D01*
X122670029Y-95100644D01*
X122736164Y-95123181D01*
X122775204Y-95168235D01*
X122776115Y-95170024D01*
X122776116Y-95170025D01*
X122865476Y-95345405D01*
X122981172Y-95504646D01*
X123120354Y-95643828D01*
X123279595Y-95759524D01*
X123362455Y-95801743D01*
X123454970Y-95848882D01*
X123454972Y-95848882D01*
X123454975Y-95848884D01*
X123555317Y-95881487D01*
X123642173Y-95909709D01*
X123836578Y-95940500D01*
X123836583Y-95940500D01*
X124033422Y-95940500D01*
X124227826Y-95909709D01*
X124229328Y-95909221D01*
X124415025Y-95848884D01*
X124590405Y-95759524D01*
X124749646Y-95643828D01*
X124888828Y-95504646D01*
X125004524Y-95345405D01*
X125093884Y-95170025D01*
X125094515Y-95168787D01*
X125142489Y-95117990D01*
X125210310Y-95101195D01*
X125276445Y-95123732D01*
X125315485Y-95168787D01*
X125405474Y-95345403D01*
X125430702Y-95380125D01*
X125521172Y-95504646D01*
X125660354Y-95643828D01*
X125819595Y-95759524D01*
X125902455Y-95801743D01*
X125994970Y-95848882D01*
X125994972Y-95848882D01*
X125994975Y-95848884D01*
X126095317Y-95881487D01*
X126182173Y-95909709D01*
X126376578Y-95940500D01*
X126376583Y-95940500D01*
X126573422Y-95940500D01*
X126767826Y-95909709D01*
X126769328Y-95909221D01*
X126955025Y-95848884D01*
X127130405Y-95759524D01*
X127289646Y-95643828D01*
X127428828Y-95504646D01*
X127544524Y-95345405D01*
X127633884Y-95170025D01*
X127634515Y-95168787D01*
X127682489Y-95117990D01*
X127750310Y-95101195D01*
X127816445Y-95123732D01*
X127855485Y-95168787D01*
X127945474Y-95345403D01*
X127970702Y-95380125D01*
X128061172Y-95504646D01*
X128200354Y-95643828D01*
X128359595Y-95759524D01*
X128442455Y-95801743D01*
X128534970Y-95848882D01*
X128534972Y-95848882D01*
X128534975Y-95848884D01*
X128635317Y-95881487D01*
X128722173Y-95909709D01*
X128916578Y-95940500D01*
X128916583Y-95940500D01*
X129113422Y-95940500D01*
X129307826Y-95909709D01*
X129309328Y-95909221D01*
X129495025Y-95848884D01*
X129670405Y-95759524D01*
X129829646Y-95643828D01*
X129968828Y-95504646D01*
X130084524Y-95345405D01*
X130173884Y-95170025D01*
X130174515Y-95168787D01*
X130222489Y-95117990D01*
X130290310Y-95101195D01*
X130356445Y-95123732D01*
X130395485Y-95168787D01*
X130485474Y-95345403D01*
X130510702Y-95380125D01*
X130601172Y-95504646D01*
X130740354Y-95643828D01*
X130899595Y-95759524D01*
X130982455Y-95801743D01*
X131074970Y-95848882D01*
X131074972Y-95848882D01*
X131074975Y-95848884D01*
X131175317Y-95881487D01*
X131262173Y-95909709D01*
X131456578Y-95940500D01*
X131456583Y-95940500D01*
X131653422Y-95940500D01*
X131847826Y-95909709D01*
X131849328Y-95909221D01*
X132035025Y-95848884D01*
X132210405Y-95759524D01*
X132369646Y-95643828D01*
X132508828Y-95504646D01*
X132624524Y-95345405D01*
X132713884Y-95170025D01*
X132774709Y-94982826D01*
X132782188Y-94935606D01*
X132805500Y-94788422D01*
X132805500Y-94591577D01*
X132774709Y-94397173D01*
X132713882Y-94209970D01*
X132666743Y-94117455D01*
X132624524Y-94034595D01*
X132508828Y-93875354D01*
X132369646Y-93736172D01*
X132210405Y-93620476D01*
X132035029Y-93531117D01*
X131847826Y-93470290D01*
X131653422Y-93439500D01*
X131653417Y-93439500D01*
X131456583Y-93439500D01*
X131456578Y-93439500D01*
X131262173Y-93470290D01*
X131074970Y-93531117D01*
X130899594Y-93620476D01*
X130808741Y-93686485D01*
X130740354Y-93736172D01*
X130740352Y-93736174D01*
X130740351Y-93736174D01*
X130601174Y-93875351D01*
X130601174Y-93875352D01*
X130601172Y-93875354D01*
X130551485Y-93943741D01*
X130485476Y-94034594D01*
X130395485Y-94211213D01*
X130347511Y-94262009D01*
X130279690Y-94278804D01*
X130213555Y-94256267D01*
X130174515Y-94211213D01*
X130147397Y-94157992D01*
X130084524Y-94034595D01*
X129968828Y-93875354D01*
X129829646Y-93736172D01*
X129670405Y-93620476D01*
X129495029Y-93531117D01*
X129307826Y-93470290D01*
X129113422Y-93439500D01*
X129113417Y-93439500D01*
X128916583Y-93439500D01*
X128916578Y-93439500D01*
X128722173Y-93470290D01*
X128534970Y-93531117D01*
X128359594Y-93620476D01*
X128268741Y-93686485D01*
X128200354Y-93736172D01*
X128200352Y-93736174D01*
X128200351Y-93736174D01*
X128061174Y-93875351D01*
X128061174Y-93875352D01*
X128061172Y-93875354D01*
X128011485Y-93943741D01*
X127945476Y-94034594D01*
X127855485Y-94211213D01*
X127807511Y-94262009D01*
X127739690Y-94278804D01*
X127673555Y-94256267D01*
X127634515Y-94211213D01*
X127607397Y-94157992D01*
X127544524Y-94034595D01*
X127428828Y-93875354D01*
X127289646Y-93736172D01*
X127130405Y-93620476D01*
X126955029Y-93531117D01*
X126767826Y-93470290D01*
X126573422Y-93439500D01*
X126573417Y-93439500D01*
X126376583Y-93439500D01*
X126376578Y-93439500D01*
X126182173Y-93470290D01*
X125994970Y-93531117D01*
X125819594Y-93620476D01*
X125728741Y-93686485D01*
X125660354Y-93736172D01*
X125660352Y-93736174D01*
X125660351Y-93736174D01*
X125521174Y-93875351D01*
X125521174Y-93875352D01*
X125521172Y-93875354D01*
X125471485Y-93943741D01*
X125405476Y-94034594D01*
X125315485Y-94211213D01*
X125267511Y-94262009D01*
X125199690Y-94278804D01*
X125133555Y-94256267D01*
X125094515Y-94211213D01*
X125067397Y-94157992D01*
X125004524Y-94034595D01*
X124888828Y-93875354D01*
X124749646Y-93736172D01*
X124590405Y-93620476D01*
X124415029Y-93531117D01*
X124227826Y-93470290D01*
X124033422Y-93439500D01*
X124033417Y-93439500D01*
X123836583Y-93439500D01*
X123836578Y-93439500D01*
X123642173Y-93470290D01*
X123454970Y-93531117D01*
X123279594Y-93620476D01*
X123188741Y-93686485D01*
X123120354Y-93736172D01*
X123120352Y-93736174D01*
X123120351Y-93736174D01*
X122981174Y-93875351D01*
X122981174Y-93875352D01*
X122981172Y-93875354D01*
X122931485Y-93943741D01*
X122865476Y-94034594D01*
X122775204Y-94211764D01*
X122727229Y-94262560D01*
X122659408Y-94279355D01*
X122593274Y-94256818D01*
X122554234Y-94211764D01*
X122464096Y-94034858D01*
X122438678Y-93999873D01*
X122438677Y-93999873D01*
X121795000Y-94643551D01*
X121795000Y-94637339D01*
X121767741Y-94535606D01*
X121715080Y-94444394D01*
X121640606Y-94369920D01*
X121549394Y-94317259D01*
X121447661Y-94290000D01*
X121441447Y-94290000D01*
X122085125Y-93646320D01*
X122085125Y-93646319D01*
X122050145Y-93620905D01*
X121874835Y-93531581D01*
X121687705Y-93470778D01*
X121493382Y-93440000D01*
X121296618Y-93440000D01*
X121102294Y-93470778D01*
X120915161Y-93531582D01*
X120739863Y-93620899D01*
X120739859Y-93620902D01*
X120704873Y-93646320D01*
X120704872Y-93646320D01*
X121348554Y-94290000D01*
X121342339Y-94290000D01*
X121240606Y-94317259D01*
X121149394Y-94369920D01*
X121074920Y-94444394D01*
X121022259Y-94535606D01*
X120995000Y-94637339D01*
X120995000Y-94643552D01*
X120351320Y-93999872D01*
X120351320Y-93999873D01*
X120325902Y-94034859D01*
X120325899Y-94034863D01*
X120236582Y-94210161D01*
X120175778Y-94397294D01*
X120145000Y-94591617D01*
X119550499Y-94591617D01*
X119550499Y-78078713D01*
X121959500Y-78078713D01*
X121959500Y-78291286D01*
X121991048Y-78490477D01*
X121992754Y-78501243D01*
X122024562Y-78599139D01*
X122058444Y-78703414D01*
X122154951Y-78892820D01*
X122279890Y-79064786D01*
X122393430Y-79178326D01*
X122426915Y-79239649D01*
X122421931Y-79309341D01*
X122380059Y-79365274D01*
X122349083Y-79382189D01*
X122217669Y-79431203D01*
X122217664Y-79431206D01*
X122102455Y-79517452D01*
X122102452Y-79517455D01*
X122016206Y-79632664D01*
X122016202Y-79632671D01*
X121965908Y-79767517D01*
X121959501Y-79827116D01*
X121959501Y-79827123D01*
X121959500Y-79827135D01*
X121959500Y-81622870D01*
X121959501Y-81622876D01*
X121965908Y-81682483D01*
X122016202Y-81817328D01*
X122016206Y-81817335D01*
X122102452Y-81932544D01*
X122102455Y-81932547D01*
X122217664Y-82018793D01*
X122217671Y-82018797D01*
X122352517Y-82069091D01*
X122352516Y-82069091D01*
X122359444Y-82069835D01*
X122412127Y-82075500D01*
X124207872Y-82075499D01*
X124267483Y-82069091D01*
X124402331Y-82018796D01*
X124517546Y-81932546D01*
X124603796Y-81817331D01*
X124654091Y-81682483D01*
X124660500Y-81622873D01*
X124660499Y-79827128D01*
X124654091Y-79767517D01*
X124630679Y-79704747D01*
X124603797Y-79632671D01*
X124603793Y-79632664D01*
X124517547Y-79517455D01*
X124517544Y-79517452D01*
X124402335Y-79431206D01*
X124402328Y-79431202D01*
X124270917Y-79382189D01*
X124214983Y-79340318D01*
X124190566Y-79274853D01*
X124205418Y-79206580D01*
X124226563Y-79178332D01*
X124340104Y-79064792D01*
X124354121Y-79045500D01*
X124465048Y-78892820D01*
X124465047Y-78892820D01*
X124465051Y-78892816D01*
X124561557Y-78703412D01*
X124627246Y-78501243D01*
X124660500Y-78291287D01*
X124660500Y-78078713D01*
X124627246Y-77868757D01*
X124561557Y-77666588D01*
X124465051Y-77477184D01*
X124465049Y-77477181D01*
X124465048Y-77477179D01*
X124340109Y-77305213D01*
X124189786Y-77154890D01*
X124017820Y-77029951D01*
X123828414Y-76933444D01*
X123828413Y-76933443D01*
X123828412Y-76933443D01*
X123626243Y-76867754D01*
X123626241Y-76867753D01*
X123626240Y-76867753D01*
X123464957Y-76842208D01*
X123416287Y-76834500D01*
X123203713Y-76834500D01*
X123155042Y-76842208D01*
X122993760Y-76867753D01*
X122791585Y-76933444D01*
X122602179Y-77029951D01*
X122430213Y-77154890D01*
X122279890Y-77305213D01*
X122154951Y-77477179D01*
X122058444Y-77666585D01*
X121992753Y-77868760D01*
X121959500Y-78078713D01*
X119550499Y-78078713D01*
X119550499Y-70878713D01*
X121984500Y-70878713D01*
X121984500Y-71091287D01*
X122017754Y-71301243D01*
X122079380Y-71490908D01*
X122083444Y-71503414D01*
X122179951Y-71692820D01*
X122304890Y-71864786D01*
X122418430Y-71978326D01*
X122451915Y-72039649D01*
X122446931Y-72109341D01*
X122405059Y-72165274D01*
X122374083Y-72182189D01*
X122242669Y-72231203D01*
X122242664Y-72231206D01*
X122127455Y-72317452D01*
X122127452Y-72317455D01*
X122041206Y-72432664D01*
X122041202Y-72432671D01*
X121990908Y-72567517D01*
X121984501Y-72627116D01*
X121984501Y-72627123D01*
X121984500Y-72627135D01*
X121984500Y-74422870D01*
X121984501Y-74422876D01*
X121990908Y-74482483D01*
X122041202Y-74617328D01*
X122041206Y-74617335D01*
X122127452Y-74732544D01*
X122127455Y-74732547D01*
X122242664Y-74818793D01*
X122242671Y-74818797D01*
X122377517Y-74869091D01*
X122377516Y-74869091D01*
X122384444Y-74869835D01*
X122437127Y-74875500D01*
X124232872Y-74875499D01*
X124292483Y-74869091D01*
X124427331Y-74818796D01*
X124542546Y-74732546D01*
X124628796Y-74617331D01*
X124679091Y-74482483D01*
X124685500Y-74422873D01*
X124685499Y-72627128D01*
X124679091Y-72567517D01*
X124650392Y-72490572D01*
X124628797Y-72432671D01*
X124628793Y-72432664D01*
X124542547Y-72317455D01*
X124542544Y-72317452D01*
X124427335Y-72231206D01*
X124427328Y-72231202D01*
X124295917Y-72182189D01*
X124239983Y-72140318D01*
X124215566Y-72074853D01*
X124230418Y-72006580D01*
X124251563Y-71978332D01*
X124365104Y-71864792D01*
X124408625Y-71804890D01*
X124424849Y-71782559D01*
X127130500Y-71782559D01*
X127130500Y-71967440D01*
X127159419Y-72150030D01*
X127216546Y-72325849D01*
X127216547Y-72325852D01*
X127300479Y-72490575D01*
X127409135Y-72640129D01*
X127409139Y-72640134D01*
X127539865Y-72770860D01*
X127539870Y-72770864D01*
X127628147Y-72835000D01*
X127689428Y-72879523D01*
X127797106Y-72934388D01*
X127854147Y-72963452D01*
X127854150Y-72963453D01*
X127942059Y-72992016D01*
X128029971Y-73020580D01*
X128040150Y-73022192D01*
X128042263Y-73022527D01*
X128105397Y-73052457D01*
X128142328Y-73111769D01*
X128141330Y-73181631D01*
X128102719Y-73239864D01*
X128042263Y-73267473D01*
X128029969Y-73269420D01*
X127854150Y-73326546D01*
X127854147Y-73326547D01*
X127689424Y-73410479D01*
X127539870Y-73519135D01*
X127539865Y-73519139D01*
X127409139Y-73649865D01*
X127409135Y-73649870D01*
X127300479Y-73799424D01*
X127216547Y-73964147D01*
X127216546Y-73964150D01*
X127159419Y-74139969D01*
X127130500Y-74322559D01*
X127130500Y-74507440D01*
X127159419Y-74690030D01*
X127216546Y-74865849D01*
X127216547Y-74865852D01*
X127273588Y-74977799D01*
X127288993Y-75008034D01*
X127300479Y-75030575D01*
X127409135Y-75180129D01*
X127409139Y-75180134D01*
X127539865Y-75310860D01*
X127539870Y-75310864D01*
X127662531Y-75399981D01*
X127689428Y-75419523D01*
X127755384Y-75453129D01*
X127854147Y-75503452D01*
X127854150Y-75503453D01*
X127942059Y-75532016D01*
X128029971Y-75560580D01*
X128040150Y-75562192D01*
X128042263Y-75562527D01*
X128105397Y-75592457D01*
X128142328Y-75651769D01*
X128141330Y-75721631D01*
X128102719Y-75779864D01*
X128042263Y-75807473D01*
X128029969Y-75809420D01*
X127854150Y-75866546D01*
X127854147Y-75866547D01*
X127689424Y-75950479D01*
X127539870Y-76059135D01*
X127539865Y-76059139D01*
X127409139Y-76189865D01*
X127409135Y-76189870D01*
X127300479Y-76339424D01*
X127216547Y-76504147D01*
X127216546Y-76504150D01*
X127159419Y-76679969D01*
X127130500Y-76862559D01*
X127130500Y-77047440D01*
X127159419Y-77230030D01*
X127216546Y-77405849D01*
X127216547Y-77405852D01*
X127300479Y-77570575D01*
X127409135Y-77720129D01*
X127409139Y-77720134D01*
X127539865Y-77850860D01*
X127539870Y-77850864D01*
X127670318Y-77945639D01*
X127689428Y-77959523D01*
X127797106Y-78014388D01*
X127854147Y-78043452D01*
X127854150Y-78043453D01*
X127942059Y-78072016D01*
X128029971Y-78100580D01*
X128040150Y-78102192D01*
X128042263Y-78102527D01*
X128105397Y-78132457D01*
X128142328Y-78191769D01*
X128141330Y-78261631D01*
X128102719Y-78319864D01*
X128042263Y-78347473D01*
X128029969Y-78349420D01*
X127854150Y-78406546D01*
X127854147Y-78406547D01*
X127689424Y-78490479D01*
X127539870Y-78599135D01*
X127539865Y-78599139D01*
X127409139Y-78729865D01*
X127409135Y-78729870D01*
X127300479Y-78879424D01*
X127216547Y-79044147D01*
X127216546Y-79044150D01*
X127159419Y-79219969D01*
X127130500Y-79402559D01*
X127130500Y-79587440D01*
X127159419Y-79770030D01*
X127216546Y-79945849D01*
X127216547Y-79945852D01*
X127273588Y-80057799D01*
X127295090Y-80100000D01*
X127300479Y-80110575D01*
X127409135Y-80260129D01*
X127409139Y-80260134D01*
X127539865Y-80390860D01*
X127539870Y-80390864D01*
X127562892Y-80407590D01*
X127689428Y-80499523D01*
X127797106Y-80554388D01*
X127854147Y-80583452D01*
X127854150Y-80583453D01*
X127903502Y-80599488D01*
X128029971Y-80640580D01*
X128040150Y-80642192D01*
X128042263Y-80642527D01*
X128105397Y-80672457D01*
X128142328Y-80731769D01*
X128141330Y-80801631D01*
X128102719Y-80859864D01*
X128042263Y-80887473D01*
X128029969Y-80889420D01*
X127854150Y-80946546D01*
X127854147Y-80946547D01*
X127689424Y-81030479D01*
X127539870Y-81139135D01*
X127539865Y-81139139D01*
X127409139Y-81269865D01*
X127409135Y-81269870D01*
X127300479Y-81419424D01*
X127216547Y-81584147D01*
X127216546Y-81584150D01*
X127159419Y-81759969D01*
X127130500Y-81942559D01*
X127130500Y-82127440D01*
X127159419Y-82310030D01*
X127216546Y-82485849D01*
X127216547Y-82485852D01*
X127300479Y-82650575D01*
X127409135Y-82800129D01*
X127409139Y-82800134D01*
X127539865Y-82930860D01*
X127539870Y-82930864D01*
X127657665Y-83016446D01*
X127689428Y-83039523D01*
X127749243Y-83070000D01*
X127854147Y-83123452D01*
X127854150Y-83123453D01*
X127942059Y-83152016D01*
X128029971Y-83180580D01*
X128040150Y-83182192D01*
X128042263Y-83182527D01*
X128105397Y-83212457D01*
X128142328Y-83271769D01*
X128141330Y-83341631D01*
X128102719Y-83399864D01*
X128042263Y-83427473D01*
X128029969Y-83429420D01*
X127854150Y-83486546D01*
X127854147Y-83486547D01*
X127689424Y-83570479D01*
X127539870Y-83679135D01*
X127539865Y-83679139D01*
X127409139Y-83809865D01*
X127409135Y-83809870D01*
X127300480Y-83959423D01*
X127300478Y-83959425D01*
X127300477Y-83959428D01*
X127281126Y-83997404D01*
X127216547Y-84124147D01*
X127216546Y-84124150D01*
X127159419Y-84299969D01*
X127130500Y-84482559D01*
X127130500Y-84667440D01*
X127159419Y-84850030D01*
X127216546Y-85025849D01*
X127216547Y-85025852D01*
X127300479Y-85190575D01*
X127409135Y-85340129D01*
X127409139Y-85340134D01*
X127539865Y-85470860D01*
X127539870Y-85470864D01*
X127670318Y-85565639D01*
X127689428Y-85579523D01*
X127797106Y-85634388D01*
X127854147Y-85663452D01*
X127854150Y-85663453D01*
X127942059Y-85692016D01*
X128029971Y-85720580D01*
X128040150Y-85722192D01*
X128042263Y-85722527D01*
X128105397Y-85752457D01*
X128142328Y-85811769D01*
X128141330Y-85881631D01*
X128102719Y-85939864D01*
X128042263Y-85967473D01*
X128029969Y-85969420D01*
X127854150Y-86026546D01*
X127854147Y-86026547D01*
X127689424Y-86110479D01*
X127539870Y-86219135D01*
X127539865Y-86219139D01*
X127409139Y-86349865D01*
X127409135Y-86349870D01*
X127300479Y-86499424D01*
X127216547Y-86664147D01*
X127216546Y-86664150D01*
X127159419Y-86839969D01*
X127130500Y-87022559D01*
X127130500Y-87207440D01*
X127159419Y-87390030D01*
X127216546Y-87565849D01*
X127216547Y-87565852D01*
X127300479Y-87730575D01*
X127409135Y-87880129D01*
X127409139Y-87880134D01*
X127539865Y-88010860D01*
X127539870Y-88010864D01*
X127670318Y-88105639D01*
X127689428Y-88119523D01*
X127797106Y-88174388D01*
X127854147Y-88203452D01*
X127854150Y-88203453D01*
X127942059Y-88232016D01*
X128029971Y-88260580D01*
X128040150Y-88262192D01*
X128042263Y-88262527D01*
X128105397Y-88292457D01*
X128142328Y-88351769D01*
X128141330Y-88421631D01*
X128102719Y-88479864D01*
X128042263Y-88507473D01*
X128029969Y-88509420D01*
X127854150Y-88566546D01*
X127854147Y-88566547D01*
X127689424Y-88650479D01*
X127539870Y-88759135D01*
X127539865Y-88759139D01*
X127409139Y-88889865D01*
X127409135Y-88889870D01*
X127300479Y-89039424D01*
X127216547Y-89204147D01*
X127216546Y-89204150D01*
X127159419Y-89379969D01*
X127130500Y-89562559D01*
X127130500Y-89747440D01*
X127159419Y-89930030D01*
X127216546Y-90105849D01*
X127216547Y-90105852D01*
X127300479Y-90270575D01*
X127409135Y-90420129D01*
X127409139Y-90420134D01*
X127539865Y-90550860D01*
X127539870Y-90550864D01*
X127670318Y-90645639D01*
X127689428Y-90659523D01*
X127797106Y-90714388D01*
X127854147Y-90743452D01*
X127854150Y-90743453D01*
X128029969Y-90800580D01*
X128212560Y-90829500D01*
X128212565Y-90829500D01*
X128397440Y-90829500D01*
X128580030Y-90800580D01*
X128755849Y-90743453D01*
X128755852Y-90743452D01*
X128920572Y-90659523D01*
X129070136Y-90550859D01*
X129200859Y-90420136D01*
X129309523Y-90270572D01*
X129393452Y-90105852D01*
X129450580Y-89930029D01*
X129479500Y-89747440D01*
X129479500Y-89562559D01*
X129450580Y-89379969D01*
X129393453Y-89204150D01*
X129393452Y-89204147D01*
X129364388Y-89147106D01*
X129309523Y-89039428D01*
X129295639Y-89020318D01*
X129200864Y-88889870D01*
X129200860Y-88889865D01*
X129070134Y-88759139D01*
X129070129Y-88759135D01*
X128920575Y-88650479D01*
X128920574Y-88650478D01*
X128920572Y-88650477D01*
X128867799Y-88623588D01*
X128755852Y-88566547D01*
X128755849Y-88566546D01*
X128580030Y-88509420D01*
X128567737Y-88507473D01*
X128504602Y-88477544D01*
X128467671Y-88418232D01*
X128468669Y-88348370D01*
X128507279Y-88290137D01*
X128567737Y-88262527D01*
X128569508Y-88262246D01*
X128580029Y-88260580D01*
X128755852Y-88203452D01*
X128920572Y-88119523D01*
X129070136Y-88010859D01*
X129200859Y-87880136D01*
X129309523Y-87730572D01*
X129393452Y-87565852D01*
X129450580Y-87390029D01*
X129479500Y-87207440D01*
X129479500Y-87022559D01*
X129450580Y-86839969D01*
X129393453Y-86664150D01*
X129393452Y-86664147D01*
X129364388Y-86607106D01*
X129309523Y-86499428D01*
X129295639Y-86480318D01*
X129200864Y-86349870D01*
X129200860Y-86349865D01*
X129070134Y-86219139D01*
X129070129Y-86219135D01*
X128920575Y-86110479D01*
X128920574Y-86110478D01*
X128920572Y-86110477D01*
X128867799Y-86083588D01*
X128755852Y-86026547D01*
X128755849Y-86026546D01*
X128580030Y-85969420D01*
X128567737Y-85967473D01*
X128504602Y-85937544D01*
X128467671Y-85878232D01*
X128468669Y-85808370D01*
X128507279Y-85750137D01*
X128567737Y-85722527D01*
X128569508Y-85722246D01*
X128580029Y-85720580D01*
X128755852Y-85663452D01*
X128920572Y-85579523D01*
X129070136Y-85470859D01*
X129200859Y-85340136D01*
X129309523Y-85190572D01*
X129393452Y-85025852D01*
X129450580Y-84850029D01*
X129479500Y-84667440D01*
X129479500Y-84482559D01*
X129450580Y-84299969D01*
X129393453Y-84124150D01*
X129393452Y-84124147D01*
X129346237Y-84031483D01*
X129309523Y-83959428D01*
X129309521Y-83959425D01*
X129309520Y-83959423D01*
X129200864Y-83809870D01*
X129200860Y-83809865D01*
X129070134Y-83679139D01*
X129070129Y-83679135D01*
X128920575Y-83570479D01*
X128920574Y-83570478D01*
X128920572Y-83570477D01*
X128867799Y-83543588D01*
X128755852Y-83486547D01*
X128755849Y-83486546D01*
X128580030Y-83429420D01*
X128567737Y-83427473D01*
X128504602Y-83397544D01*
X128467671Y-83338232D01*
X128468669Y-83268370D01*
X128507279Y-83210137D01*
X128567737Y-83182527D01*
X128569508Y-83182246D01*
X128580029Y-83180580D01*
X128755852Y-83123452D01*
X128920572Y-83039523D01*
X129070136Y-82930859D01*
X129200859Y-82800136D01*
X129309523Y-82650572D01*
X129393452Y-82485852D01*
X129430379Y-82372202D01*
X129450580Y-82310030D01*
X129479500Y-82127440D01*
X129479500Y-81942559D01*
X129450580Y-81759969D01*
X129393453Y-81584150D01*
X129393452Y-81584147D01*
X129364388Y-81527106D01*
X129309523Y-81419428D01*
X129295639Y-81400318D01*
X129200864Y-81269870D01*
X129200860Y-81269865D01*
X129070134Y-81139139D01*
X129070129Y-81139135D01*
X128920575Y-81030479D01*
X128920574Y-81030478D01*
X128920572Y-81030477D01*
X128863709Y-81001504D01*
X128755852Y-80946547D01*
X128755849Y-80946546D01*
X128580030Y-80889420D01*
X128567737Y-80887473D01*
X128504602Y-80857544D01*
X128467671Y-80798232D01*
X128468669Y-80728370D01*
X128507279Y-80670137D01*
X128567737Y-80642527D01*
X128569508Y-80642246D01*
X128580029Y-80640580D01*
X128755852Y-80583452D01*
X128920572Y-80499523D01*
X129070136Y-80390859D01*
X129200859Y-80260136D01*
X129309523Y-80110572D01*
X129393452Y-79945852D01*
X129432029Y-79827123D01*
X129450580Y-79770030D01*
X129479500Y-79587440D01*
X129479500Y-79402559D01*
X129450580Y-79219969D01*
X129393453Y-79044150D01*
X129393452Y-79044147D01*
X129364388Y-78987106D01*
X129309523Y-78879428D01*
X129295639Y-78860318D01*
X129200864Y-78729870D01*
X129200860Y-78729865D01*
X129070134Y-78599139D01*
X129070129Y-78599135D01*
X128920575Y-78490479D01*
X128920574Y-78490478D01*
X128920572Y-78490477D01*
X128867799Y-78463588D01*
X128755852Y-78406547D01*
X128755849Y-78406546D01*
X128580030Y-78349420D01*
X128567737Y-78347473D01*
X128504602Y-78317544D01*
X128467671Y-78258232D01*
X128468669Y-78188370D01*
X128507279Y-78130137D01*
X128567737Y-78102527D01*
X128569508Y-78102246D01*
X128580029Y-78100580D01*
X128755852Y-78043452D01*
X128920572Y-77959523D01*
X129070136Y-77850859D01*
X129200859Y-77720136D01*
X129309523Y-77570572D01*
X129393452Y-77405852D01*
X129393453Y-77405849D01*
X129450580Y-77230030D01*
X129479500Y-77047440D01*
X129479500Y-76862559D01*
X129450580Y-76679969D01*
X129393453Y-76504150D01*
X129393452Y-76504147D01*
X129364388Y-76447106D01*
X129309523Y-76339428D01*
X129284171Y-76304534D01*
X129200864Y-76189870D01*
X129200860Y-76189865D01*
X129070134Y-76059139D01*
X129070129Y-76059135D01*
X128920575Y-75950479D01*
X128920574Y-75950478D01*
X128920572Y-75950477D01*
X128867799Y-75923588D01*
X128755852Y-75866547D01*
X128755849Y-75866546D01*
X128580030Y-75809420D01*
X128567737Y-75807473D01*
X128504602Y-75777544D01*
X128467671Y-75718232D01*
X128468669Y-75648370D01*
X128507279Y-75590137D01*
X128567737Y-75562527D01*
X128569508Y-75562246D01*
X128580029Y-75560580D01*
X128755852Y-75503452D01*
X128920572Y-75419523D01*
X129070136Y-75310859D01*
X129200859Y-75180136D01*
X129309523Y-75030572D01*
X129393452Y-74865852D01*
X129426160Y-74765186D01*
X129450580Y-74690030D01*
X129479500Y-74507440D01*
X129479500Y-74322559D01*
X129450580Y-74139969D01*
X129393453Y-73964150D01*
X129393452Y-73964147D01*
X129342989Y-73865109D01*
X129309523Y-73799428D01*
X129294887Y-73779283D01*
X129200864Y-73649870D01*
X129200860Y-73649865D01*
X129070134Y-73519139D01*
X129070129Y-73519135D01*
X128920575Y-73410479D01*
X128920574Y-73410478D01*
X128920572Y-73410477D01*
X128867799Y-73383588D01*
X128755852Y-73326547D01*
X128755849Y-73326546D01*
X128580030Y-73269420D01*
X128567737Y-73267473D01*
X128504602Y-73237544D01*
X128467671Y-73178232D01*
X128468669Y-73108370D01*
X128507279Y-73050137D01*
X128567737Y-73022527D01*
X128569508Y-73022246D01*
X128580029Y-73020580D01*
X128755852Y-72963452D01*
X128920572Y-72879523D01*
X129070136Y-72770859D01*
X129200859Y-72640136D01*
X129309523Y-72490572D01*
X129393452Y-72325852D01*
X129424205Y-72231203D01*
X129450580Y-72150030D01*
X129479500Y-71967440D01*
X129479500Y-71782559D01*
X142370500Y-71782559D01*
X142370500Y-71967440D01*
X142399419Y-72150030D01*
X142456546Y-72325849D01*
X142456547Y-72325852D01*
X142540479Y-72490575D01*
X142649135Y-72640129D01*
X142649139Y-72640134D01*
X142779865Y-72770860D01*
X142779870Y-72770864D01*
X142868147Y-72835000D01*
X142929428Y-72879523D01*
X143037106Y-72934388D01*
X143094147Y-72963452D01*
X143094150Y-72963453D01*
X143269970Y-73020580D01*
X143283860Y-73022780D01*
X143346995Y-73052709D01*
X143383927Y-73112020D01*
X143382929Y-73181883D01*
X143344320Y-73240115D01*
X143283864Y-73267726D01*
X143270088Y-73269908D01*
X143094338Y-73327013D01*
X142929692Y-73410903D01*
X142929688Y-73410906D01*
X142909283Y-73425729D01*
X142909283Y-73425730D01*
X143480910Y-73997356D01*
X143382886Y-74023622D01*
X143287114Y-74078916D01*
X143208916Y-74157114D01*
X143153622Y-74252886D01*
X143127356Y-74350909D01*
X142555730Y-73779283D01*
X142555729Y-73779283D01*
X142540906Y-73799688D01*
X142540903Y-73799692D01*
X142457013Y-73964338D01*
X142399907Y-74140091D01*
X142371000Y-74322604D01*
X142371000Y-74507395D01*
X142399907Y-74689908D01*
X142457014Y-74865664D01*
X142540900Y-75030303D01*
X142540903Y-75030307D01*
X142555730Y-75050715D01*
X142555730Y-75050716D01*
X143127356Y-74479090D01*
X143153622Y-74577114D01*
X143208916Y-74672886D01*
X143287114Y-74751084D01*
X143382886Y-74806378D01*
X143480909Y-74832643D01*
X142909283Y-75404268D01*
X142909283Y-75404269D01*
X142929686Y-75419092D01*
X143094338Y-75502986D01*
X143270087Y-75560091D01*
X143283857Y-75562272D01*
X143346993Y-75592200D01*
X143383926Y-75651510D01*
X143382930Y-75721373D01*
X143344322Y-75779607D01*
X143283867Y-75807218D01*
X143269971Y-75809419D01*
X143094150Y-75866546D01*
X143094147Y-75866547D01*
X142929424Y-75950479D01*
X142779870Y-76059135D01*
X142779865Y-76059139D01*
X142649139Y-76189865D01*
X142649135Y-76189870D01*
X142540479Y-76339424D01*
X142456547Y-76504147D01*
X142456546Y-76504150D01*
X142399419Y-76679969D01*
X142370500Y-76862559D01*
X142370500Y-77047440D01*
X142399419Y-77230030D01*
X142456546Y-77405849D01*
X142456547Y-77405852D01*
X142540479Y-77570575D01*
X142649135Y-77720129D01*
X142649139Y-77720134D01*
X142779865Y-77850860D01*
X142779870Y-77850864D01*
X142910318Y-77945639D01*
X142929428Y-77959523D01*
X143037106Y-78014388D01*
X143094147Y-78043452D01*
X143094150Y-78043453D01*
X143182059Y-78072016D01*
X143269971Y-78100580D01*
X143280150Y-78102192D01*
X143282263Y-78102527D01*
X143345397Y-78132457D01*
X143382328Y-78191769D01*
X143381330Y-78261631D01*
X143342719Y-78319864D01*
X143282263Y-78347473D01*
X143269969Y-78349420D01*
X143094150Y-78406546D01*
X143094147Y-78406547D01*
X142929424Y-78490479D01*
X142779870Y-78599135D01*
X142779865Y-78599139D01*
X142649139Y-78729865D01*
X142649135Y-78729870D01*
X142540479Y-78879424D01*
X142456547Y-79044147D01*
X142456546Y-79044150D01*
X142399419Y-79219969D01*
X142370500Y-79402559D01*
X142370500Y-79587440D01*
X142399419Y-79770030D01*
X142456546Y-79945849D01*
X142456547Y-79945852D01*
X142513588Y-80057799D01*
X142535090Y-80100000D01*
X142540479Y-80110575D01*
X142649135Y-80260129D01*
X142649139Y-80260134D01*
X142779865Y-80390860D01*
X142779870Y-80390864D01*
X142802892Y-80407590D01*
X142929428Y-80499523D01*
X143037106Y-80554388D01*
X143094147Y-80583452D01*
X143094150Y-80583453D01*
X143143502Y-80599488D01*
X143269971Y-80640580D01*
X143280150Y-80642192D01*
X143282263Y-80642527D01*
X143345397Y-80672457D01*
X143382328Y-80731769D01*
X143381330Y-80801631D01*
X143342719Y-80859864D01*
X143282263Y-80887473D01*
X143269969Y-80889420D01*
X143094150Y-80946546D01*
X143094147Y-80946547D01*
X142929424Y-81030479D01*
X142779870Y-81139135D01*
X142779865Y-81139139D01*
X142649139Y-81269865D01*
X142649135Y-81269870D01*
X142540479Y-81419424D01*
X142456547Y-81584147D01*
X142456546Y-81584150D01*
X142399419Y-81759969D01*
X142370500Y-81942559D01*
X142370500Y-82127440D01*
X142399419Y-82310030D01*
X142456546Y-82485849D01*
X142456547Y-82485852D01*
X142540479Y-82650575D01*
X142649135Y-82800129D01*
X142649139Y-82800134D01*
X142779865Y-82930860D01*
X142779870Y-82930864D01*
X142897665Y-83016446D01*
X142929428Y-83039523D01*
X142989243Y-83070000D01*
X143094147Y-83123452D01*
X143094150Y-83123453D01*
X143182059Y-83152016D01*
X143269971Y-83180580D01*
X143280150Y-83182192D01*
X143282263Y-83182527D01*
X143345397Y-83212457D01*
X143382328Y-83271769D01*
X143381330Y-83341631D01*
X143342719Y-83399864D01*
X143282263Y-83427473D01*
X143269969Y-83429420D01*
X143094150Y-83486546D01*
X143094147Y-83486547D01*
X142929424Y-83570479D01*
X142779870Y-83679135D01*
X142779865Y-83679139D01*
X142649139Y-83809865D01*
X142649135Y-83809870D01*
X142540480Y-83959423D01*
X142540478Y-83959425D01*
X142540477Y-83959428D01*
X142521126Y-83997404D01*
X142456547Y-84124147D01*
X142456546Y-84124150D01*
X142399419Y-84299969D01*
X142370500Y-84482559D01*
X142370500Y-84667440D01*
X142399419Y-84850030D01*
X142456546Y-85025849D01*
X142456547Y-85025852D01*
X142540479Y-85190575D01*
X142649135Y-85340129D01*
X142649139Y-85340134D01*
X142779865Y-85470860D01*
X142779870Y-85470864D01*
X142910318Y-85565639D01*
X142929428Y-85579523D01*
X143037106Y-85634388D01*
X143094147Y-85663452D01*
X143094150Y-85663453D01*
X143182059Y-85692016D01*
X143269971Y-85720580D01*
X143280150Y-85722192D01*
X143282263Y-85722527D01*
X143345397Y-85752457D01*
X143382328Y-85811769D01*
X143381330Y-85881631D01*
X143342719Y-85939864D01*
X143282263Y-85967473D01*
X143269969Y-85969420D01*
X143094150Y-86026546D01*
X143094147Y-86026547D01*
X142929424Y-86110479D01*
X142779870Y-86219135D01*
X142779865Y-86219139D01*
X142649139Y-86349865D01*
X142649135Y-86349870D01*
X142540479Y-86499424D01*
X142456547Y-86664147D01*
X142456546Y-86664150D01*
X142399419Y-86839969D01*
X142370500Y-87022559D01*
X142370500Y-87207440D01*
X142399419Y-87390030D01*
X142456546Y-87565849D01*
X142456547Y-87565852D01*
X142540479Y-87730575D01*
X142649135Y-87880129D01*
X142649139Y-87880134D01*
X142779865Y-88010860D01*
X142779870Y-88010864D01*
X142910318Y-88105639D01*
X142929428Y-88119523D01*
X143037106Y-88174388D01*
X143094147Y-88203452D01*
X143094150Y-88203453D01*
X143182059Y-88232016D01*
X143269971Y-88260580D01*
X143280150Y-88262192D01*
X143282263Y-88262527D01*
X143345397Y-88292457D01*
X143382328Y-88351769D01*
X143381330Y-88421631D01*
X143342719Y-88479864D01*
X143282263Y-88507473D01*
X143269969Y-88509420D01*
X143094150Y-88566546D01*
X143094147Y-88566547D01*
X142929424Y-88650479D01*
X142779870Y-88759135D01*
X142779865Y-88759139D01*
X142649139Y-88889865D01*
X142649135Y-88889870D01*
X142540479Y-89039424D01*
X142456547Y-89204147D01*
X142456546Y-89204150D01*
X142399419Y-89379969D01*
X142370500Y-89562559D01*
X142370500Y-89747440D01*
X142399419Y-89930030D01*
X142456546Y-90105849D01*
X142456547Y-90105852D01*
X142540479Y-90270575D01*
X142649135Y-90420129D01*
X142649139Y-90420134D01*
X142779865Y-90550860D01*
X142779870Y-90550864D01*
X142910318Y-90645639D01*
X142929428Y-90659523D01*
X143037106Y-90714388D01*
X143094147Y-90743452D01*
X143094150Y-90743453D01*
X143269969Y-90800580D01*
X143452560Y-90829500D01*
X143452565Y-90829500D01*
X143637440Y-90829500D01*
X143820030Y-90800580D01*
X143995849Y-90743453D01*
X143995852Y-90743452D01*
X144160572Y-90659523D01*
X144310136Y-90550859D01*
X144440859Y-90420136D01*
X144549523Y-90270572D01*
X144633452Y-90105852D01*
X144690580Y-89930029D01*
X144719500Y-89747440D01*
X144719500Y-89562559D01*
X144690580Y-89379969D01*
X144633453Y-89204150D01*
X144633452Y-89204147D01*
X144604388Y-89147106D01*
X144549523Y-89039428D01*
X144535639Y-89020318D01*
X144440864Y-88889870D01*
X144440860Y-88889865D01*
X144310134Y-88759139D01*
X144310129Y-88759135D01*
X144160575Y-88650479D01*
X144160574Y-88650478D01*
X144160572Y-88650477D01*
X144107799Y-88623588D01*
X143995852Y-88566547D01*
X143995849Y-88566546D01*
X143820030Y-88509420D01*
X143807737Y-88507473D01*
X143744602Y-88477544D01*
X143707671Y-88418232D01*
X143708669Y-88348370D01*
X143747279Y-88290137D01*
X143807737Y-88262527D01*
X143809508Y-88262246D01*
X143820029Y-88260580D01*
X143995852Y-88203452D01*
X144160572Y-88119523D01*
X144310136Y-88010859D01*
X144440859Y-87880136D01*
X144549523Y-87730572D01*
X144633452Y-87565852D01*
X144690580Y-87390029D01*
X144719500Y-87207440D01*
X144719500Y-87022559D01*
X144690580Y-86839969D01*
X144633453Y-86664150D01*
X144633452Y-86664147D01*
X144604388Y-86607106D01*
X144549523Y-86499428D01*
X144535639Y-86480318D01*
X144440864Y-86349870D01*
X144440860Y-86349865D01*
X144310134Y-86219139D01*
X144310129Y-86219135D01*
X144160575Y-86110479D01*
X144160574Y-86110478D01*
X144160572Y-86110477D01*
X144107799Y-86083588D01*
X143995852Y-86026547D01*
X143995849Y-86026546D01*
X143820030Y-85969420D01*
X143807737Y-85967473D01*
X143744602Y-85937544D01*
X143707671Y-85878232D01*
X143708669Y-85808370D01*
X143747279Y-85750137D01*
X143807737Y-85722527D01*
X143809508Y-85722246D01*
X143820029Y-85720580D01*
X143995852Y-85663452D01*
X144160572Y-85579523D01*
X144310136Y-85470859D01*
X144440859Y-85340136D01*
X144549523Y-85190572D01*
X144633452Y-85025852D01*
X144690580Y-84850029D01*
X144719500Y-84667440D01*
X144719500Y-84482559D01*
X144698627Y-84350783D01*
X144690580Y-84299971D01*
X144684594Y-84281547D01*
X144681331Y-84271504D01*
X153749547Y-84271504D01*
X153749547Y-84271505D01*
X153798245Y-84304044D01*
X153990058Y-84383495D01*
X153990066Y-84383497D01*
X154193685Y-84423999D01*
X154193689Y-84424000D01*
X154401311Y-84424000D01*
X154401314Y-84423999D01*
X154604933Y-84383497D01*
X154604941Y-84383495D01*
X154796753Y-84304044D01*
X154845452Y-84271505D01*
X154297501Y-83723553D01*
X154297500Y-83723553D01*
X153749547Y-84271504D01*
X144681331Y-84271504D01*
X144678767Y-84263611D01*
X144633453Y-84124150D01*
X144633452Y-84124147D01*
X144586237Y-84031483D01*
X144549523Y-83959428D01*
X144549521Y-83959425D01*
X144549520Y-83959423D01*
X144440864Y-83809870D01*
X144440860Y-83809865D01*
X144310134Y-83679139D01*
X144310129Y-83679135D01*
X144160575Y-83570479D01*
X144160574Y-83570478D01*
X144160572Y-83570477D01*
X144107799Y-83543588D01*
X143995852Y-83486547D01*
X143995849Y-83486546D01*
X143820030Y-83429420D01*
X143807737Y-83427473D01*
X143800718Y-83424146D01*
X143792950Y-83424195D01*
X143769591Y-83409390D01*
X143744602Y-83397544D01*
X143740495Y-83390949D01*
X143733935Y-83386791D01*
X143722289Y-83361710D01*
X143707671Y-83338232D01*
X143707781Y-83330463D01*
X143704511Y-83323419D01*
X143708273Y-83296023D01*
X143708669Y-83268370D01*
X143710117Y-83266185D01*
X153243500Y-83266185D01*
X153243500Y-83473814D01*
X153284002Y-83677433D01*
X153284004Y-83677441D01*
X153363456Y-83869254D01*
X153395994Y-83917951D01*
X153395994Y-83917952D01*
X153943946Y-83370001D01*
X153943946Y-83369999D01*
X153904451Y-83330504D01*
X153997500Y-83330504D01*
X153997500Y-83409496D01*
X154017944Y-83485796D01*
X154057440Y-83554205D01*
X154113295Y-83610060D01*
X154181704Y-83649556D01*
X154258004Y-83670000D01*
X154336996Y-83670000D01*
X154413296Y-83649556D01*
X154481705Y-83610060D01*
X154537560Y-83554205D01*
X154577056Y-83485796D01*
X154597500Y-83409496D01*
X154597500Y-83369999D01*
X154651053Y-83369999D01*
X154651053Y-83370000D01*
X155199005Y-83917952D01*
X155231544Y-83869253D01*
X155310995Y-83677441D01*
X155310997Y-83677433D01*
X155351499Y-83473814D01*
X155351500Y-83473811D01*
X155351500Y-83266187D01*
X155351499Y-83266186D01*
X155351489Y-83266136D01*
X155783000Y-83266136D01*
X155783000Y-83473863D01*
X155823522Y-83677578D01*
X155823525Y-83677590D01*
X155903011Y-83869488D01*
X155903012Y-83869490D01*
X156018416Y-84042203D01*
X156018419Y-84042207D01*
X156165292Y-84189080D01*
X156165296Y-84189083D01*
X156338007Y-84304486D01*
X156338008Y-84304486D01*
X156338009Y-84304487D01*
X156338011Y-84304488D01*
X156529909Y-84383974D01*
X156529914Y-84383976D01*
X156701421Y-84418091D01*
X156733636Y-84424499D01*
X156733639Y-84424500D01*
X156733641Y-84424500D01*
X156941361Y-84424500D01*
X156941362Y-84424499D01*
X157145086Y-84383976D01*
X157336993Y-84304486D01*
X157509704Y-84189083D01*
X157656583Y-84042204D01*
X157771986Y-83869493D01*
X157851476Y-83677586D01*
X157892000Y-83473859D01*
X157892000Y-83266141D01*
X157892000Y-83266138D01*
X157891999Y-83266136D01*
X157885444Y-83233182D01*
X157851476Y-83062414D01*
X157796985Y-82930860D01*
X157771988Y-82870511D01*
X157771987Y-82870509D01*
X157739605Y-82822047D01*
X157656583Y-82697796D01*
X157656580Y-82697792D01*
X157509707Y-82550919D01*
X157509703Y-82550916D01*
X157336990Y-82435512D01*
X157336988Y-82435511D01*
X157145090Y-82356025D01*
X157145078Y-82356022D01*
X156941362Y-82315500D01*
X156941359Y-82315500D01*
X156733641Y-82315500D01*
X156733638Y-82315500D01*
X156529921Y-82356022D01*
X156529909Y-82356025D01*
X156338011Y-82435511D01*
X156338009Y-82435512D01*
X156165296Y-82550916D01*
X156165292Y-82550919D01*
X156018419Y-82697792D01*
X156018416Y-82697796D01*
X155903012Y-82870509D01*
X155903011Y-82870511D01*
X155823525Y-83062409D01*
X155823522Y-83062421D01*
X155783000Y-83266136D01*
X155351489Y-83266136D01*
X155310997Y-83062566D01*
X155310995Y-83062558D01*
X155231544Y-82870745D01*
X155199004Y-82822047D01*
X154651053Y-83369999D01*
X154597500Y-83369999D01*
X154597500Y-83330504D01*
X154577056Y-83254204D01*
X154537560Y-83185795D01*
X154481705Y-83129940D01*
X154413296Y-83090444D01*
X154336996Y-83070000D01*
X154258004Y-83070000D01*
X154181704Y-83090444D01*
X154113295Y-83129940D01*
X154057440Y-83185795D01*
X154017944Y-83254204D01*
X153997500Y-83330504D01*
X153904451Y-83330504D01*
X153395994Y-82822046D01*
X153363456Y-82870745D01*
X153284004Y-83062558D01*
X153284002Y-83062566D01*
X153243500Y-83266185D01*
X143710117Y-83266185D01*
X143712961Y-83261895D01*
X143714019Y-83254199D01*
X143731999Y-83233182D01*
X143747279Y-83210137D01*
X143755536Y-83205670D01*
X143759440Y-83201108D01*
X143775139Y-83195068D01*
X143791452Y-83186245D01*
X143799466Y-83183836D01*
X143820029Y-83180580D01*
X143995852Y-83123452D01*
X144160572Y-83039523D01*
X144310136Y-82930859D01*
X144440859Y-82800136D01*
X144549523Y-82650572D01*
X144633452Y-82485852D01*
X144633455Y-82485844D01*
X144636529Y-82476385D01*
X144639093Y-82468494D01*
X153749546Y-82468494D01*
X154297500Y-83016446D01*
X154297501Y-83016446D01*
X154845452Y-82468494D01*
X154796754Y-82435956D01*
X154604941Y-82356504D01*
X154604933Y-82356502D01*
X154401314Y-82316000D01*
X154193685Y-82316000D01*
X153990066Y-82356502D01*
X153990058Y-82356504D01*
X153798245Y-82435956D01*
X153749546Y-82468494D01*
X144639093Y-82468494D01*
X144675636Y-82356022D01*
X144690580Y-82310029D01*
X144705479Y-82215957D01*
X144719500Y-82127440D01*
X144719500Y-81942559D01*
X144690580Y-81759969D01*
X144633453Y-81584150D01*
X144633452Y-81584147D01*
X144604388Y-81527106D01*
X144549523Y-81419428D01*
X144535639Y-81400318D01*
X144440864Y-81269870D01*
X144440860Y-81269865D01*
X144310134Y-81139139D01*
X144310129Y-81139135D01*
X144160575Y-81030479D01*
X144160574Y-81030478D01*
X144160572Y-81030477D01*
X144103709Y-81001504D01*
X143995852Y-80946547D01*
X143995849Y-80946546D01*
X143820030Y-80889420D01*
X143807737Y-80887473D01*
X143744602Y-80857544D01*
X143707671Y-80798232D01*
X143708669Y-80728370D01*
X143747279Y-80670137D01*
X143807737Y-80642527D01*
X143809508Y-80642246D01*
X143820029Y-80640580D01*
X143995852Y-80583452D01*
X144160572Y-80499523D01*
X144310136Y-80390859D01*
X144440859Y-80260136D01*
X144549523Y-80110572D01*
X144633452Y-79945852D01*
X144672029Y-79827123D01*
X144690580Y-79770030D01*
X144719500Y-79587440D01*
X144719500Y-79498135D01*
X153230500Y-79498135D01*
X153230500Y-80701870D01*
X153230501Y-80701876D01*
X153236908Y-80761483D01*
X153287202Y-80896328D01*
X153287206Y-80896335D01*
X153373452Y-81011544D01*
X153373455Y-81011547D01*
X153488664Y-81097793D01*
X153488671Y-81097797D01*
X153623517Y-81148091D01*
X153623516Y-81148091D01*
X153630444Y-81148835D01*
X153683127Y-81154500D01*
X154886872Y-81154499D01*
X154946483Y-81148091D01*
X155081331Y-81097796D01*
X155196546Y-81011546D01*
X155282796Y-80896331D01*
X155333091Y-80761483D01*
X155339500Y-80701873D01*
X155339499Y-79996136D01*
X155770500Y-79996136D01*
X155770500Y-80203863D01*
X155811022Y-80407578D01*
X155811025Y-80407590D01*
X155890511Y-80599488D01*
X155890512Y-80599490D01*
X156005916Y-80772203D01*
X156005919Y-80772207D01*
X156152792Y-80919080D01*
X156152796Y-80919083D01*
X156325507Y-81034486D01*
X156325508Y-81034486D01*
X156325509Y-81034487D01*
X156325511Y-81034488D01*
X156517409Y-81113974D01*
X156517414Y-81113976D01*
X156688921Y-81148091D01*
X156721136Y-81154499D01*
X156721139Y-81154500D01*
X156721141Y-81154500D01*
X156928861Y-81154500D01*
X156928862Y-81154499D01*
X157132586Y-81113976D01*
X157324493Y-81034486D01*
X157373854Y-81001504D01*
X158817047Y-81001504D01*
X158817047Y-81001505D01*
X158865745Y-81034044D01*
X159057558Y-81113495D01*
X159057566Y-81113497D01*
X159261185Y-81153999D01*
X159261189Y-81154000D01*
X159468811Y-81154000D01*
X159468814Y-81153999D01*
X159672433Y-81113497D01*
X159672441Y-81113495D01*
X159864253Y-81034044D01*
X159912952Y-81001505D01*
X159365001Y-80453553D01*
X159365000Y-80453553D01*
X158817047Y-81001504D01*
X157373854Y-81001504D01*
X157497204Y-80919083D01*
X157519959Y-80896328D01*
X157548675Y-80867613D01*
X157644080Y-80772207D01*
X157644083Y-80772204D01*
X157759486Y-80599493D01*
X157838976Y-80407586D01*
X157879500Y-80203859D01*
X157879500Y-79996185D01*
X158311000Y-79996185D01*
X158311000Y-80203814D01*
X158351502Y-80407433D01*
X158351504Y-80407441D01*
X158430956Y-80599254D01*
X158463494Y-80647951D01*
X158463494Y-80647952D01*
X159011446Y-80100001D01*
X159011446Y-80099999D01*
X158971951Y-80060504D01*
X159065000Y-80060504D01*
X159065000Y-80139496D01*
X159085444Y-80215796D01*
X159124940Y-80284205D01*
X159180795Y-80340060D01*
X159249204Y-80379556D01*
X159325504Y-80400000D01*
X159404496Y-80400000D01*
X159480796Y-80379556D01*
X159549205Y-80340060D01*
X159605060Y-80284205D01*
X159644556Y-80215796D01*
X159665000Y-80139496D01*
X159665000Y-80060504D01*
X159644556Y-79984204D01*
X159605060Y-79915795D01*
X159549205Y-79859940D01*
X159480796Y-79820444D01*
X159404496Y-79800000D01*
X159325504Y-79800000D01*
X159249204Y-79820444D01*
X159180795Y-79859940D01*
X159124940Y-79915795D01*
X159085444Y-79984204D01*
X159065000Y-80060504D01*
X158971951Y-80060504D01*
X158463494Y-79552046D01*
X158430956Y-79600745D01*
X158351504Y-79792558D01*
X158351502Y-79792566D01*
X158311000Y-79996185D01*
X157879500Y-79996185D01*
X157879500Y-79996141D01*
X157879500Y-79996138D01*
X157879499Y-79996136D01*
X157845880Y-79827123D01*
X157838976Y-79792414D01*
X157819936Y-79746446D01*
X157759488Y-79600511D01*
X157759487Y-79600509D01*
X157727105Y-79552047D01*
X157644083Y-79427796D01*
X157644080Y-79427792D01*
X157497207Y-79280919D01*
X157497203Y-79280916D01*
X157373851Y-79198494D01*
X158817046Y-79198494D01*
X159365000Y-79746446D01*
X159365001Y-79746446D01*
X159912952Y-79198494D01*
X159864254Y-79165956D01*
X159672441Y-79086504D01*
X159672433Y-79086502D01*
X159468814Y-79046000D01*
X159261185Y-79046000D01*
X159057566Y-79086502D01*
X159057558Y-79086504D01*
X158865745Y-79165956D01*
X158817046Y-79198494D01*
X157373851Y-79198494D01*
X157324490Y-79165512D01*
X157324488Y-79165511D01*
X157132590Y-79086025D01*
X157132578Y-79086022D01*
X156928862Y-79045500D01*
X156928859Y-79045500D01*
X156721141Y-79045500D01*
X156721138Y-79045500D01*
X156517421Y-79086022D01*
X156517409Y-79086025D01*
X156325511Y-79165511D01*
X156325509Y-79165512D01*
X156152796Y-79280916D01*
X156152792Y-79280919D01*
X156005919Y-79427792D01*
X156005916Y-79427796D01*
X155890512Y-79600509D01*
X155890511Y-79600511D01*
X155811025Y-79792409D01*
X155811022Y-79792421D01*
X155770500Y-79996136D01*
X155339499Y-79996136D01*
X155339499Y-79498128D01*
X155333091Y-79438517D01*
X155330364Y-79431206D01*
X155282797Y-79303671D01*
X155282793Y-79303664D01*
X155196547Y-79188455D01*
X155196544Y-79188452D01*
X155081335Y-79102206D01*
X155081328Y-79102202D01*
X154946482Y-79051908D01*
X154946483Y-79051908D01*
X154886883Y-79045501D01*
X154886881Y-79045500D01*
X154886873Y-79045500D01*
X154886864Y-79045500D01*
X153683129Y-79045500D01*
X153683123Y-79045501D01*
X153623516Y-79051908D01*
X153488671Y-79102202D01*
X153488664Y-79102206D01*
X153373455Y-79188452D01*
X153373452Y-79188455D01*
X153287206Y-79303664D01*
X153287202Y-79303671D01*
X153236908Y-79438517D01*
X153230501Y-79498116D01*
X153230501Y-79498123D01*
X153230500Y-79498135D01*
X144719500Y-79498135D01*
X144719500Y-79402559D01*
X144690580Y-79219969D01*
X144633453Y-79044150D01*
X144633452Y-79044147D01*
X144604388Y-78987106D01*
X144549523Y-78879428D01*
X144535639Y-78860318D01*
X144440864Y-78729870D01*
X144440860Y-78729865D01*
X144310134Y-78599139D01*
X144310129Y-78599135D01*
X144160575Y-78490479D01*
X144160574Y-78490478D01*
X144160572Y-78490477D01*
X144107799Y-78463588D01*
X143995852Y-78406547D01*
X143995849Y-78406546D01*
X143820030Y-78349420D01*
X143807737Y-78347473D01*
X143744602Y-78317544D01*
X143707671Y-78258232D01*
X143708669Y-78188370D01*
X143747279Y-78130137D01*
X143807737Y-78102527D01*
X143809508Y-78102246D01*
X143820029Y-78100580D01*
X143995852Y-78043452D01*
X144160572Y-77959523D01*
X144310136Y-77850859D01*
X144440859Y-77720136D01*
X144549523Y-77570572D01*
X144633452Y-77405852D01*
X144633453Y-77405849D01*
X144690580Y-77230030D01*
X144719500Y-77047440D01*
X144719500Y-76862559D01*
X144690580Y-76679969D01*
X144633453Y-76504150D01*
X144633452Y-76504147D01*
X144604388Y-76447106D01*
X144549523Y-76339428D01*
X144524171Y-76304534D01*
X144440864Y-76189870D01*
X144440860Y-76189865D01*
X144310134Y-76059139D01*
X144310129Y-76059135D01*
X144219254Y-75993110D01*
X144219231Y-75993095D01*
X144160571Y-75950476D01*
X144056891Y-75897648D01*
X145399500Y-75897648D01*
X145399500Y-76102351D01*
X145431522Y-76304534D01*
X145494781Y-76499223D01*
X145587715Y-76681613D01*
X145708028Y-76847213D01*
X145852786Y-76991971D01*
X146007749Y-77104556D01*
X146018390Y-77112287D01*
X146102003Y-77154890D01*
X146200776Y-77205218D01*
X146200778Y-77205218D01*
X146200781Y-77205220D01*
X146291856Y-77234812D01*
X146395465Y-77268477D01*
X146496557Y-77284488D01*
X146597648Y-77300500D01*
X146597649Y-77300500D01*
X146802351Y-77300500D01*
X146802352Y-77300500D01*
X147004534Y-77268477D01*
X147199219Y-77205220D01*
X147381610Y-77112287D01*
X147494937Y-77029951D01*
X147547213Y-76991971D01*
X147547215Y-76991968D01*
X147547219Y-76991966D01*
X147691966Y-76847219D01*
X147691968Y-76847215D01*
X147691971Y-76847213D01*
X147796892Y-76702799D01*
X147812287Y-76681610D01*
X147905220Y-76499219D01*
X147968477Y-76304534D01*
X148000500Y-76102352D01*
X148000500Y-75897648D01*
X147986526Y-75809419D01*
X147968477Y-75695465D01*
X147934924Y-75592200D01*
X147905220Y-75500781D01*
X147905218Y-75500778D01*
X147905218Y-75500776D01*
X147880940Y-75453129D01*
X147863597Y-75419092D01*
X147853861Y-75399983D01*
X153019500Y-75399983D01*
X153019500Y-76600001D01*
X153019501Y-76600018D01*
X153030000Y-76702796D01*
X153030001Y-76702799D01*
X153073643Y-76834500D01*
X153085186Y-76869334D01*
X153177288Y-77018656D01*
X153301344Y-77142712D01*
X153450666Y-77234814D01*
X153617203Y-77289999D01*
X153719991Y-77300500D01*
X154920008Y-77300499D01*
X155022797Y-77289999D01*
X155189334Y-77234814D01*
X155338656Y-77142712D01*
X155462712Y-77018656D01*
X155554814Y-76869334D01*
X155609999Y-76702797D01*
X155620500Y-76600009D01*
X155620499Y-75399992D01*
X155611394Y-75310864D01*
X155609999Y-75297203D01*
X155609998Y-75297200D01*
X155554814Y-75130666D01*
X155462712Y-74981344D01*
X155338656Y-74857288D01*
X155189334Y-74765186D01*
X155022797Y-74710001D01*
X155022795Y-74710000D01*
X154920010Y-74699500D01*
X153719998Y-74699500D01*
X153719981Y-74699501D01*
X153617203Y-74710000D01*
X153617200Y-74710001D01*
X153450668Y-74765185D01*
X153450663Y-74765187D01*
X153301342Y-74857289D01*
X153177289Y-74981342D01*
X153085187Y-75130663D01*
X153085185Y-75130668D01*
X153068794Y-75180134D01*
X153030001Y-75297203D01*
X153030001Y-75297204D01*
X153030000Y-75297204D01*
X153019500Y-75399983D01*
X147853861Y-75399983D01*
X147812287Y-75318390D01*
X147812285Y-75318387D01*
X147812284Y-75318385D01*
X147691971Y-75152786D01*
X147547213Y-75008028D01*
X147381613Y-74887715D01*
X147381612Y-74887714D01*
X147381610Y-74887713D01*
X147321898Y-74857288D01*
X147199223Y-74794781D01*
X147004534Y-74731522D01*
X146829995Y-74703878D01*
X146802352Y-74699500D01*
X146597648Y-74699500D01*
X146573329Y-74703351D01*
X146395465Y-74731522D01*
X146200776Y-74794781D01*
X146018386Y-74887715D01*
X145852786Y-75008028D01*
X145708028Y-75152786D01*
X145587715Y-75318386D01*
X145494781Y-75500776D01*
X145431522Y-75695465D01*
X145399500Y-75897648D01*
X144056891Y-75897648D01*
X143995852Y-75866547D01*
X143995849Y-75866546D01*
X143820033Y-75809421D01*
X143820031Y-75809420D01*
X143820029Y-75809420D01*
X143807736Y-75807473D01*
X143806133Y-75807219D01*
X143743000Y-75777287D01*
X143706071Y-75717974D01*
X143707071Y-75648111D01*
X143745683Y-75589880D01*
X143806143Y-75562272D01*
X143819911Y-75560091D01*
X143995661Y-75502986D01*
X144160310Y-75419094D01*
X144180715Y-75404268D01*
X144180716Y-75404268D01*
X143609090Y-74832642D01*
X143707114Y-74806378D01*
X143802886Y-74751084D01*
X143881084Y-74672886D01*
X143936378Y-74577114D01*
X143962643Y-74479090D01*
X144534268Y-75050716D01*
X144534268Y-75050715D01*
X144549094Y-75030310D01*
X144632986Y-74865661D01*
X144690092Y-74689908D01*
X144719000Y-74507395D01*
X144719000Y-74322604D01*
X144690092Y-74140091D01*
X144632986Y-73964338D01*
X144549092Y-73799686D01*
X144534269Y-73779283D01*
X144534268Y-73779283D01*
X143962642Y-74350909D01*
X143936378Y-74252886D01*
X143881084Y-74157114D01*
X143802886Y-74078916D01*
X143707114Y-74023622D01*
X143609090Y-73997356D01*
X144180716Y-73425730D01*
X144160307Y-73410903D01*
X144160303Y-73410900D01*
X143995664Y-73327014D01*
X143819910Y-73269907D01*
X143806136Y-73267726D01*
X143743002Y-73237796D01*
X143706072Y-73178484D01*
X143707070Y-73108621D01*
X143745681Y-73050389D01*
X143806137Y-73022780D01*
X143820029Y-73020580D01*
X143995852Y-72963452D01*
X144160572Y-72879523D01*
X144310136Y-72770859D01*
X144440859Y-72640136D01*
X144549523Y-72490572D01*
X144633452Y-72325852D01*
X144664205Y-72231203D01*
X144690580Y-72150030D01*
X144719500Y-71967440D01*
X144719500Y-71937135D01*
X145809500Y-71937135D01*
X145809500Y-73732870D01*
X145809501Y-73732876D01*
X145815908Y-73792483D01*
X145866202Y-73927328D01*
X145866206Y-73927335D01*
X145952452Y-74042544D01*
X145952455Y-74042547D01*
X146067664Y-74128793D01*
X146067671Y-74128797D01*
X146202517Y-74179091D01*
X146202516Y-74179091D01*
X146209444Y-74179835D01*
X146262127Y-74185500D01*
X148057872Y-74185499D01*
X148117483Y-74179091D01*
X148252331Y-74128796D01*
X148367546Y-74042546D01*
X148453796Y-73927331D01*
X148504091Y-73792483D01*
X148510500Y-73732873D01*
X148510499Y-73708979D01*
X148513330Y-73695963D01*
X148523940Y-73676525D01*
X148530179Y-73655275D01*
X148546803Y-73634643D01*
X148546808Y-73634636D01*
X148546811Y-73634634D01*
X148546818Y-73634626D01*
X149217037Y-72964408D01*
X149234075Y-73027993D01*
X149299901Y-73142007D01*
X149392993Y-73235099D01*
X149507007Y-73300925D01*
X149570590Y-73317962D01*
X148938282Y-73950269D01*
X148938282Y-73950270D01*
X148992449Y-73989624D01*
X149181782Y-74086095D01*
X149383870Y-74151757D01*
X149593754Y-74185000D01*
X149806246Y-74185000D01*
X150016127Y-74151757D01*
X150016130Y-74151757D01*
X150218217Y-74086095D01*
X150407554Y-73989622D01*
X150461716Y-73950270D01*
X150461717Y-73950270D01*
X149829408Y-73317962D01*
X149892993Y-73300925D01*
X150007007Y-73235099D01*
X150100099Y-73142007D01*
X150165925Y-73027993D01*
X150182962Y-72964409D01*
X150815270Y-73596717D01*
X150815270Y-73596716D01*
X150854622Y-73542555D01*
X150859232Y-73533507D01*
X150907205Y-73482709D01*
X150975025Y-73465912D01*
X151041161Y-73488447D01*
X151080204Y-73533504D01*
X151084949Y-73542817D01*
X151209890Y-73714786D01*
X151360213Y-73865109D01*
X151532179Y-73990048D01*
X151532181Y-73990049D01*
X151532184Y-73990051D01*
X151721588Y-74086557D01*
X151923757Y-74152246D01*
X152133713Y-74185500D01*
X152133714Y-74185500D01*
X152346286Y-74185500D01*
X152346287Y-74185500D01*
X152556243Y-74152246D01*
X152758412Y-74086557D01*
X152947816Y-73990051D01*
X153034138Y-73927335D01*
X153119786Y-73865109D01*
X153119788Y-73865106D01*
X153119792Y-73865104D01*
X153270104Y-73714792D01*
X153270106Y-73714788D01*
X153270109Y-73714786D01*
X153395048Y-73542820D01*
X153395050Y-73542817D01*
X153395051Y-73542816D01*
X153491557Y-73353412D01*
X153557246Y-73151243D01*
X153590500Y-72941287D01*
X153590500Y-72728713D01*
X153557246Y-72518757D01*
X153491557Y-72316588D01*
X153395051Y-72127184D01*
X153395049Y-72127181D01*
X153395048Y-72127179D01*
X153270109Y-71955213D01*
X153119786Y-71804890D01*
X152947820Y-71679951D01*
X152758414Y-71583444D01*
X152758413Y-71583443D01*
X152758412Y-71583443D01*
X152556243Y-71517754D01*
X152556241Y-71517753D01*
X152556240Y-71517753D01*
X152394957Y-71492208D01*
X152346287Y-71484500D01*
X152133713Y-71484500D01*
X152085042Y-71492208D01*
X151923760Y-71517753D01*
X151721585Y-71583444D01*
X151532179Y-71679951D01*
X151360213Y-71804890D01*
X151209890Y-71955213D01*
X151084949Y-72127182D01*
X151080202Y-72136499D01*
X151032227Y-72187293D01*
X150964405Y-72204087D01*
X150898271Y-72181548D01*
X150859234Y-72136495D01*
X150854626Y-72127452D01*
X150815270Y-72073282D01*
X150815269Y-72073282D01*
X150182962Y-72705590D01*
X150165925Y-72642007D01*
X150100099Y-72527993D01*
X150007007Y-72434901D01*
X149892993Y-72369075D01*
X149829409Y-72352037D01*
X150461716Y-71719728D01*
X150407550Y-71680375D01*
X150218217Y-71583904D01*
X150016129Y-71518242D01*
X149806246Y-71485000D01*
X149593754Y-71485000D01*
X149383872Y-71518242D01*
X149383869Y-71518242D01*
X149181782Y-71583904D01*
X148992439Y-71680380D01*
X148938282Y-71719727D01*
X148938282Y-71719728D01*
X149570591Y-72352037D01*
X149507007Y-72369075D01*
X149392993Y-72434901D01*
X149299901Y-72527993D01*
X149234075Y-72642007D01*
X149217037Y-72705591D01*
X148546818Y-72035372D01*
X148513333Y-71974049D01*
X148513330Y-71974036D01*
X148510499Y-71961015D01*
X148510499Y-71937128D01*
X148504091Y-71877517D01*
X148475926Y-71802002D01*
X148453798Y-71742673D01*
X148453793Y-71742664D01*
X148367547Y-71627455D01*
X148367544Y-71627452D01*
X148252335Y-71541206D01*
X148252328Y-71541202D01*
X148117482Y-71490908D01*
X148117483Y-71490908D01*
X148057883Y-71484501D01*
X148057881Y-71484500D01*
X148057873Y-71484500D01*
X148057864Y-71484500D01*
X146262129Y-71484500D01*
X146262123Y-71484501D01*
X146202516Y-71490908D01*
X146067671Y-71541202D01*
X146067664Y-71541206D01*
X145952455Y-71627452D01*
X145952452Y-71627455D01*
X145866206Y-71742664D01*
X145866202Y-71742671D01*
X145815908Y-71877517D01*
X145809501Y-71937116D01*
X145809500Y-71937135D01*
X144719500Y-71937135D01*
X144719500Y-71782559D01*
X144690580Y-71599969D01*
X144633453Y-71424150D01*
X144633452Y-71424147D01*
X144604388Y-71367106D01*
X144549523Y-71259428D01*
X144535639Y-71240318D01*
X144440864Y-71109870D01*
X144440860Y-71109865D01*
X144310134Y-70979139D01*
X144310129Y-70979135D01*
X144160575Y-70870479D01*
X144160574Y-70870478D01*
X144160572Y-70870477D01*
X144107799Y-70843588D01*
X143995852Y-70786547D01*
X143995849Y-70786546D01*
X143820030Y-70729419D01*
X143637440Y-70700500D01*
X143637435Y-70700500D01*
X143452565Y-70700500D01*
X143452560Y-70700500D01*
X143269969Y-70729419D01*
X143094150Y-70786546D01*
X143094147Y-70786547D01*
X142929424Y-70870479D01*
X142779870Y-70979135D01*
X142779865Y-70979139D01*
X142649139Y-71109865D01*
X142649135Y-71109870D01*
X142540479Y-71259424D01*
X142456547Y-71424147D01*
X142456546Y-71424150D01*
X142399419Y-71599969D01*
X142370500Y-71782559D01*
X129479500Y-71782559D01*
X129450580Y-71599969D01*
X129393453Y-71424150D01*
X129393452Y-71424147D01*
X129364388Y-71367106D01*
X129309523Y-71259428D01*
X129295639Y-71240318D01*
X129200864Y-71109870D01*
X129200860Y-71109865D01*
X129070134Y-70979139D01*
X129070129Y-70979135D01*
X128920575Y-70870479D01*
X128920574Y-70870478D01*
X128920572Y-70870477D01*
X128867799Y-70843588D01*
X128755852Y-70786547D01*
X128755849Y-70786546D01*
X128580030Y-70729419D01*
X128397440Y-70700500D01*
X128397435Y-70700500D01*
X128212565Y-70700500D01*
X128212560Y-70700500D01*
X128029969Y-70729419D01*
X127854150Y-70786546D01*
X127854147Y-70786547D01*
X127689424Y-70870479D01*
X127539870Y-70979135D01*
X127539865Y-70979139D01*
X127409139Y-71109865D01*
X127409135Y-71109870D01*
X127300479Y-71259424D01*
X127216547Y-71424147D01*
X127216546Y-71424150D01*
X127159419Y-71599969D01*
X127130500Y-71782559D01*
X124424849Y-71782559D01*
X124481339Y-71704808D01*
X124485144Y-71699568D01*
X124490051Y-71692816D01*
X124586557Y-71503412D01*
X124652246Y-71301243D01*
X124685500Y-71091287D01*
X124685500Y-70878713D01*
X124652246Y-70668757D01*
X124586557Y-70466588D01*
X124490051Y-70277184D01*
X124490049Y-70277181D01*
X124490048Y-70277179D01*
X124365109Y-70105213D01*
X124214786Y-69954890D01*
X124042820Y-69829951D01*
X123853414Y-69733444D01*
X123853413Y-69733443D01*
X123853412Y-69733443D01*
X123651243Y-69667754D01*
X123651241Y-69667753D01*
X123651240Y-69667753D01*
X123489957Y-69642208D01*
X123441287Y-69634500D01*
X123228713Y-69634500D01*
X123180042Y-69642208D01*
X123018760Y-69667753D01*
X122816585Y-69733444D01*
X122627179Y-69829951D01*
X122455213Y-69954890D01*
X122304890Y-70105213D01*
X122179951Y-70277179D01*
X122083444Y-70466585D01*
X122017753Y-70668760D01*
X121985804Y-70870477D01*
X121984500Y-70878713D01*
X119550499Y-70878713D01*
X119550499Y-69224500D01*
X119570184Y-69157461D01*
X119622988Y-69111706D01*
X119674499Y-69100500D01*
X160425500Y-69100500D01*
X160492539Y-69120185D01*
G37*
%TD.AperFunction*%
%TD*%
M02*
