%TF.GenerationSoftware,KiCad,Pcbnew,10.0.1*%
%TF.CreationDate,2026-05-20T11:00:06+02:00*%
%TF.ProjectId,Luminosite,4c756d69-6e6f-4736-9974-652e6b696361,rev?*%
%TF.SameCoordinates,Original*%
%TF.FileFunction,Copper,L1,Top*%
%TF.FilePolarity,Positive*%
%FSLAX46Y46*%
G04 Gerber Fmt 4.6, Leading zero omitted, Abs format (unit mm)*
G04 Created by KiCad (PCBNEW 10.0.1) date 2026-05-20 11:00:06*
%MOMM*%
%LPD*%
G01*
G04 APERTURE LIST*
G04 Aperture macros list*
%AMRoundRect*
0 Rectangle with rounded corners*
0 $1 Rounding radius*
0 $2 $3 $4 $5 $6 $7 $8 $9 X,Y pos of 4 corners*
0 Add a 4 corners polygon primitive as box body*
4,1,4,$2,$3,$4,$5,$6,$7,$8,$9,$2,$3,0*
0 Add four circle primitives for the rounded corners*
1,1,$1+$1,$2,$3*
1,1,$1+$1,$4,$5*
1,1,$1+$1,$6,$7*
1,1,$1+$1,$8,$9*
0 Add four rect primitives between the rounded corners*
20,1,$1+$1,$2,$3,$4,$5,0*
20,1,$1+$1,$4,$5,$6,$7,0*
20,1,$1+$1,$6,$7,$8,$9,0*
20,1,$1+$1,$8,$9,$2,$3,0*%
G04 Aperture macros list end*
%TA.AperFunction,SMDPad,CuDef*%
%ADD10RoundRect,0.237500X-0.300000X-0.237500X0.300000X-0.237500X0.300000X0.237500X-0.300000X0.237500X0*%
%TD*%
%TA.AperFunction,SMDPad,CuDef*%
%ADD11RoundRect,0.237500X0.237500X-0.300000X0.237500X0.300000X-0.237500X0.300000X-0.237500X-0.300000X0*%
%TD*%
%TA.AperFunction,ComponentPad*%
%ADD12R,1.700000X1.700000*%
%TD*%
%TA.AperFunction,ComponentPad*%
%ADD13C,1.700000*%
%TD*%
%TA.AperFunction,SMDPad,CuDef*%
%ADD14RoundRect,0.103350X0.091650X-0.541650X0.091650X0.541650X-0.091650X0.541650X-0.091650X-0.541650X0*%
%TD*%
%TA.AperFunction,SMDPad,CuDef*%
%ADD15RoundRect,0.237500X-0.237500X0.250000X-0.237500X-0.250000X0.237500X-0.250000X0.237500X0.250000X0*%
%TD*%
%TA.AperFunction,SMDPad,CuDef*%
%ADD16RoundRect,0.237500X0.250000X0.237500X-0.250000X0.237500X-0.250000X-0.237500X0.250000X-0.237500X0*%
%TD*%
%TA.AperFunction,SMDPad,CuDef*%
%ADD17RoundRect,0.237500X-0.250000X-0.237500X0.250000X-0.237500X0.250000X0.237500X-0.250000X0.237500X0*%
%TD*%
%TA.AperFunction,SMDPad,CuDef*%
%ADD18RoundRect,0.237500X0.237500X-0.250000X0.237500X0.250000X-0.237500X0.250000X-0.237500X-0.250000X0*%
%TD*%
%TA.AperFunction,SMDPad,CuDef*%
%ADD19RoundRect,0.375000X-0.375000X0.625000X-0.375000X-0.625000X0.375000X-0.625000X0.375000X0.625000X0*%
%TD*%
%TA.AperFunction,SMDPad,CuDef*%
%ADD20RoundRect,0.500000X-1.400000X0.500000X-1.400000X-0.500000X1.400000X-0.500000X1.400000X0.500000X0*%
%TD*%
%TA.AperFunction,SMDPad,CuDef*%
%ADD21RoundRect,0.150000X-0.825000X-0.150000X0.825000X-0.150000X0.825000X0.150000X-0.825000X0.150000X0*%
%TD*%
%TA.AperFunction,SMDPad,CuDef*%
%ADD22RoundRect,0.103350X0.541650X0.091650X-0.541650X0.091650X-0.541650X-0.091650X0.541650X-0.091650X0*%
%TD*%
%TA.AperFunction,ComponentPad*%
%ADD23C,1.348000*%
%TD*%
%TA.AperFunction,ComponentPad*%
%ADD24R,1.108000X1.108000*%
%TD*%
%TA.AperFunction,ComponentPad*%
%ADD25C,1.108000*%
%TD*%
%TA.AperFunction,ComponentPad*%
%ADD26RoundRect,0.250000X0.550000X0.550000X-0.550000X0.550000X-0.550000X-0.550000X0.550000X-0.550000X0*%
%TD*%
%TA.AperFunction,ComponentPad*%
%ADD27C,1.600000*%
%TD*%
%TA.AperFunction,ComponentPad*%
%ADD28C,1.500000*%
%TD*%
%TA.AperFunction,ViaPad*%
%ADD29C,0.600000*%
%TD*%
%TA.AperFunction,Conductor*%
%ADD30C,0.200000*%
%TD*%
G04 APERTURE END LIST*
D10*
%TO.P,C3,1*%
%TO.N,GND*%
X157622500Y-99500000D03*
%TO.P,C3,2*%
%TO.N,Net-(U1B-+)*%
X159347500Y-99500000D03*
%TD*%
D11*
%TO.P,C5,1*%
%TO.N,VCOM*%
X151960000Y-88005000D03*
%TO.P,C5,2*%
%TO.N,GND*%
X151960000Y-86280000D03*
%TD*%
D12*
%TO.P,J3,1,Pin_1_1*%
%TO.N,Net-(J3-Pin_1)*%
X123310000Y-80725000D03*
D13*
%TO.P,J3,2,Pin_2_2*%
%TO.N,Net-(J3-Pin_2)*%
X123310000Y-78185000D03*
%TD*%
D14*
%TO.P,U1,1*%
%TO.N,Net-(C1-Pad2)*%
X146997500Y-101025000D03*
%TO.P,U1,2,-_2*%
%TO.N,Net-(J2-Pin_1)*%
X147647500Y-101025000D03*
%TO.P,U1,3,+_3*%
%TO.N,Net-(U1A-+)*%
X148297500Y-101025000D03*
%TO.P,U1,4,V-_4*%
%TO.N,GND*%
X148947500Y-101025000D03*
%TO.P,U1,5,+_5*%
%TO.N,Net-(U1B-+)*%
X148947500Y-95385000D03*
%TO.P,U1,6,-_6*%
%TO.N,Net-(U1B--)*%
X148297500Y-95385000D03*
%TO.P,U1,7*%
X147647500Y-95385000D03*
%TO.P,U1,8,V+_8*%
%TO.N,+3.3V*%
X146997500Y-95385000D03*
%TD*%
D15*
%TO.P,R12,1*%
%TO.N,GND*%
X158585000Y-72300000D03*
%TO.P,R12,2*%
%TO.N,Net-(U3A-+)*%
X158585000Y-74125000D03*
%TD*%
D11*
%TO.P,C6,1*%
%TO.N,Net-(U3B-+)*%
X156735000Y-74050000D03*
%TO.P,C6,2*%
%TO.N,GND*%
X156735000Y-72325000D03*
%TD*%
D16*
%TO.P,R18,1*%
%TO.N,GND*%
X148025000Y-87000000D03*
%TO.P,R18,2*%
%TO.N,Temp\u00E9rature_OUT*%
X146200000Y-87000000D03*
%TD*%
D17*
%TO.P,R7,1*%
%TO.N,+3.3V*%
X150225000Y-84600000D03*
%TO.P,R7,2*%
%TO.N,Net-(Q3-Pad2)*%
X152050000Y-84600000D03*
%TD*%
D12*
%TO.P,J4,1,Pin_1_1*%
%TO.N,Net-(J4-Pin_1)*%
X123335000Y-73525000D03*
D13*
%TO.P,J4,2,Pin_2_2*%
%TO.N,Net-(J3-Pin_1)*%
X123335000Y-70985000D03*
%TD*%
D15*
%TO.P,R3,1*%
%TO.N,Net-(C1-Pad2)*%
X154997500Y-99425000D03*
%TO.P,R3,2*%
%TO.N,Net-(C2-Pad1)*%
X154997500Y-101250000D03*
%TD*%
D18*
%TO.P,R10,1*%
%TO.N,VCOM*%
X150260000Y-88055000D03*
%TO.P,R10,2*%
%TO.N,Net-(U3A--)*%
X150260000Y-86230000D03*
%TD*%
D17*
%TO.P,R11,1*%
%TO.N,Net-(D1-K)*%
X156775000Y-76000000D03*
%TO.P,R11,2*%
%TO.N,Net-(U3A-+)*%
X158600000Y-76000000D03*
%TD*%
D19*
%TO.P,U5,1,GND_1*%
%TO.N,Net-(J3-Pin_1)*%
X125150000Y-84700000D03*
%TO.P,U5,2,VO_2*%
%TO.N,Net-(U5-VO)*%
X122850000Y-84700000D03*
D20*
X122850000Y-91000000D03*
D19*
%TO.P,U5,3,VI_3*%
%TO.N,Net-(J4-Pin_1)*%
X120550000Y-84700000D03*
%TD*%
D15*
%TO.P,R13,1*%
%TO.N,+3.3V*%
X147075000Y-89575000D03*
%TO.P,R13,2*%
%TO.N,Net-(U2-K)*%
X147075000Y-91400000D03*
%TD*%
D16*
%TO.P,R16,1*%
%TO.N,Net-(R15-Pad2)*%
X148485000Y-78975000D03*
%TO.P,R16,2*%
%TO.N,Net-(U3B-+)*%
X146660000Y-78975000D03*
%TD*%
D12*
%TO.P,J1,1,Pin_1_1*%
%TO.N,+5V*%
X147160000Y-72835000D03*
D13*
%TO.P,J1,2,Pin_2_2*%
%TO.N,GND*%
X149700000Y-72835000D03*
%TO.P,J1,3,Pin_3_3*%
%TO.N,Humidite_OUT*%
X152240000Y-72835000D03*
%TD*%
D11*
%TO.P,C2,1*%
%TO.N,Net-(C2-Pad1)*%
X155947500Y-97775000D03*
%TO.P,C2,2*%
%TO.N,Net-(U1B--)*%
X155947500Y-96050000D03*
%TD*%
D12*
%TO.P,J2,1,Pin_1_1*%
%TO.N,Net-(J2-Pin_1)*%
X138600000Y-99340000D03*
D13*
%TO.P,J2,2,Pin_2_2*%
%TO.N,GND*%
X136060000Y-99340000D03*
%TD*%
D10*
%TO.P,C4,1*%
%TO.N,Luminosit\u00E9_OUT*%
X142600000Y-99600000D03*
%TO.P,C4,2*%
%TO.N,GND*%
X144325000Y-99600000D03*
%TD*%
D17*
%TO.P,R5,1*%
%TO.N,Luminosit\u00E9_OUT*%
X142550000Y-96125000D03*
%TO.P,R5,2*%
%TO.N,Net-(U1B--)*%
X144375000Y-96125000D03*
%TD*%
D21*
%TO.P,U2,1,K_1*%
%TO.N,Net-(U2-K)*%
X154450000Y-87575000D03*
%TO.P,U2,2,A_2*%
%TO.N,GND*%
X154450000Y-88845000D03*
%TO.P,U2,3,A_3*%
X154450000Y-90115000D03*
%TO.P,U2,4*%
%TO.N,N/C*%
X154450000Y-91385000D03*
%TO.P,U2,5*%
X159400000Y-91385000D03*
%TO.P,U2,6,A_6*%
%TO.N,GND*%
X159400000Y-90115000D03*
%TO.P,U2,7,A_7*%
X159400000Y-88845000D03*
%TO.P,U2,8,REF_8*%
%TO.N,Net-(U2-K)*%
X159400000Y-87575000D03*
%TD*%
D22*
%TO.P,U3,1*%
%TO.N,Net-(R15-Pad2)*%
X152105000Y-82975000D03*
%TO.P,U3,2,-_2*%
%TO.N,Net-(U3A--)*%
X152105000Y-82325000D03*
%TO.P,U3,3,+_3*%
%TO.N,Net-(U3A-+)*%
X152105000Y-81675000D03*
%TO.P,U3,4,V-_4*%
%TO.N,GND*%
X152105000Y-81025000D03*
%TO.P,U3,5,+_5*%
%TO.N,Net-(U3B-+)*%
X146465000Y-81025000D03*
%TO.P,U3,6,-_6*%
%TO.N,Net-(U3B--)*%
X146465000Y-81675000D03*
%TO.P,U3,7*%
X146465000Y-82325000D03*
%TO.P,U3,8,V+_8*%
%TO.N,+3.3V*%
X146465000Y-82975000D03*
%TD*%
D16*
%TO.P,R14,1*%
%TO.N,Net-(U2-K)*%
X152100000Y-89750000D03*
%TO.P,R14,2*%
%TO.N,VCOM*%
X150275000Y-89750000D03*
%TD*%
D18*
%TO.P,R1,1*%
%TO.N,Net-(J2-Pin_1)*%
X152722500Y-101250000D03*
%TO.P,R1,2*%
%TO.N,Net-(C1-Pad2)*%
X152722500Y-99425000D03*
%TD*%
D17*
%TO.P,R4,1*%
%TO.N,Net-(C2-Pad1)*%
X157547500Y-97850000D03*
%TO.P,R4,2*%
%TO.N,Net-(U1B-+)*%
X159372500Y-97850000D03*
%TD*%
D16*
%TO.P,R17,1*%
%TO.N,GND*%
X152090000Y-91495000D03*
%TO.P,R17,2*%
%TO.N,VCOM*%
X150265000Y-91495000D03*
%TD*%
%TO.P,R15,1*%
%TO.N,Net-(U3A--)*%
X152160000Y-78975000D03*
%TO.P,R15,2*%
%TO.N,Net-(R15-Pad2)*%
X150335000Y-78975000D03*
%TD*%
D17*
%TO.P,R19,1*%
%TO.N,Temp\u00E9rature_OUT*%
X146175000Y-84600000D03*
%TO.P,R19,2*%
%TO.N,Net-(U3B--)*%
X148000000Y-84600000D03*
%TD*%
%TO.P,R2,1*%
%TO.N,Net-(U1A-+)*%
X152422500Y-97850000D03*
%TO.P,R2,2*%
%TO.N,GND*%
X154247500Y-97850000D03*
%TD*%
D23*
%TO.P,U4,0,GPIO0_0*%
%TO.N,unconnected-(U4-GPIO0-Pad0)*%
X143545000Y-89655000D03*
%TO.P,U4,1,GPIO1_1*%
%TO.N,unconnected-(U4-GPIO1-Pad1)*%
X143545000Y-87115000D03*
%TO.P,U4,2,GPIO2_2*%
%TO.N,unconnected-(U4-GPIO2-Pad2)*%
X143545000Y-84575000D03*
%TO.P,U4,3,GPIO3_3*%
%TO.N,Temp\u00E9rature_OUT*%
X143545000Y-82035000D03*
%TO.P,U4,3.3,3V3_3.3*%
%TO.N,+3.3V*%
X143545000Y-76955000D03*
%TO.P,U4,4,GPIO4_4*%
%TO.N,Humidite_OUT*%
X143545000Y-79495000D03*
%TO.P,U4,5,GPIO5_5*%
%TO.N,unconnected-(U4-GPIO5-Pad5)*%
X128305000Y-71875000D03*
%TO.P,U4,5V,5V_5V*%
%TO.N,+5V*%
X143545000Y-71875000D03*
%TO.P,U4,6,GPIO6_6*%
%TO.N,unconnected-(U4-GPIO6-Pad6)*%
X128305000Y-74415000D03*
%TO.P,U4,7,GPIO7_7*%
%TO.N,unconnected-(U4-GPIO7-Pad7)*%
X128305000Y-76955000D03*
%TO.P,U4,8,GPIO8_8*%
%TO.N,unconnected-(U4-GPIO8-Pad8)*%
X128305000Y-79495000D03*
%TO.P,U4,9,GPIO9_9*%
%TO.N,unconnected-(U4-GPIO9-Pad9)*%
X128305000Y-82035000D03*
%TO.P,U4,10,GPIO10_10*%
%TO.N,unconnected-(U4-GPIO10-Pad10)*%
X128305000Y-84575000D03*
%TO.P,U4,20,GPIO20_20*%
%TO.N,Pompe_OUT*%
X128305000Y-87115000D03*
%TO.P,U4,21,GPIO21_21*%
%TO.N,Luminosit\u00E9_OUT*%
X128305000Y-89655000D03*
%TO.P,U4,G,GND_G*%
%TO.N,GND*%
X143545000Y-74415000D03*
%TD*%
D24*
%TO.P,Q3,1*%
%TO.N,Net-(D1-K)*%
X154285000Y-80100000D03*
D25*
%TO.P,Q3,2*%
%TO.N,Net-(Q3-Pad2)*%
X156825000Y-80100000D03*
%TO.P,Q3,3*%
%TO.N,GND*%
X159365000Y-80100000D03*
%TD*%
D24*
%TO.P,Q4,1*%
%TO.N,Net-(Q3-Pad2)*%
X159377500Y-83370000D03*
D25*
%TO.P,Q4,2*%
X156837500Y-83370000D03*
%TO.P,Q4,3*%
%TO.N,GND*%
X154297500Y-83370000D03*
%TD*%
D16*
%TO.P,R6,1*%
%TO.N,GND*%
X144375000Y-97850000D03*
%TO.P,R6,2*%
%TO.N,Luminosit\u00E9_OUT*%
X142550000Y-97850000D03*
%TD*%
D26*
%TO.P,D1,1,K_1*%
%TO.N,Net-(D1-K)*%
X154320000Y-76000000D03*
D27*
%TO.P,D1,2,A_2*%
%TO.N,+3.3V*%
X146700000Y-76000000D03*
%TD*%
D28*
%TO.P,K1,1*%
%TO.N,Pompe_OUT*%
X131555000Y-94690000D03*
%TO.P,K1,2*%
%TO.N,unconnected-(K1-Pad2)*%
X129015000Y-94690000D03*
%TO.P,K1,3*%
%TO.N,Net-(U5-VO)*%
X126475000Y-94690000D03*
%TO.P,K1,4*%
%TO.N,Net-(J3-Pin_2)*%
X123935000Y-94690000D03*
%TO.P,K1,5*%
%TO.N,GND*%
X121395000Y-94690000D03*
%TO.P,K1,6*%
%TO.N,unconnected-(K1-Pad6)*%
X121395000Y-102310000D03*
%TO.P,K1,7*%
%TO.N,unconnected-(K1-Pad7)*%
X123935000Y-102310000D03*
%TO.P,K1,8*%
%TO.N,unconnected-(K1-Pad8)*%
X126475000Y-102310000D03*
%TO.P,K1,9*%
%TO.N,unconnected-(K1-Pad9)*%
X129015000Y-102310000D03*
%TO.P,K1,10*%
%TO.N,unconnected-(K1-Pad10)*%
X131555000Y-102310000D03*
%TD*%
D11*
%TO.P,C1,1*%
%TO.N,Net-(J2-Pin_1)*%
X151047500Y-101200000D03*
%TO.P,C1,2*%
%TO.N,Net-(C1-Pad2)*%
X151047500Y-99475000D03*
%TD*%
D29*
%TO.N,GND*%
X154250000Y-96650000D03*
X157625000Y-101125000D03*
X152225000Y-80000000D03*
X153125000Y-85600000D03*
X149962500Y-101312500D03*
X144350000Y-101125000D03*
X147925000Y-88300000D03*
X152125000Y-93050000D03*
X156735000Y-70950000D03*
%TD*%
%TO.N,GND*%
D30*
X149172500Y-101250000D02*
X148947500Y-101025000D01*
X152105000Y-80120000D02*
X152225000Y-80000000D01*
X148025000Y-88200000D02*
X147925000Y-88300000D01*
X149962500Y-101312500D02*
X149900000Y-101250000D01*
X144375000Y-97850000D02*
X144375000Y-99550000D01*
X152090000Y-93015000D02*
X152125000Y-93050000D01*
X144375000Y-99550000D02*
X144325000Y-99600000D01*
X156735000Y-70950000D02*
X156735000Y-72325000D01*
X152445000Y-86280000D02*
X153125000Y-85600000D01*
X157622500Y-99500000D02*
X157622500Y-101122500D01*
X153470000Y-90115000D02*
X152090000Y-91495000D01*
X154450000Y-88845000D02*
X154450000Y-90115000D01*
X154250000Y-96775000D02*
X154247500Y-96777500D01*
X158585000Y-72300000D02*
X156760000Y-72300000D01*
X144325000Y-99600000D02*
X144325000Y-101100000D01*
X149900000Y-101250000D02*
X149172500Y-101250000D01*
X157622500Y-101122500D02*
X157625000Y-101125000D01*
X148025000Y-87000000D02*
X148025000Y-88200000D01*
X154250000Y-96650000D02*
X154250000Y-96775000D01*
X151960000Y-86280000D02*
X152445000Y-86280000D01*
X144325000Y-101100000D02*
X144350000Y-101125000D01*
X152090000Y-91495000D02*
X152090000Y-93015000D01*
X154247500Y-96777500D02*
X154247500Y-97850000D01*
X159400000Y-88845000D02*
X154450000Y-88845000D01*
X154450000Y-90115000D02*
X153470000Y-90115000D01*
X152105000Y-81025000D02*
X152105000Y-80120000D01*
X156760000Y-72300000D02*
X156735000Y-72325000D01*
X159400000Y-90115000D02*
X159400000Y-88845000D01*
%TO.N,Net-(U1B-+)*%
X159372500Y-99475000D02*
X159347500Y-99500000D01*
X157142501Y-94500000D02*
X149832500Y-94500000D01*
X159372500Y-97850000D02*
X158097501Y-96575001D01*
X158097501Y-96575001D02*
X158097501Y-95455000D01*
X158097501Y-95455000D02*
X157142501Y-94500000D01*
X149832500Y-94500000D02*
X148947500Y-95385000D01*
X159372500Y-97850000D02*
X159372500Y-99475000D01*
%TO.N,VCOM*%
X150260000Y-87980000D02*
X150260000Y-88055000D01*
X150350000Y-89675000D02*
X150275000Y-89750000D01*
X150275000Y-89750000D02*
X150275000Y-89800000D01*
X150310000Y-88005000D02*
X150260000Y-88055000D01*
X150260000Y-88055000D02*
X150260000Y-89735000D01*
X150260000Y-89735000D02*
X150275000Y-89750000D01*
X151960000Y-88005000D02*
X150310000Y-88005000D01*
X150275000Y-89800000D02*
X150250000Y-89825000D01*
X150275000Y-89750000D02*
X150275000Y-91485000D01*
X150275000Y-91485000D02*
X150265000Y-91495000D01*
%TO.N,Net-(J3-Pin_1)*%
X123310000Y-80725000D02*
X123310000Y-82235000D01*
X125150000Y-84075000D02*
X125150000Y-84700000D01*
X125325000Y-79459038D02*
X124059038Y-80725000D01*
X123335000Y-70985000D02*
X124335000Y-70985000D01*
X125325000Y-71975000D02*
X125325000Y-79459038D01*
X124335000Y-70985000D02*
X125325000Y-71975000D01*
X124059038Y-80725000D02*
X123310000Y-80725000D01*
X123310000Y-82235000D02*
X125150000Y-84075000D01*
%TO.N,Net-(J3-Pin_2)*%
X120250000Y-91700000D02*
X123240000Y-94690000D01*
X120250000Y-87725000D02*
X120250000Y-91700000D01*
X123240000Y-94690000D02*
X123935000Y-94690000D01*
X121175000Y-79000000D02*
X121150000Y-79000000D01*
X121700000Y-83375000D02*
X121700000Y-86275000D01*
X121700000Y-86275000D02*
X120250000Y-87725000D01*
X123310000Y-78185000D02*
X121990000Y-78185000D01*
X121150000Y-79000000D02*
X121150000Y-82825000D01*
X121990000Y-78185000D02*
X121175000Y-79000000D01*
X121150000Y-82825000D02*
X121700000Y-83375000D01*
%TO.N,Net-(C1-Pad2)*%
X147902501Y-99475000D02*
X146997500Y-100380001D01*
X151072500Y-99450000D02*
X151047500Y-99475000D01*
X146922500Y-101100000D02*
X146997500Y-101025000D01*
X152747500Y-99475000D02*
X152722500Y-99450000D01*
X152722500Y-99450000D02*
X151072500Y-99450000D01*
X151047500Y-99475000D02*
X147902501Y-99475000D01*
X152722500Y-99425000D02*
X154997500Y-99425000D01*
X146997500Y-100380001D02*
X146997500Y-101025000D01*
%TO.N,Net-(J2-Pin_1)*%
X147647500Y-101669999D02*
X147647500Y-101025000D01*
X151047500Y-101200000D02*
X149927500Y-100080000D01*
X147647500Y-100468414D02*
X147647500Y-101025000D01*
X139065000Y-99340000D02*
X138600000Y-99340000D01*
X151122500Y-101275000D02*
X151047500Y-101200000D01*
X141695000Y-101970000D02*
X139065000Y-99340000D01*
X152722500Y-101275000D02*
X151122500Y-101275000D01*
X147347499Y-101970000D02*
X147647500Y-101669999D01*
X141695000Y-101970000D02*
X147347499Y-101970000D01*
X138600000Y-99140000D02*
X138865000Y-99140000D01*
X149927500Y-100080000D02*
X148035914Y-100080000D01*
X148035914Y-100080000D02*
X147647500Y-100468414D01*
%TO.N,Net-(U1A-+)*%
X153197500Y-98625000D02*
X152422500Y-97850000D01*
X148297500Y-101669999D02*
X148665001Y-102037500D01*
X155772500Y-99904222D02*
X155772500Y-98945778D01*
X153497500Y-101245778D02*
X154530778Y-100212500D01*
X154530778Y-100212500D02*
X155464222Y-100212500D01*
X153497500Y-101729222D02*
X153497500Y-101245778D01*
X155772500Y-98945778D02*
X155451722Y-98625000D01*
X155464222Y-100212500D02*
X155772500Y-99904222D01*
X155451722Y-98625000D02*
X153197500Y-98625000D01*
X148297500Y-101025000D02*
X148297500Y-101669999D01*
X148665001Y-102037500D02*
X153189222Y-102037500D01*
X153189222Y-102037500D02*
X153497500Y-101729222D01*
%TO.N,Net-(U1B--)*%
X148597501Y-96330000D02*
X148297500Y-96029999D01*
X147647500Y-96427500D02*
X147647500Y-95385000D01*
X155947500Y-96050000D02*
X155797500Y-95900000D01*
X152995000Y-96330000D02*
X148597501Y-96330000D01*
X144375000Y-96125000D02*
X145150000Y-96900000D01*
X155797500Y-95900000D02*
X153425000Y-95900000D01*
X148297500Y-96029999D02*
X148297500Y-95385000D01*
X147175000Y-96900000D02*
X147647500Y-96427500D01*
X148297500Y-95385000D02*
X147647500Y-95385000D01*
X145150000Y-96900000D02*
X147175000Y-96900000D01*
X153425000Y-95900000D02*
X152995000Y-96330000D01*
%TO.N,+3.3V*%
X145508414Y-82663413D02*
X145508414Y-77191586D01*
X147075000Y-89750000D02*
X147075000Y-89575000D01*
X149050000Y-85775000D02*
X147075000Y-85775000D01*
X150225000Y-84600000D02*
X149050000Y-85775000D01*
X146465000Y-82975000D02*
X147075000Y-83585000D01*
X145820001Y-82975000D02*
X145508414Y-82663413D01*
X146300000Y-90350000D02*
X147075000Y-89575000D01*
X143775000Y-76750000D02*
X143125000Y-76750000D01*
X145745000Y-76955000D02*
X146700000Y-76000000D01*
X146997500Y-94828414D02*
X146997500Y-95385000D01*
X146997500Y-94740001D02*
X146997500Y-95385000D01*
X146300000Y-94687500D02*
X146300000Y-90350000D01*
X147075000Y-85775000D02*
X147075000Y-83585000D01*
X146465000Y-82975000D02*
X145820001Y-82975000D01*
X146997500Y-95385000D02*
X146300000Y-94687500D01*
X147021586Y-82975000D02*
X146465000Y-82975000D01*
X143545000Y-76955000D02*
X145745000Y-76955000D01*
X147075000Y-89575000D02*
X147075000Y-85775000D01*
X145508414Y-77191586D02*
X145745000Y-76955000D01*
%TO.N,Net-(U3A-+)*%
X158585000Y-75985000D02*
X158600000Y-76000000D01*
X158600000Y-76000000D02*
X158600000Y-76510000D01*
X152130000Y-81700000D02*
X152105000Y-81675000D01*
X155610000Y-81025000D02*
X154935000Y-81700000D01*
X158585000Y-74125000D02*
X158585000Y-75985000D01*
X154935000Y-81700000D02*
X152130000Y-81700000D01*
X158600000Y-76510000D02*
X155610000Y-79500000D01*
X155610000Y-79500000D02*
X155610000Y-81025000D01*
%TO.N,Net-(U3B-+)*%
X156735000Y-74050000D02*
X153675000Y-74050000D01*
X153675000Y-74050000D02*
X150100000Y-77625000D01*
X146660000Y-78440000D02*
X146660000Y-78975000D01*
X150100000Y-77625000D02*
X147475000Y-77625000D01*
X146660000Y-80830000D02*
X146465000Y-81025000D01*
X146660000Y-78975000D02*
X146660000Y-80830000D01*
X147475000Y-77625000D02*
X146660000Y-78440000D01*
%TO.N,Temp\u00E9rature_OUT*%
X146175000Y-86975000D02*
X146200000Y-87000000D01*
X146110000Y-84600000D02*
X146175000Y-84600000D01*
X143545000Y-82035000D02*
X146110000Y-84600000D01*
X146175000Y-84600000D02*
X146175000Y-86975000D01*
%TO.N,Net-(Q3-Pad2)*%
X156837500Y-83370000D02*
X159377500Y-83370000D01*
X156825000Y-83357500D02*
X156837500Y-83370000D01*
X155607500Y-84600000D02*
X156837500Y-83370000D01*
X152050000Y-84600000D02*
X155607500Y-84600000D01*
X156825000Y-80100000D02*
X156825000Y-83357500D01*
%TO.N,Net-(J4-Pin_1)*%
X120550000Y-77225000D02*
X123335000Y-74440000D01*
X123335000Y-74440000D02*
X123335000Y-73525000D01*
X120550000Y-84700000D02*
X120550000Y-77225000D01*
%TO.N,Net-(C2-Pad1)*%
X157547500Y-97850000D02*
X156022500Y-97850000D01*
X155627501Y-101250000D02*
X156447501Y-100430000D01*
X154997500Y-101250000D02*
X155627501Y-101250000D01*
X156447501Y-100430000D02*
X156447501Y-98275001D01*
X156447501Y-98275001D02*
X155947500Y-97775000D01*
X156022500Y-97850000D02*
X155947500Y-97775000D01*
%TO.N,Net-(U3A--)*%
X151160000Y-81936586D02*
X151548414Y-82325000D01*
X151548414Y-82325000D02*
X152105000Y-82325000D01*
X152749999Y-82325000D02*
X153050000Y-82625001D01*
X152105000Y-82325000D02*
X152749999Y-82325000D01*
X151925778Y-83470000D02*
X152816586Y-83470000D01*
X151012500Y-85477500D02*
X151012500Y-84383278D01*
X151012500Y-84383278D02*
X151925778Y-83470000D01*
X151160000Y-79975000D02*
X151160000Y-81936586D01*
X150260000Y-86230000D02*
X151012500Y-85477500D01*
X153050000Y-82625001D02*
X153050000Y-83236586D01*
X152160000Y-78975000D02*
X151160000Y-79975000D01*
X152816586Y-83470000D02*
X153050000Y-83236586D01*
%TO.N,Net-(D1-K)*%
X154285000Y-76035000D02*
X154320000Y-76000000D01*
X154285000Y-80100000D02*
X154285000Y-76035000D01*
X154320000Y-76000000D02*
X156775000Y-76000000D01*
%TO.N,Net-(U5-VO)*%
X126475000Y-94625000D02*
X126475000Y-94690000D01*
X122850000Y-91000000D02*
X126475000Y-94625000D01*
X122850000Y-91000000D02*
X122850000Y-84700000D01*
X122850000Y-91065000D02*
X122850000Y-91000000D01*
%TO.N,Net-(U2-K)*%
X148725000Y-88335778D02*
X148725000Y-89750000D01*
X152426722Y-87167500D02*
X149893278Y-87167500D01*
X149893278Y-87167500D02*
X148725000Y-88335778D01*
X152735000Y-87475778D02*
X152426722Y-87167500D01*
X152834222Y-89015778D02*
X152834222Y-87575000D01*
X148725000Y-89750000D02*
X147075000Y-91400000D01*
X159400000Y-87575000D02*
X154450000Y-87575000D01*
X152100000Y-89750000D02*
X152834222Y-89015778D01*
X154450000Y-87575000D02*
X152834222Y-87575000D01*
X152834222Y-87575000D02*
X152735000Y-87475778D01*
%TO.N,Net-(R15-Pad2)*%
X151548414Y-82975000D02*
X150335000Y-81761586D01*
X150335000Y-81761586D02*
X150335000Y-78975000D01*
X152105000Y-82975000D02*
X151548414Y-82975000D01*
X148485000Y-78975000D02*
X150335000Y-78975000D01*
%TO.N,+5V*%
X147075000Y-72920000D02*
X147160000Y-72835000D01*
X144505000Y-72835000D02*
X143545000Y-71875000D01*
X147160000Y-72835000D02*
X144505000Y-72835000D01*
%TO.N,Humidite_OUT*%
X142200000Y-78150000D02*
X143545000Y-79495000D01*
X142200000Y-76275000D02*
X142200000Y-78150000D01*
X152240000Y-72835000D02*
X150325000Y-74750000D01*
X150325000Y-74750000D02*
X145775000Y-74750000D01*
X145775000Y-74750000D02*
X144975000Y-75550000D01*
X142925000Y-75550000D02*
X142200000Y-76275000D01*
X144975000Y-75550000D02*
X142925000Y-75550000D01*
%TO.N,Luminosit\u00E9_OUT*%
X142550000Y-94200000D02*
X138005000Y-89655000D01*
X142600000Y-97900000D02*
X142550000Y-97850000D01*
X142550000Y-96125000D02*
X142550000Y-94200000D01*
X138005000Y-89655000D02*
X128305000Y-89655000D01*
X142600000Y-99600000D02*
X142600000Y-97900000D01*
X142550000Y-96125000D02*
X142550000Y-97850000D01*
X142550000Y-96125000D02*
X143005001Y-96125000D01*
%TO.N,Net-(U3B--)*%
X146465000Y-81675000D02*
X146465000Y-82325000D01*
X147109999Y-82325000D02*
X146465000Y-82325000D01*
X148000000Y-83215001D02*
X147109999Y-82325000D01*
X146465000Y-82325000D02*
X145908414Y-82325000D01*
X148000000Y-84600000D02*
X148000000Y-83215001D01*
%TO.N,Pompe_OUT*%
X131555000Y-94690000D02*
X130965000Y-94690000D01*
X126800000Y-88620000D02*
X128305000Y-87115000D01*
X130965000Y-94690000D02*
X126800000Y-90525000D01*
X126800000Y-90525000D02*
X126800000Y-88620000D01*
%TD*%
M02*
