M48
; DRILL file KiCad 10.0.1 date 2026-05-20T11:00:29
; FORMAT={-:-/ absolute / metric / decimal}
; #@! TF.CreationDate,2026-05-20T11:00:29+02:00
; #@! TF.GenerationSoftware,Kicad,Pcbnew,10.0.1
; #@! TF.FileFunction,Plated,1,2,PTH
FMAT,2
METRIC
; #@! TA.AperFunction,Plated,PTH,ViaDrill
T1C0.300
; #@! TA.AperFunction,Plated,PTH,ComponentDrill
T2C0.600
; #@! TA.AperFunction,Plated,PTH,ComponentDrill
T3C0.800
; #@! TA.AperFunction,Plated,PTH,ComponentDrill
T4C0.840
; #@! TA.AperFunction,Plated,PTH,ComponentDrill
T5C1.000
%
G90
G05
T1
X144.35Y-101.125
X147.925Y-88.3
X149.963Y-101.312
X152.125Y-93.05
X152.225Y-80.0
X153.125Y-85.6
X154.25Y-96.65
X156.735Y-70.95
X157.625Y-101.125
T2
X154.285Y-80.1
X154.297Y-83.37
X156.825Y-80.1
X156.838Y-83.37
X159.365Y-80.1
X159.377Y-83.37
T3
X121.395Y-94.69
X121.395Y-102.31
X123.935Y-94.69
X123.935Y-102.31
X126.475Y-94.69
X126.475Y-102.31
X129.015Y-94.69
X129.015Y-102.31
X131.555Y-94.69
X131.555Y-102.31
X146.7Y-76.0
X154.32Y-76.0
T4
X128.305Y-71.875
X128.305Y-74.415
X128.305Y-76.955
X128.305Y-79.495
X128.305Y-82.035
X128.305Y-84.575
X128.305Y-87.115
X128.305Y-89.655
X143.545Y-71.875
X143.545Y-74.415
X143.545Y-76.955
X143.545Y-79.495
X143.545Y-82.035
X143.545Y-84.575
X143.545Y-87.115
X143.545Y-89.655
T5
X123.31Y-78.185
X123.31Y-80.725
X123.335Y-70.985
X123.335Y-73.525
X136.06Y-99.34
X138.6Y-99.34
X147.16Y-72.835
X149.7Y-72.835
X152.24Y-72.835
M30
