%TF.GenerationSoftware,KiCad,Pcbnew,10.0.1*%
%TF.CreationDate,2026-05-20T11:00:06+02:00*%
%TF.ProjectId,Luminosite,4c756d69-6e6f-4736-9974-652e6b696361,rev?*%
%TF.SameCoordinates,Original*%
%TF.FileFunction,Soldermask,Bot*%
%TF.FilePolarity,Negative*%
%FSLAX46Y46*%
G04 Gerber Fmt 4.6, Leading zero omitted, Abs format (unit mm)*
G04 Created by KiCad (PCBNEW 10.0.1) date 2026-05-20 11:00:06*
%MOMM*%
%LPD*%
G01*
G04 APERTURE LIST*
G04 Aperture macros list*
%AMRoundRect*
0 Rectangle with rounded corners*
0 $1 Rounding radius*
0 $2 $3 $4 $5 $6 $7 $8 $9 X,Y pos of 4 corners*
0 Add a 4 corners polygon primitive as box body*
4,1,4,$2,$3,$4,$5,$6,$7,$8,$9,$2,$3,0*
0 Add four circle primitives for the rounded corners*
1,1,$1+$1,$2,$3*
1,1,$1+$1,$4,$5*
1,1,$1+$1,$6,$7*
1,1,$1+$1,$8,$9*
0 Add four rect primitives between the rounded corners*
20,1,$1+$1,$2,$3,$4,$5,0*
20,1,$1+$1,$4,$5,$6,$7,0*
20,1,$1+$1,$6,$7,$8,$9,0*
20,1,$1+$1,$8,$9,$2,$3,0*%
G04 Aperture macros list end*
%ADD10R,1.700000X1.700000*%
%ADD11C,1.700000*%
%ADD12C,1.552000*%
%ADD13RoundRect,0.102000X-0.554000X-0.554000X0.554000X-0.554000X0.554000X0.554000X-0.554000X0.554000X0*%
%ADD14C,1.312000*%
%ADD15RoundRect,0.102000X0.554000X0.554000X-0.554000X0.554000X-0.554000X-0.554000X0.554000X-0.554000X0*%
%ADD16RoundRect,0.250000X0.550000X0.550000X-0.550000X0.550000X-0.550000X-0.550000X0.550000X-0.550000X0*%
%ADD17C,1.600000*%
%ADD18C,1.704000*%
G04 APERTURE END LIST*
D10*
%TO.C,J3*%
X123310000Y-80725000D03*
D11*
X123310000Y-78185000D03*
%TD*%
D10*
%TO.C,J4*%
X123335000Y-73525000D03*
D11*
X123335000Y-70985000D03*
%TD*%
D10*
%TO.C,J1*%
X147160000Y-72835000D03*
D11*
X149700000Y-72835000D03*
X152240000Y-72835000D03*
%TD*%
D10*
%TO.C,J2*%
X138600000Y-99340000D03*
D11*
X136060000Y-99340000D03*
%TD*%
D12*
%TO.C,U4*%
X143545000Y-89655000D03*
X143545000Y-87115000D03*
X143545000Y-84575000D03*
X143545000Y-82035000D03*
X143545000Y-76955000D03*
X143545000Y-79495000D03*
X128305000Y-71875000D03*
X143545000Y-71875000D03*
X128305000Y-74415000D03*
X128305000Y-76955000D03*
X128305000Y-79495000D03*
X128305000Y-82035000D03*
X128305000Y-84575000D03*
X128305000Y-87115000D03*
X128305000Y-89655000D03*
X143545000Y-74415000D03*
%TD*%
D13*
%TO.C,Q3*%
X154285000Y-80100000D03*
D14*
X156825000Y-80100000D03*
X159365000Y-80100000D03*
%TD*%
D15*
%TO.C,Q4*%
X159377500Y-83370000D03*
D14*
X156837500Y-83370000D03*
X154297500Y-83370000D03*
%TD*%
D16*
%TO.C,D1*%
X154320000Y-76000000D03*
D17*
X146700000Y-76000000D03*
%TD*%
D18*
%TO.C,K1*%
X131555000Y-94690000D03*
X129015000Y-94690000D03*
X126475000Y-94690000D03*
X123935000Y-94690000D03*
X121395000Y-94690000D03*
X121395000Y-102310000D03*
X123935000Y-102310000D03*
X126475000Y-102310000D03*
X129015000Y-102310000D03*
X131555000Y-102310000D03*
%TD*%
M02*
