%TF.GenerationSoftware,KiCad,Pcbnew,10.0.1*%
%TF.CreationDate,2026-05-20T11:00:06+02:00*%
%TF.ProjectId,Luminosite,4c756d69-6e6f-4736-9974-652e6b696361,rev?*%
%TF.SameCoordinates,Original*%
%TF.FileFunction,Legend,Top*%
%TF.FilePolarity,Positive*%
%FSLAX46Y46*%
G04 Gerber Fmt 4.6, Leading zero omitted, Abs format (unit mm)*
G04 Created by KiCad (PCBNEW 10.0.1) date 2026-05-20 11:00:06*
%MOMM*%
%LPD*%
G01*
G04 APERTURE LIST*
%ADD10C,0.150000*%
%ADD11C,0.125000*%
%ADD12C,0.120000*%
%ADD13C,0.127000*%
%ADD14C,0.300000*%
%ADD15C,0.200000*%
%ADD16C,0.203200*%
%ADD17C,0.010000*%
G04 APERTURE END LIST*
D10*
X154265350Y-70131533D02*
X154265350Y-69431533D01*
X154265350Y-69764866D02*
X154665350Y-69764866D01*
X154665350Y-70131533D02*
X154665350Y-69431533D01*
X155298683Y-69664866D02*
X155298683Y-70131533D01*
X154998683Y-69664866D02*
X154998683Y-70031533D01*
X154998683Y-70031533D02*
X155032017Y-70098200D01*
X155032017Y-70098200D02*
X155098683Y-70131533D01*
X155098683Y-70131533D02*
X155198683Y-70131533D01*
X155198683Y-70131533D02*
X155265350Y-70098200D01*
X155265350Y-70098200D02*
X155298683Y-70064866D01*
X155632016Y-70131533D02*
X155632016Y-69664866D01*
X155632016Y-69731533D02*
X155665350Y-69698200D01*
X155665350Y-69698200D02*
X155732016Y-69664866D01*
X155732016Y-69664866D02*
X155832016Y-69664866D01*
X155832016Y-69664866D02*
X155898683Y-69698200D01*
X155898683Y-69698200D02*
X155932016Y-69764866D01*
X155932016Y-69764866D02*
X155932016Y-70131533D01*
X155932016Y-69764866D02*
X155965350Y-69698200D01*
X155965350Y-69698200D02*
X156032016Y-69664866D01*
X156032016Y-69664866D02*
X156132016Y-69664866D01*
X156132016Y-69664866D02*
X156198683Y-69698200D01*
X156198683Y-69698200D02*
X156232016Y-69764866D01*
X156232016Y-69764866D02*
X156232016Y-70131533D01*
X156565349Y-70131533D02*
X156565349Y-69664866D01*
X156565349Y-69431533D02*
X156532016Y-69464866D01*
X156532016Y-69464866D02*
X156565349Y-69498200D01*
X156565349Y-69498200D02*
X156598683Y-69464866D01*
X156598683Y-69464866D02*
X156565349Y-69431533D01*
X156565349Y-69431533D02*
X156565349Y-69498200D01*
X157198682Y-70131533D02*
X157198682Y-69431533D01*
X157198682Y-70098200D02*
X157132016Y-70131533D01*
X157132016Y-70131533D02*
X156998682Y-70131533D01*
X156998682Y-70131533D02*
X156932016Y-70098200D01*
X156932016Y-70098200D02*
X156898682Y-70064866D01*
X156898682Y-70064866D02*
X156865349Y-69998200D01*
X156865349Y-69998200D02*
X156865349Y-69798200D01*
X156865349Y-69798200D02*
X156898682Y-69731533D01*
X156898682Y-69731533D02*
X156932016Y-69698200D01*
X156932016Y-69698200D02*
X156998682Y-69664866D01*
X156998682Y-69664866D02*
X157132016Y-69664866D01*
X157132016Y-69664866D02*
X157198682Y-69698200D01*
X157532015Y-70131533D02*
X157532015Y-69664866D01*
X157532015Y-69431533D02*
X157498682Y-69464866D01*
X157498682Y-69464866D02*
X157532015Y-69498200D01*
X157532015Y-69498200D02*
X157565349Y-69464866D01*
X157565349Y-69464866D02*
X157532015Y-69431533D01*
X157532015Y-69431533D02*
X157532015Y-69498200D01*
X157765348Y-69664866D02*
X158032015Y-69664866D01*
X157865348Y-69431533D02*
X157865348Y-70031533D01*
X157865348Y-70031533D02*
X157898682Y-70098200D01*
X157898682Y-70098200D02*
X157965348Y-70131533D01*
X157965348Y-70131533D02*
X158032015Y-70131533D01*
X158532015Y-70098200D02*
X158465348Y-70131533D01*
X158465348Y-70131533D02*
X158332015Y-70131533D01*
X158332015Y-70131533D02*
X158265348Y-70098200D01*
X158265348Y-70098200D02*
X158232015Y-70031533D01*
X158232015Y-70031533D02*
X158232015Y-69764866D01*
X158232015Y-69764866D02*
X158265348Y-69698200D01*
X158265348Y-69698200D02*
X158332015Y-69664866D01*
X158332015Y-69664866D02*
X158465348Y-69664866D01*
X158465348Y-69664866D02*
X158532015Y-69698200D01*
X158532015Y-69698200D02*
X158565348Y-69764866D01*
X158565348Y-69764866D02*
X158565348Y-69831533D01*
X158565348Y-69831533D02*
X158232015Y-69898200D01*
X158465348Y-69398200D02*
X158365348Y-69498200D01*
X125793466Y-78115350D02*
X126493466Y-78115350D01*
X126493466Y-78115350D02*
X126493466Y-78382017D01*
X126493466Y-78382017D02*
X126460133Y-78448684D01*
X126460133Y-78448684D02*
X126426800Y-78482017D01*
X126426800Y-78482017D02*
X126360133Y-78515350D01*
X126360133Y-78515350D02*
X126260133Y-78515350D01*
X126260133Y-78515350D02*
X126193466Y-78482017D01*
X126193466Y-78482017D02*
X126160133Y-78448684D01*
X126160133Y-78448684D02*
X126126800Y-78382017D01*
X126126800Y-78382017D02*
X126126800Y-78115350D01*
X125793466Y-78915350D02*
X125826800Y-78848684D01*
X125826800Y-78848684D02*
X125860133Y-78815350D01*
X125860133Y-78815350D02*
X125926800Y-78782017D01*
X125926800Y-78782017D02*
X126126800Y-78782017D01*
X126126800Y-78782017D02*
X126193466Y-78815350D01*
X126193466Y-78815350D02*
X126226800Y-78848684D01*
X126226800Y-78848684D02*
X126260133Y-78915350D01*
X126260133Y-78915350D02*
X126260133Y-79015350D01*
X126260133Y-79015350D02*
X126226800Y-79082017D01*
X126226800Y-79082017D02*
X126193466Y-79115350D01*
X126193466Y-79115350D02*
X126126800Y-79148684D01*
X126126800Y-79148684D02*
X125926800Y-79148684D01*
X125926800Y-79148684D02*
X125860133Y-79115350D01*
X125860133Y-79115350D02*
X125826800Y-79082017D01*
X125826800Y-79082017D02*
X125793466Y-79015350D01*
X125793466Y-79015350D02*
X125793466Y-78915350D01*
X125793466Y-79448683D02*
X126260133Y-79448683D01*
X126193466Y-79448683D02*
X126226800Y-79482017D01*
X126226800Y-79482017D02*
X126260133Y-79548683D01*
X126260133Y-79548683D02*
X126260133Y-79648683D01*
X126260133Y-79648683D02*
X126226800Y-79715350D01*
X126226800Y-79715350D02*
X126160133Y-79748683D01*
X126160133Y-79748683D02*
X125793466Y-79748683D01*
X126160133Y-79748683D02*
X126226800Y-79782017D01*
X126226800Y-79782017D02*
X126260133Y-79848683D01*
X126260133Y-79848683D02*
X126260133Y-79948683D01*
X126260133Y-79948683D02*
X126226800Y-80015350D01*
X126226800Y-80015350D02*
X126160133Y-80048683D01*
X126160133Y-80048683D02*
X125793466Y-80048683D01*
X126260133Y-80382016D02*
X125560133Y-80382016D01*
X126226800Y-80382016D02*
X126260133Y-80448683D01*
X126260133Y-80448683D02*
X126260133Y-80582016D01*
X126260133Y-80582016D02*
X126226800Y-80648683D01*
X126226800Y-80648683D02*
X126193466Y-80682016D01*
X126193466Y-80682016D02*
X126126800Y-80715350D01*
X126126800Y-80715350D02*
X125926800Y-80715350D01*
X125926800Y-80715350D02*
X125860133Y-80682016D01*
X125860133Y-80682016D02*
X125826800Y-80648683D01*
X125826800Y-80648683D02*
X125793466Y-80582016D01*
X125793466Y-80582016D02*
X125793466Y-80448683D01*
X125793466Y-80448683D02*
X125826800Y-80382016D01*
X125826800Y-81282016D02*
X125793466Y-81215349D01*
X125793466Y-81215349D02*
X125793466Y-81082016D01*
X125793466Y-81082016D02*
X125826800Y-81015349D01*
X125826800Y-81015349D02*
X125893466Y-80982016D01*
X125893466Y-80982016D02*
X126160133Y-80982016D01*
X126160133Y-80982016D02*
X126226800Y-81015349D01*
X126226800Y-81015349D02*
X126260133Y-81082016D01*
X126260133Y-81082016D02*
X126260133Y-81215349D01*
X126260133Y-81215349D02*
X126226800Y-81282016D01*
X126226800Y-81282016D02*
X126160133Y-81315349D01*
X126160133Y-81315349D02*
X126093466Y-81315349D01*
X126093466Y-81315349D02*
X126026800Y-80982016D01*
X126185133Y-70848684D02*
X126151800Y-70948684D01*
X126151800Y-70948684D02*
X126118466Y-70982017D01*
X126118466Y-70982017D02*
X126051800Y-71015350D01*
X126051800Y-71015350D02*
X125951800Y-71015350D01*
X125951800Y-71015350D02*
X125885133Y-70982017D01*
X125885133Y-70982017D02*
X125851800Y-70948684D01*
X125851800Y-70948684D02*
X125818466Y-70882017D01*
X125818466Y-70882017D02*
X125818466Y-70615350D01*
X125818466Y-70615350D02*
X126518466Y-70615350D01*
X126518466Y-70615350D02*
X126518466Y-70848684D01*
X126518466Y-70848684D02*
X126485133Y-70915350D01*
X126485133Y-70915350D02*
X126451800Y-70948684D01*
X126451800Y-70948684D02*
X126385133Y-70982017D01*
X126385133Y-70982017D02*
X126318466Y-70982017D01*
X126318466Y-70982017D02*
X126251800Y-70948684D01*
X126251800Y-70948684D02*
X126218466Y-70915350D01*
X126218466Y-70915350D02*
X126185133Y-70848684D01*
X126185133Y-70848684D02*
X126185133Y-70615350D01*
X125818466Y-71615350D02*
X126185133Y-71615350D01*
X126185133Y-71615350D02*
X126251800Y-71582017D01*
X126251800Y-71582017D02*
X126285133Y-71515350D01*
X126285133Y-71515350D02*
X126285133Y-71382017D01*
X126285133Y-71382017D02*
X126251800Y-71315350D01*
X125851800Y-71615350D02*
X125818466Y-71548684D01*
X125818466Y-71548684D02*
X125818466Y-71382017D01*
X125818466Y-71382017D02*
X125851800Y-71315350D01*
X125851800Y-71315350D02*
X125918466Y-71282017D01*
X125918466Y-71282017D02*
X125985133Y-71282017D01*
X125985133Y-71282017D02*
X126051800Y-71315350D01*
X126051800Y-71315350D02*
X126085133Y-71382017D01*
X126085133Y-71382017D02*
X126085133Y-71548684D01*
X126085133Y-71548684D02*
X126118466Y-71615350D01*
X126285133Y-71848683D02*
X126285133Y-72115350D01*
X126518466Y-71948683D02*
X125918466Y-71948683D01*
X125918466Y-71948683D02*
X125851800Y-71982017D01*
X125851800Y-71982017D02*
X125818466Y-72048683D01*
X125818466Y-72048683D02*
X125818466Y-72115350D01*
X126285133Y-72248683D02*
X126285133Y-72515350D01*
X126518466Y-72348683D02*
X125918466Y-72348683D01*
X125918466Y-72348683D02*
X125851800Y-72382017D01*
X125851800Y-72382017D02*
X125818466Y-72448683D01*
X125818466Y-72448683D02*
X125818466Y-72515350D01*
X125851800Y-73015350D02*
X125818466Y-72948683D01*
X125818466Y-72948683D02*
X125818466Y-72815350D01*
X125818466Y-72815350D02*
X125851800Y-72748683D01*
X125851800Y-72748683D02*
X125918466Y-72715350D01*
X125918466Y-72715350D02*
X126185133Y-72715350D01*
X126185133Y-72715350D02*
X126251800Y-72748683D01*
X126251800Y-72748683D02*
X126285133Y-72815350D01*
X126285133Y-72815350D02*
X126285133Y-72948683D01*
X126285133Y-72948683D02*
X126251800Y-73015350D01*
X126251800Y-73015350D02*
X126185133Y-73048683D01*
X126185133Y-73048683D02*
X126118466Y-73048683D01*
X126118466Y-73048683D02*
X126051800Y-72715350D01*
X125818466Y-73348683D02*
X126285133Y-73348683D01*
X126151800Y-73348683D02*
X126218466Y-73382017D01*
X126218466Y-73382017D02*
X126251800Y-73415350D01*
X126251800Y-73415350D02*
X126285133Y-73482017D01*
X126285133Y-73482017D02*
X126285133Y-73548683D01*
X125818466Y-73782016D02*
X126285133Y-73782016D01*
X126518466Y-73782016D02*
X126485133Y-73748683D01*
X126485133Y-73748683D02*
X126451800Y-73782016D01*
X126451800Y-73782016D02*
X126485133Y-73815350D01*
X126485133Y-73815350D02*
X126518466Y-73782016D01*
X126518466Y-73782016D02*
X126451800Y-73782016D01*
X125851800Y-74382016D02*
X125818466Y-74315349D01*
X125818466Y-74315349D02*
X125818466Y-74182016D01*
X125818466Y-74182016D02*
X125851800Y-74115349D01*
X125851800Y-74115349D02*
X125918466Y-74082016D01*
X125918466Y-74082016D02*
X126185133Y-74082016D01*
X126185133Y-74082016D02*
X126251800Y-74115349D01*
X126251800Y-74115349D02*
X126285133Y-74182016D01*
X126285133Y-74182016D02*
X126285133Y-74315349D01*
X126285133Y-74315349D02*
X126251800Y-74382016D01*
X126251800Y-74382016D02*
X126185133Y-74415349D01*
X126185133Y-74415349D02*
X126118466Y-74415349D01*
X126118466Y-74415349D02*
X126051800Y-74082016D01*
X134870112Y-97169295D02*
X134489160Y-97169295D01*
X134489160Y-97169295D02*
X134489160Y-96369295D01*
X135479636Y-96635961D02*
X135479636Y-97169295D01*
X135136779Y-96635961D02*
X135136779Y-97055009D01*
X135136779Y-97055009D02*
X135174874Y-97131200D01*
X135174874Y-97131200D02*
X135251064Y-97169295D01*
X135251064Y-97169295D02*
X135365350Y-97169295D01*
X135365350Y-97169295D02*
X135441541Y-97131200D01*
X135441541Y-97131200D02*
X135479636Y-97093104D01*
X135860589Y-97169295D02*
X135860589Y-96635961D01*
X135860589Y-96712152D02*
X135898684Y-96674057D01*
X135898684Y-96674057D02*
X135974874Y-96635961D01*
X135974874Y-96635961D02*
X136089160Y-96635961D01*
X136089160Y-96635961D02*
X136165351Y-96674057D01*
X136165351Y-96674057D02*
X136203446Y-96750247D01*
X136203446Y-96750247D02*
X136203446Y-97169295D01*
X136203446Y-96750247D02*
X136241541Y-96674057D01*
X136241541Y-96674057D02*
X136317732Y-96635961D01*
X136317732Y-96635961D02*
X136432017Y-96635961D01*
X136432017Y-96635961D02*
X136508208Y-96674057D01*
X136508208Y-96674057D02*
X136546303Y-96750247D01*
X136546303Y-96750247D02*
X136546303Y-97169295D01*
X136927256Y-97169295D02*
X136927256Y-96635961D01*
X136927256Y-96369295D02*
X136889160Y-96407390D01*
X136889160Y-96407390D02*
X136927256Y-96445485D01*
X136927256Y-96445485D02*
X136965351Y-96407390D01*
X136965351Y-96407390D02*
X136927256Y-96369295D01*
X136927256Y-96369295D02*
X136927256Y-96445485D01*
X137308208Y-96635961D02*
X137308208Y-97169295D01*
X137308208Y-96712152D02*
X137346303Y-96674057D01*
X137346303Y-96674057D02*
X137422493Y-96635961D01*
X137422493Y-96635961D02*
X137536779Y-96635961D01*
X137536779Y-96635961D02*
X137612970Y-96674057D01*
X137612970Y-96674057D02*
X137651065Y-96750247D01*
X137651065Y-96750247D02*
X137651065Y-97169295D01*
X138146303Y-97169295D02*
X138070113Y-97131200D01*
X138070113Y-97131200D02*
X138032018Y-97093104D01*
X138032018Y-97093104D02*
X137993922Y-97016914D01*
X137993922Y-97016914D02*
X137993922Y-96788342D01*
X137993922Y-96788342D02*
X138032018Y-96712152D01*
X138032018Y-96712152D02*
X138070113Y-96674057D01*
X138070113Y-96674057D02*
X138146303Y-96635961D01*
X138146303Y-96635961D02*
X138260589Y-96635961D01*
X138260589Y-96635961D02*
X138336780Y-96674057D01*
X138336780Y-96674057D02*
X138374875Y-96712152D01*
X138374875Y-96712152D02*
X138412970Y-96788342D01*
X138412970Y-96788342D02*
X138412970Y-97016914D01*
X138412970Y-97016914D02*
X138374875Y-97093104D01*
X138374875Y-97093104D02*
X138336780Y-97131200D01*
X138336780Y-97131200D02*
X138260589Y-97169295D01*
X138260589Y-97169295D02*
X138146303Y-97169295D01*
X138717732Y-97131200D02*
X138793923Y-97169295D01*
X138793923Y-97169295D02*
X138946304Y-97169295D01*
X138946304Y-97169295D02*
X139022494Y-97131200D01*
X139022494Y-97131200D02*
X139060590Y-97055009D01*
X139060590Y-97055009D02*
X139060590Y-97016914D01*
X139060590Y-97016914D02*
X139022494Y-96940723D01*
X139022494Y-96940723D02*
X138946304Y-96902628D01*
X138946304Y-96902628D02*
X138832018Y-96902628D01*
X138832018Y-96902628D02*
X138755828Y-96864533D01*
X138755828Y-96864533D02*
X138717732Y-96788342D01*
X138717732Y-96788342D02*
X138717732Y-96750247D01*
X138717732Y-96750247D02*
X138755828Y-96674057D01*
X138755828Y-96674057D02*
X138832018Y-96635961D01*
X138832018Y-96635961D02*
X138946304Y-96635961D01*
X138946304Y-96635961D02*
X139022494Y-96674057D01*
X139403447Y-97169295D02*
X139403447Y-96635961D01*
X139403447Y-96369295D02*
X139365351Y-96407390D01*
X139365351Y-96407390D02*
X139403447Y-96445485D01*
X139403447Y-96445485D02*
X139441542Y-96407390D01*
X139441542Y-96407390D02*
X139403447Y-96369295D01*
X139403447Y-96369295D02*
X139403447Y-96445485D01*
X139670113Y-96635961D02*
X139974875Y-96635961D01*
X139784399Y-96369295D02*
X139784399Y-97055009D01*
X139784399Y-97055009D02*
X139822494Y-97131200D01*
X139822494Y-97131200D02*
X139898684Y-97169295D01*
X139898684Y-97169295D02*
X139974875Y-97169295D01*
X140546304Y-97131200D02*
X140470113Y-97169295D01*
X140470113Y-97169295D02*
X140317732Y-97169295D01*
X140317732Y-97169295D02*
X140241542Y-97131200D01*
X140241542Y-97131200D02*
X140203446Y-97055009D01*
X140203446Y-97055009D02*
X140203446Y-96750247D01*
X140203446Y-96750247D02*
X140241542Y-96674057D01*
X140241542Y-96674057D02*
X140317732Y-96635961D01*
X140317732Y-96635961D02*
X140470113Y-96635961D01*
X140470113Y-96635961D02*
X140546304Y-96674057D01*
X140546304Y-96674057D02*
X140584399Y-96750247D01*
X140584399Y-96750247D02*
X140584399Y-96826438D01*
X140584399Y-96826438D02*
X140203446Y-96902628D01*
X140470113Y-96331200D02*
X140355827Y-96445485D01*
D11*
X158389166Y-100902190D02*
X158365357Y-100926000D01*
X158365357Y-100926000D02*
X158293928Y-100949809D01*
X158293928Y-100949809D02*
X158246309Y-100949809D01*
X158246309Y-100949809D02*
X158174881Y-100926000D01*
X158174881Y-100926000D02*
X158127262Y-100878380D01*
X158127262Y-100878380D02*
X158103452Y-100830761D01*
X158103452Y-100830761D02*
X158079643Y-100735523D01*
X158079643Y-100735523D02*
X158079643Y-100664095D01*
X158079643Y-100664095D02*
X158103452Y-100568857D01*
X158103452Y-100568857D02*
X158127262Y-100521238D01*
X158127262Y-100521238D02*
X158174881Y-100473619D01*
X158174881Y-100473619D02*
X158246309Y-100449809D01*
X158246309Y-100449809D02*
X158293928Y-100449809D01*
X158293928Y-100449809D02*
X158365357Y-100473619D01*
X158365357Y-100473619D02*
X158389166Y-100497428D01*
X158555833Y-100449809D02*
X158865357Y-100449809D01*
X158865357Y-100449809D02*
X158698690Y-100640285D01*
X158698690Y-100640285D02*
X158770119Y-100640285D01*
X158770119Y-100640285D02*
X158817738Y-100664095D01*
X158817738Y-100664095D02*
X158841547Y-100687904D01*
X158841547Y-100687904D02*
X158865357Y-100735523D01*
X158865357Y-100735523D02*
X158865357Y-100854571D01*
X158865357Y-100854571D02*
X158841547Y-100902190D01*
X158841547Y-100902190D02*
X158817738Y-100926000D01*
X158817738Y-100926000D02*
X158770119Y-100949809D01*
X158770119Y-100949809D02*
X158627262Y-100949809D01*
X158627262Y-100949809D02*
X158579643Y-100926000D01*
X158579643Y-100926000D02*
X158555833Y-100902190D01*
X153277190Y-86583333D02*
X153301000Y-86607142D01*
X153301000Y-86607142D02*
X153324809Y-86678571D01*
X153324809Y-86678571D02*
X153324809Y-86726190D01*
X153324809Y-86726190D02*
X153301000Y-86797618D01*
X153301000Y-86797618D02*
X153253380Y-86845237D01*
X153253380Y-86845237D02*
X153205761Y-86869047D01*
X153205761Y-86869047D02*
X153110523Y-86892856D01*
X153110523Y-86892856D02*
X153039095Y-86892856D01*
X153039095Y-86892856D02*
X152943857Y-86869047D01*
X152943857Y-86869047D02*
X152896238Y-86845237D01*
X152896238Y-86845237D02*
X152848619Y-86797618D01*
X152848619Y-86797618D02*
X152824809Y-86726190D01*
X152824809Y-86726190D02*
X152824809Y-86678571D01*
X152824809Y-86678571D02*
X152848619Y-86607142D01*
X152848619Y-86607142D02*
X152872428Y-86583333D01*
X152824809Y-86130952D02*
X152824809Y-86369047D01*
X152824809Y-86369047D02*
X153062904Y-86392856D01*
X153062904Y-86392856D02*
X153039095Y-86369047D01*
X153039095Y-86369047D02*
X153015285Y-86321428D01*
X153015285Y-86321428D02*
X153015285Y-86202380D01*
X153015285Y-86202380D02*
X153039095Y-86154761D01*
X153039095Y-86154761D02*
X153062904Y-86130952D01*
X153062904Y-86130952D02*
X153110523Y-86107142D01*
X153110523Y-86107142D02*
X153229571Y-86107142D01*
X153229571Y-86107142D02*
X153277190Y-86130952D01*
X153277190Y-86130952D02*
X153301000Y-86154761D01*
X153301000Y-86154761D02*
X153324809Y-86202380D01*
X153324809Y-86202380D02*
X153324809Y-86321428D01*
X153324809Y-86321428D02*
X153301000Y-86369047D01*
X153301000Y-86369047D02*
X153277190Y-86392856D01*
X124518333Y-82724809D02*
X124518333Y-83081952D01*
X124518333Y-83081952D02*
X124494524Y-83153380D01*
X124494524Y-83153380D02*
X124446905Y-83201000D01*
X124446905Y-83201000D02*
X124375476Y-83224809D01*
X124375476Y-83224809D02*
X124327857Y-83224809D01*
X124708809Y-82724809D02*
X125018333Y-82724809D01*
X125018333Y-82724809D02*
X124851666Y-82915285D01*
X124851666Y-82915285D02*
X124923095Y-82915285D01*
X124923095Y-82915285D02*
X124970714Y-82939095D01*
X124970714Y-82939095D02*
X124994523Y-82962904D01*
X124994523Y-82962904D02*
X125018333Y-83010523D01*
X125018333Y-83010523D02*
X125018333Y-83129571D01*
X125018333Y-83129571D02*
X124994523Y-83177190D01*
X124994523Y-83177190D02*
X124970714Y-83201000D01*
X124970714Y-83201000D02*
X124923095Y-83224809D01*
X124923095Y-83224809D02*
X124780238Y-83224809D01*
X124780238Y-83224809D02*
X124732619Y-83201000D01*
X124732619Y-83201000D02*
X124708809Y-83177190D01*
X145574809Y-98930952D02*
X145979571Y-98930952D01*
X145979571Y-98930952D02*
X146027190Y-98907142D01*
X146027190Y-98907142D02*
X146051000Y-98883333D01*
X146051000Y-98883333D02*
X146074809Y-98835714D01*
X146074809Y-98835714D02*
X146074809Y-98740476D01*
X146074809Y-98740476D02*
X146051000Y-98692857D01*
X146051000Y-98692857D02*
X146027190Y-98669047D01*
X146027190Y-98669047D02*
X145979571Y-98645238D01*
X145979571Y-98645238D02*
X145574809Y-98645238D01*
X146074809Y-98145237D02*
X146074809Y-98430951D01*
X146074809Y-98288094D02*
X145574809Y-98288094D01*
X145574809Y-98288094D02*
X145646238Y-98335713D01*
X145646238Y-98335713D02*
X145693857Y-98383332D01*
X145693857Y-98383332D02*
X145717666Y-98430951D01*
X160259809Y-73521428D02*
X160021714Y-73688094D01*
X160259809Y-73807142D02*
X159759809Y-73807142D01*
X159759809Y-73807142D02*
X159759809Y-73616666D01*
X159759809Y-73616666D02*
X159783619Y-73569047D01*
X159783619Y-73569047D02*
X159807428Y-73545237D01*
X159807428Y-73545237D02*
X159855047Y-73521428D01*
X159855047Y-73521428D02*
X159926476Y-73521428D01*
X159926476Y-73521428D02*
X159974095Y-73545237D01*
X159974095Y-73545237D02*
X159997904Y-73569047D01*
X159997904Y-73569047D02*
X160021714Y-73616666D01*
X160021714Y-73616666D02*
X160021714Y-73807142D01*
X160259809Y-73045237D02*
X160259809Y-73330951D01*
X160259809Y-73188094D02*
X159759809Y-73188094D01*
X159759809Y-73188094D02*
X159831238Y-73235713D01*
X159831238Y-73235713D02*
X159878857Y-73283332D01*
X159878857Y-73283332D02*
X159902666Y-73330951D01*
X159807428Y-72854761D02*
X159783619Y-72830952D01*
X159783619Y-72830952D02*
X159759809Y-72783333D01*
X159759809Y-72783333D02*
X159759809Y-72664285D01*
X159759809Y-72664285D02*
X159783619Y-72616666D01*
X159783619Y-72616666D02*
X159807428Y-72592857D01*
X159807428Y-72592857D02*
X159855047Y-72569047D01*
X159855047Y-72569047D02*
X159902666Y-72569047D01*
X159902666Y-72569047D02*
X159974095Y-72592857D01*
X159974095Y-72592857D02*
X160259809Y-72878571D01*
X160259809Y-72878571D02*
X160259809Y-72569047D01*
X155612190Y-73333333D02*
X155636000Y-73357142D01*
X155636000Y-73357142D02*
X155659809Y-73428571D01*
X155659809Y-73428571D02*
X155659809Y-73476190D01*
X155659809Y-73476190D02*
X155636000Y-73547618D01*
X155636000Y-73547618D02*
X155588380Y-73595237D01*
X155588380Y-73595237D02*
X155540761Y-73619047D01*
X155540761Y-73619047D02*
X155445523Y-73642856D01*
X155445523Y-73642856D02*
X155374095Y-73642856D01*
X155374095Y-73642856D02*
X155278857Y-73619047D01*
X155278857Y-73619047D02*
X155231238Y-73595237D01*
X155231238Y-73595237D02*
X155183619Y-73547618D01*
X155183619Y-73547618D02*
X155159809Y-73476190D01*
X155159809Y-73476190D02*
X155159809Y-73428571D01*
X155159809Y-73428571D02*
X155183619Y-73357142D01*
X155183619Y-73357142D02*
X155207428Y-73333333D01*
X155159809Y-72904761D02*
X155159809Y-72999999D01*
X155159809Y-72999999D02*
X155183619Y-73047618D01*
X155183619Y-73047618D02*
X155207428Y-73071428D01*
X155207428Y-73071428D02*
X155278857Y-73119047D01*
X155278857Y-73119047D02*
X155374095Y-73142856D01*
X155374095Y-73142856D02*
X155564571Y-73142856D01*
X155564571Y-73142856D02*
X155612190Y-73119047D01*
X155612190Y-73119047D02*
X155636000Y-73095237D01*
X155636000Y-73095237D02*
X155659809Y-73047618D01*
X155659809Y-73047618D02*
X155659809Y-72952380D01*
X155659809Y-72952380D02*
X155636000Y-72904761D01*
X155636000Y-72904761D02*
X155612190Y-72880952D01*
X155612190Y-72880952D02*
X155564571Y-72857142D01*
X155564571Y-72857142D02*
X155445523Y-72857142D01*
X155445523Y-72857142D02*
X155397904Y-72880952D01*
X155397904Y-72880952D02*
X155374095Y-72904761D01*
X155374095Y-72904761D02*
X155350285Y-72952380D01*
X155350285Y-72952380D02*
X155350285Y-73047618D01*
X155350285Y-73047618D02*
X155374095Y-73095237D01*
X155374095Y-73095237D02*
X155397904Y-73119047D01*
X155397904Y-73119047D02*
X155445523Y-73142856D01*
X146778571Y-88399809D02*
X146611905Y-88161714D01*
X146492857Y-88399809D02*
X146492857Y-87899809D01*
X146492857Y-87899809D02*
X146683333Y-87899809D01*
X146683333Y-87899809D02*
X146730952Y-87923619D01*
X146730952Y-87923619D02*
X146754762Y-87947428D01*
X146754762Y-87947428D02*
X146778571Y-87995047D01*
X146778571Y-87995047D02*
X146778571Y-88066476D01*
X146778571Y-88066476D02*
X146754762Y-88114095D01*
X146754762Y-88114095D02*
X146730952Y-88137904D01*
X146730952Y-88137904D02*
X146683333Y-88161714D01*
X146683333Y-88161714D02*
X146492857Y-88161714D01*
X147254762Y-88399809D02*
X146969048Y-88399809D01*
X147111905Y-88399809D02*
X147111905Y-87899809D01*
X147111905Y-87899809D02*
X147064286Y-87971238D01*
X147064286Y-87971238D02*
X147016667Y-88018857D01*
X147016667Y-88018857D02*
X146969048Y-88042666D01*
X147540476Y-88114095D02*
X147492857Y-88090285D01*
X147492857Y-88090285D02*
X147469047Y-88066476D01*
X147469047Y-88066476D02*
X147445238Y-88018857D01*
X147445238Y-88018857D02*
X147445238Y-87995047D01*
X147445238Y-87995047D02*
X147469047Y-87947428D01*
X147469047Y-87947428D02*
X147492857Y-87923619D01*
X147492857Y-87923619D02*
X147540476Y-87899809D01*
X147540476Y-87899809D02*
X147635714Y-87899809D01*
X147635714Y-87899809D02*
X147683333Y-87923619D01*
X147683333Y-87923619D02*
X147707142Y-87947428D01*
X147707142Y-87947428D02*
X147730952Y-87995047D01*
X147730952Y-87995047D02*
X147730952Y-88018857D01*
X147730952Y-88018857D02*
X147707142Y-88066476D01*
X147707142Y-88066476D02*
X147683333Y-88090285D01*
X147683333Y-88090285D02*
X147635714Y-88114095D01*
X147635714Y-88114095D02*
X147540476Y-88114095D01*
X147540476Y-88114095D02*
X147492857Y-88137904D01*
X147492857Y-88137904D02*
X147469047Y-88161714D01*
X147469047Y-88161714D02*
X147445238Y-88209333D01*
X147445238Y-88209333D02*
X147445238Y-88304571D01*
X147445238Y-88304571D02*
X147469047Y-88352190D01*
X147469047Y-88352190D02*
X147492857Y-88376000D01*
X147492857Y-88376000D02*
X147540476Y-88399809D01*
X147540476Y-88399809D02*
X147635714Y-88399809D01*
X147635714Y-88399809D02*
X147683333Y-88376000D01*
X147683333Y-88376000D02*
X147707142Y-88352190D01*
X147707142Y-88352190D02*
X147730952Y-88304571D01*
X147730952Y-88304571D02*
X147730952Y-88209333D01*
X147730952Y-88209333D02*
X147707142Y-88161714D01*
X147707142Y-88161714D02*
X147683333Y-88137904D01*
X147683333Y-88137904D02*
X147635714Y-88114095D01*
X149399809Y-84733333D02*
X149161714Y-84899999D01*
X149399809Y-85019047D02*
X148899809Y-85019047D01*
X148899809Y-85019047D02*
X148899809Y-84828571D01*
X148899809Y-84828571D02*
X148923619Y-84780952D01*
X148923619Y-84780952D02*
X148947428Y-84757142D01*
X148947428Y-84757142D02*
X148995047Y-84733333D01*
X148995047Y-84733333D02*
X149066476Y-84733333D01*
X149066476Y-84733333D02*
X149114095Y-84757142D01*
X149114095Y-84757142D02*
X149137904Y-84780952D01*
X149137904Y-84780952D02*
X149161714Y-84828571D01*
X149161714Y-84828571D02*
X149161714Y-85019047D01*
X148899809Y-84566666D02*
X148899809Y-84233333D01*
X148899809Y-84233333D02*
X149399809Y-84447618D01*
X124658333Y-75449809D02*
X124658333Y-75806952D01*
X124658333Y-75806952D02*
X124634524Y-75878380D01*
X124634524Y-75878380D02*
X124586905Y-75926000D01*
X124586905Y-75926000D02*
X124515476Y-75949809D01*
X124515476Y-75949809D02*
X124467857Y-75949809D01*
X125110714Y-75616476D02*
X125110714Y-75949809D01*
X124991666Y-75426000D02*
X124872619Y-75783142D01*
X124872619Y-75783142D02*
X125182142Y-75783142D01*
X156347309Y-101333333D02*
X156109214Y-101499999D01*
X156347309Y-101619047D02*
X155847309Y-101619047D01*
X155847309Y-101619047D02*
X155847309Y-101428571D01*
X155847309Y-101428571D02*
X155871119Y-101380952D01*
X155871119Y-101380952D02*
X155894928Y-101357142D01*
X155894928Y-101357142D02*
X155942547Y-101333333D01*
X155942547Y-101333333D02*
X156013976Y-101333333D01*
X156013976Y-101333333D02*
X156061595Y-101357142D01*
X156061595Y-101357142D02*
X156085404Y-101380952D01*
X156085404Y-101380952D02*
X156109214Y-101428571D01*
X156109214Y-101428571D02*
X156109214Y-101619047D01*
X155847309Y-101166666D02*
X155847309Y-100857142D01*
X155847309Y-100857142D02*
X156037785Y-101023809D01*
X156037785Y-101023809D02*
X156037785Y-100952380D01*
X156037785Y-100952380D02*
X156061595Y-100904761D01*
X156061595Y-100904761D02*
X156085404Y-100880952D01*
X156085404Y-100880952D02*
X156133023Y-100857142D01*
X156133023Y-100857142D02*
X156252071Y-100857142D01*
X156252071Y-100857142D02*
X156299690Y-100880952D01*
X156299690Y-100880952D02*
X156323500Y-100904761D01*
X156323500Y-100904761D02*
X156347309Y-100952380D01*
X156347309Y-100952380D02*
X156347309Y-101095237D01*
X156347309Y-101095237D02*
X156323500Y-101142856D01*
X156323500Y-101142856D02*
X156299690Y-101166666D01*
X149424809Y-87446428D02*
X149186714Y-87613094D01*
X149424809Y-87732142D02*
X148924809Y-87732142D01*
X148924809Y-87732142D02*
X148924809Y-87541666D01*
X148924809Y-87541666D02*
X148948619Y-87494047D01*
X148948619Y-87494047D02*
X148972428Y-87470237D01*
X148972428Y-87470237D02*
X149020047Y-87446428D01*
X149020047Y-87446428D02*
X149091476Y-87446428D01*
X149091476Y-87446428D02*
X149139095Y-87470237D01*
X149139095Y-87470237D02*
X149162904Y-87494047D01*
X149162904Y-87494047D02*
X149186714Y-87541666D01*
X149186714Y-87541666D02*
X149186714Y-87732142D01*
X149424809Y-86970237D02*
X149424809Y-87255951D01*
X149424809Y-87113094D02*
X148924809Y-87113094D01*
X148924809Y-87113094D02*
X148996238Y-87160713D01*
X148996238Y-87160713D02*
X149043857Y-87208332D01*
X149043857Y-87208332D02*
X149067666Y-87255951D01*
X148924809Y-86660714D02*
X148924809Y-86613095D01*
X148924809Y-86613095D02*
X148948619Y-86565476D01*
X148948619Y-86565476D02*
X148972428Y-86541666D01*
X148972428Y-86541666D02*
X149020047Y-86517857D01*
X149020047Y-86517857D02*
X149115285Y-86494047D01*
X149115285Y-86494047D02*
X149234333Y-86494047D01*
X149234333Y-86494047D02*
X149329571Y-86517857D01*
X149329571Y-86517857D02*
X149377190Y-86541666D01*
X149377190Y-86541666D02*
X149401000Y-86565476D01*
X149401000Y-86565476D02*
X149424809Y-86613095D01*
X149424809Y-86613095D02*
X149424809Y-86660714D01*
X149424809Y-86660714D02*
X149401000Y-86708333D01*
X149401000Y-86708333D02*
X149377190Y-86732142D01*
X149377190Y-86732142D02*
X149329571Y-86755952D01*
X149329571Y-86755952D02*
X149234333Y-86779761D01*
X149234333Y-86779761D02*
X149115285Y-86779761D01*
X149115285Y-86779761D02*
X149020047Y-86755952D01*
X149020047Y-86755952D02*
X148972428Y-86732142D01*
X148972428Y-86732142D02*
X148948619Y-86708333D01*
X148948619Y-86708333D02*
X148924809Y-86660714D01*
X160074809Y-76246428D02*
X159836714Y-76413094D01*
X160074809Y-76532142D02*
X159574809Y-76532142D01*
X159574809Y-76532142D02*
X159574809Y-76341666D01*
X159574809Y-76341666D02*
X159598619Y-76294047D01*
X159598619Y-76294047D02*
X159622428Y-76270237D01*
X159622428Y-76270237D02*
X159670047Y-76246428D01*
X159670047Y-76246428D02*
X159741476Y-76246428D01*
X159741476Y-76246428D02*
X159789095Y-76270237D01*
X159789095Y-76270237D02*
X159812904Y-76294047D01*
X159812904Y-76294047D02*
X159836714Y-76341666D01*
X159836714Y-76341666D02*
X159836714Y-76532142D01*
X160074809Y-75770237D02*
X160074809Y-76055951D01*
X160074809Y-75913094D02*
X159574809Y-75913094D01*
X159574809Y-75913094D02*
X159646238Y-75960713D01*
X159646238Y-75960713D02*
X159693857Y-76008332D01*
X159693857Y-76008332D02*
X159717666Y-76055951D01*
X160074809Y-75294047D02*
X160074809Y-75579761D01*
X160074809Y-75436904D02*
X159574809Y-75436904D01*
X159574809Y-75436904D02*
X159646238Y-75484523D01*
X159646238Y-75484523D02*
X159693857Y-75532142D01*
X159693857Y-75532142D02*
X159717666Y-75579761D01*
X119394047Y-92474809D02*
X119394047Y-92879571D01*
X119394047Y-92879571D02*
X119417857Y-92927190D01*
X119417857Y-92927190D02*
X119441666Y-92951000D01*
X119441666Y-92951000D02*
X119489285Y-92974809D01*
X119489285Y-92974809D02*
X119584523Y-92974809D01*
X119584523Y-92974809D02*
X119632142Y-92951000D01*
X119632142Y-92951000D02*
X119655952Y-92927190D01*
X119655952Y-92927190D02*
X119679761Y-92879571D01*
X119679761Y-92879571D02*
X119679761Y-92474809D01*
X120155952Y-92474809D02*
X119917857Y-92474809D01*
X119917857Y-92474809D02*
X119894048Y-92712904D01*
X119894048Y-92712904D02*
X119917857Y-92689095D01*
X119917857Y-92689095D02*
X119965476Y-92665285D01*
X119965476Y-92665285D02*
X120084524Y-92665285D01*
X120084524Y-92665285D02*
X120132143Y-92689095D01*
X120132143Y-92689095D02*
X120155952Y-92712904D01*
X120155952Y-92712904D02*
X120179762Y-92760523D01*
X120179762Y-92760523D02*
X120179762Y-92879571D01*
X120179762Y-92879571D02*
X120155952Y-92927190D01*
X120155952Y-92927190D02*
X120132143Y-92951000D01*
X120132143Y-92951000D02*
X120084524Y-92974809D01*
X120084524Y-92974809D02*
X119965476Y-92974809D01*
X119965476Y-92974809D02*
X119917857Y-92951000D01*
X119917857Y-92951000D02*
X119894048Y-92927190D01*
X146074809Y-90921428D02*
X145836714Y-91088094D01*
X146074809Y-91207142D02*
X145574809Y-91207142D01*
X145574809Y-91207142D02*
X145574809Y-91016666D01*
X145574809Y-91016666D02*
X145598619Y-90969047D01*
X145598619Y-90969047D02*
X145622428Y-90945237D01*
X145622428Y-90945237D02*
X145670047Y-90921428D01*
X145670047Y-90921428D02*
X145741476Y-90921428D01*
X145741476Y-90921428D02*
X145789095Y-90945237D01*
X145789095Y-90945237D02*
X145812904Y-90969047D01*
X145812904Y-90969047D02*
X145836714Y-91016666D01*
X145836714Y-91016666D02*
X145836714Y-91207142D01*
X146074809Y-90445237D02*
X146074809Y-90730951D01*
X146074809Y-90588094D02*
X145574809Y-90588094D01*
X145574809Y-90588094D02*
X145646238Y-90635713D01*
X145646238Y-90635713D02*
X145693857Y-90683332D01*
X145693857Y-90683332D02*
X145717666Y-90730951D01*
X145574809Y-90278571D02*
X145574809Y-89969047D01*
X145574809Y-89969047D02*
X145765285Y-90135714D01*
X145765285Y-90135714D02*
X145765285Y-90064285D01*
X145765285Y-90064285D02*
X145789095Y-90016666D01*
X145789095Y-90016666D02*
X145812904Y-89992857D01*
X145812904Y-89992857D02*
X145860523Y-89969047D01*
X145860523Y-89969047D02*
X145979571Y-89969047D01*
X145979571Y-89969047D02*
X146027190Y-89992857D01*
X146027190Y-89992857D02*
X146051000Y-90016666D01*
X146051000Y-90016666D02*
X146074809Y-90064285D01*
X146074809Y-90064285D02*
X146074809Y-90207142D01*
X146074809Y-90207142D02*
X146051000Y-90254761D01*
X146051000Y-90254761D02*
X146027190Y-90278571D01*
X147238571Y-77999809D02*
X147071905Y-77761714D01*
X146952857Y-77999809D02*
X146952857Y-77499809D01*
X146952857Y-77499809D02*
X147143333Y-77499809D01*
X147143333Y-77499809D02*
X147190952Y-77523619D01*
X147190952Y-77523619D02*
X147214762Y-77547428D01*
X147214762Y-77547428D02*
X147238571Y-77595047D01*
X147238571Y-77595047D02*
X147238571Y-77666476D01*
X147238571Y-77666476D02*
X147214762Y-77714095D01*
X147214762Y-77714095D02*
X147190952Y-77737904D01*
X147190952Y-77737904D02*
X147143333Y-77761714D01*
X147143333Y-77761714D02*
X146952857Y-77761714D01*
X147714762Y-77999809D02*
X147429048Y-77999809D01*
X147571905Y-77999809D02*
X147571905Y-77499809D01*
X147571905Y-77499809D02*
X147524286Y-77571238D01*
X147524286Y-77571238D02*
X147476667Y-77618857D01*
X147476667Y-77618857D02*
X147429048Y-77642666D01*
X148143333Y-77499809D02*
X148048095Y-77499809D01*
X148048095Y-77499809D02*
X148000476Y-77523619D01*
X148000476Y-77523619D02*
X147976666Y-77547428D01*
X147976666Y-77547428D02*
X147929047Y-77618857D01*
X147929047Y-77618857D02*
X147905238Y-77714095D01*
X147905238Y-77714095D02*
X147905238Y-77904571D01*
X147905238Y-77904571D02*
X147929047Y-77952190D01*
X147929047Y-77952190D02*
X147952857Y-77976000D01*
X147952857Y-77976000D02*
X148000476Y-77999809D01*
X148000476Y-77999809D02*
X148095714Y-77999809D01*
X148095714Y-77999809D02*
X148143333Y-77976000D01*
X148143333Y-77976000D02*
X148167142Y-77952190D01*
X148167142Y-77952190D02*
X148190952Y-77904571D01*
X148190952Y-77904571D02*
X148190952Y-77785523D01*
X148190952Y-77785523D02*
X148167142Y-77737904D01*
X148167142Y-77737904D02*
X148143333Y-77714095D01*
X148143333Y-77714095D02*
X148095714Y-77690285D01*
X148095714Y-77690285D02*
X148000476Y-77690285D01*
X148000476Y-77690285D02*
X147952857Y-77714095D01*
X147952857Y-77714095D02*
X147929047Y-77737904D01*
X147929047Y-77737904D02*
X147905238Y-77785523D01*
X154308333Y-70324809D02*
X154308333Y-70681952D01*
X154308333Y-70681952D02*
X154284524Y-70753380D01*
X154284524Y-70753380D02*
X154236905Y-70801000D01*
X154236905Y-70801000D02*
X154165476Y-70824809D01*
X154165476Y-70824809D02*
X154117857Y-70824809D01*
X154808333Y-70824809D02*
X154522619Y-70824809D01*
X154665476Y-70824809D02*
X154665476Y-70324809D01*
X154665476Y-70324809D02*
X154617857Y-70396238D01*
X154617857Y-70396238D02*
X154570238Y-70443857D01*
X154570238Y-70443857D02*
X154522619Y-70467666D01*
X155814166Y-94952190D02*
X155790357Y-94976000D01*
X155790357Y-94976000D02*
X155718928Y-94999809D01*
X155718928Y-94999809D02*
X155671309Y-94999809D01*
X155671309Y-94999809D02*
X155599881Y-94976000D01*
X155599881Y-94976000D02*
X155552262Y-94928380D01*
X155552262Y-94928380D02*
X155528452Y-94880761D01*
X155528452Y-94880761D02*
X155504643Y-94785523D01*
X155504643Y-94785523D02*
X155504643Y-94714095D01*
X155504643Y-94714095D02*
X155528452Y-94618857D01*
X155528452Y-94618857D02*
X155552262Y-94571238D01*
X155552262Y-94571238D02*
X155599881Y-94523619D01*
X155599881Y-94523619D02*
X155671309Y-94499809D01*
X155671309Y-94499809D02*
X155718928Y-94499809D01*
X155718928Y-94499809D02*
X155790357Y-94523619D01*
X155790357Y-94523619D02*
X155814166Y-94547428D01*
X156004643Y-94547428D02*
X156028452Y-94523619D01*
X156028452Y-94523619D02*
X156076071Y-94499809D01*
X156076071Y-94499809D02*
X156195119Y-94499809D01*
X156195119Y-94499809D02*
X156242738Y-94523619D01*
X156242738Y-94523619D02*
X156266547Y-94547428D01*
X156266547Y-94547428D02*
X156290357Y-94595047D01*
X156290357Y-94595047D02*
X156290357Y-94642666D01*
X156290357Y-94642666D02*
X156266547Y-94714095D01*
X156266547Y-94714095D02*
X155980833Y-94999809D01*
X155980833Y-94999809D02*
X156290357Y-94999809D01*
X140833333Y-102849809D02*
X140833333Y-103206952D01*
X140833333Y-103206952D02*
X140809524Y-103278380D01*
X140809524Y-103278380D02*
X140761905Y-103326000D01*
X140761905Y-103326000D02*
X140690476Y-103349809D01*
X140690476Y-103349809D02*
X140642857Y-103349809D01*
X141047619Y-102897428D02*
X141071428Y-102873619D01*
X141071428Y-102873619D02*
X141119047Y-102849809D01*
X141119047Y-102849809D02*
X141238095Y-102849809D01*
X141238095Y-102849809D02*
X141285714Y-102873619D01*
X141285714Y-102873619D02*
X141309523Y-102897428D01*
X141309523Y-102897428D02*
X141333333Y-102945047D01*
X141333333Y-102945047D02*
X141333333Y-102992666D01*
X141333333Y-102992666D02*
X141309523Y-103064095D01*
X141309523Y-103064095D02*
X141023809Y-103349809D01*
X141023809Y-103349809D02*
X141333333Y-103349809D01*
X141602190Y-99633333D02*
X141626000Y-99657142D01*
X141626000Y-99657142D02*
X141649809Y-99728571D01*
X141649809Y-99728571D02*
X141649809Y-99776190D01*
X141649809Y-99776190D02*
X141626000Y-99847618D01*
X141626000Y-99847618D02*
X141578380Y-99895237D01*
X141578380Y-99895237D02*
X141530761Y-99919047D01*
X141530761Y-99919047D02*
X141435523Y-99942856D01*
X141435523Y-99942856D02*
X141364095Y-99942856D01*
X141364095Y-99942856D02*
X141268857Y-99919047D01*
X141268857Y-99919047D02*
X141221238Y-99895237D01*
X141221238Y-99895237D02*
X141173619Y-99847618D01*
X141173619Y-99847618D02*
X141149809Y-99776190D01*
X141149809Y-99776190D02*
X141149809Y-99728571D01*
X141149809Y-99728571D02*
X141173619Y-99657142D01*
X141173619Y-99657142D02*
X141197428Y-99633333D01*
X141316476Y-99204761D02*
X141649809Y-99204761D01*
X141126000Y-99323809D02*
X141483142Y-99442856D01*
X141483142Y-99442856D02*
X141483142Y-99133333D01*
X141599809Y-96208333D02*
X141361714Y-96374999D01*
X141599809Y-96494047D02*
X141099809Y-96494047D01*
X141099809Y-96494047D02*
X141099809Y-96303571D01*
X141099809Y-96303571D02*
X141123619Y-96255952D01*
X141123619Y-96255952D02*
X141147428Y-96232142D01*
X141147428Y-96232142D02*
X141195047Y-96208333D01*
X141195047Y-96208333D02*
X141266476Y-96208333D01*
X141266476Y-96208333D02*
X141314095Y-96232142D01*
X141314095Y-96232142D02*
X141337904Y-96255952D01*
X141337904Y-96255952D02*
X141361714Y-96303571D01*
X141361714Y-96303571D02*
X141361714Y-96494047D01*
X141099809Y-95755952D02*
X141099809Y-95994047D01*
X141099809Y-95994047D02*
X141337904Y-96017856D01*
X141337904Y-96017856D02*
X141314095Y-95994047D01*
X141314095Y-95994047D02*
X141290285Y-95946428D01*
X141290285Y-95946428D02*
X141290285Y-95827380D01*
X141290285Y-95827380D02*
X141314095Y-95779761D01*
X141314095Y-95779761D02*
X141337904Y-95755952D01*
X141337904Y-95755952D02*
X141385523Y-95732142D01*
X141385523Y-95732142D02*
X141504571Y-95732142D01*
X141504571Y-95732142D02*
X141552190Y-95755952D01*
X141552190Y-95755952D02*
X141576000Y-95779761D01*
X141576000Y-95779761D02*
X141599809Y-95827380D01*
X141599809Y-95827380D02*
X141599809Y-95946428D01*
X141599809Y-95946428D02*
X141576000Y-95994047D01*
X141576000Y-95994047D02*
X141552190Y-96017856D01*
X153654047Y-92274809D02*
X153654047Y-92679571D01*
X153654047Y-92679571D02*
X153677857Y-92727190D01*
X153677857Y-92727190D02*
X153701666Y-92751000D01*
X153701666Y-92751000D02*
X153749285Y-92774809D01*
X153749285Y-92774809D02*
X153844523Y-92774809D01*
X153844523Y-92774809D02*
X153892142Y-92751000D01*
X153892142Y-92751000D02*
X153915952Y-92727190D01*
X153915952Y-92727190D02*
X153939761Y-92679571D01*
X153939761Y-92679571D02*
X153939761Y-92274809D01*
X154154048Y-92322428D02*
X154177857Y-92298619D01*
X154177857Y-92298619D02*
X154225476Y-92274809D01*
X154225476Y-92274809D02*
X154344524Y-92274809D01*
X154344524Y-92274809D02*
X154392143Y-92298619D01*
X154392143Y-92298619D02*
X154415952Y-92322428D01*
X154415952Y-92322428D02*
X154439762Y-92370047D01*
X154439762Y-92370047D02*
X154439762Y-92417666D01*
X154439762Y-92417666D02*
X154415952Y-92489095D01*
X154415952Y-92489095D02*
X154130238Y-92774809D01*
X154130238Y-92774809D02*
X154439762Y-92774809D01*
X153104047Y-80449809D02*
X153104047Y-80854571D01*
X153104047Y-80854571D02*
X153127857Y-80902190D01*
X153127857Y-80902190D02*
X153151666Y-80926000D01*
X153151666Y-80926000D02*
X153199285Y-80949809D01*
X153199285Y-80949809D02*
X153294523Y-80949809D01*
X153294523Y-80949809D02*
X153342142Y-80926000D01*
X153342142Y-80926000D02*
X153365952Y-80902190D01*
X153365952Y-80902190D02*
X153389761Y-80854571D01*
X153389761Y-80854571D02*
X153389761Y-80449809D01*
X153580238Y-80449809D02*
X153889762Y-80449809D01*
X153889762Y-80449809D02*
X153723095Y-80640285D01*
X153723095Y-80640285D02*
X153794524Y-80640285D01*
X153794524Y-80640285D02*
X153842143Y-80664095D01*
X153842143Y-80664095D02*
X153865952Y-80687904D01*
X153865952Y-80687904D02*
X153889762Y-80735523D01*
X153889762Y-80735523D02*
X153889762Y-80854571D01*
X153889762Y-80854571D02*
X153865952Y-80902190D01*
X153865952Y-80902190D02*
X153842143Y-80926000D01*
X153842143Y-80926000D02*
X153794524Y-80949809D01*
X153794524Y-80949809D02*
X153651667Y-80949809D01*
X153651667Y-80949809D02*
X153604048Y-80926000D01*
X153604048Y-80926000D02*
X153580238Y-80902190D01*
X149364809Y-90091428D02*
X149126714Y-90258094D01*
X149364809Y-90377142D02*
X148864809Y-90377142D01*
X148864809Y-90377142D02*
X148864809Y-90186666D01*
X148864809Y-90186666D02*
X148888619Y-90139047D01*
X148888619Y-90139047D02*
X148912428Y-90115237D01*
X148912428Y-90115237D02*
X148960047Y-90091428D01*
X148960047Y-90091428D02*
X149031476Y-90091428D01*
X149031476Y-90091428D02*
X149079095Y-90115237D01*
X149079095Y-90115237D02*
X149102904Y-90139047D01*
X149102904Y-90139047D02*
X149126714Y-90186666D01*
X149126714Y-90186666D02*
X149126714Y-90377142D01*
X149364809Y-89615237D02*
X149364809Y-89900951D01*
X149364809Y-89758094D02*
X148864809Y-89758094D01*
X148864809Y-89758094D02*
X148936238Y-89805713D01*
X148936238Y-89805713D02*
X148983857Y-89853332D01*
X148983857Y-89853332D02*
X149007666Y-89900951D01*
X149031476Y-89186666D02*
X149364809Y-89186666D01*
X148841000Y-89305714D02*
X149198142Y-89424761D01*
X149198142Y-89424761D02*
X149198142Y-89115238D01*
X154047309Y-100358333D02*
X153809214Y-100524999D01*
X154047309Y-100644047D02*
X153547309Y-100644047D01*
X153547309Y-100644047D02*
X153547309Y-100453571D01*
X153547309Y-100453571D02*
X153571119Y-100405952D01*
X153571119Y-100405952D02*
X153594928Y-100382142D01*
X153594928Y-100382142D02*
X153642547Y-100358333D01*
X153642547Y-100358333D02*
X153713976Y-100358333D01*
X153713976Y-100358333D02*
X153761595Y-100382142D01*
X153761595Y-100382142D02*
X153785404Y-100405952D01*
X153785404Y-100405952D02*
X153809214Y-100453571D01*
X153809214Y-100453571D02*
X153809214Y-100644047D01*
X154047309Y-99882142D02*
X154047309Y-100167856D01*
X154047309Y-100024999D02*
X153547309Y-100024999D01*
X153547309Y-100024999D02*
X153618738Y-100072618D01*
X153618738Y-100072618D02*
X153666357Y-100120237D01*
X153666357Y-100120237D02*
X153690166Y-100167856D01*
X159316666Y-96849809D02*
X159150000Y-96611714D01*
X159030952Y-96849809D02*
X159030952Y-96349809D01*
X159030952Y-96349809D02*
X159221428Y-96349809D01*
X159221428Y-96349809D02*
X159269047Y-96373619D01*
X159269047Y-96373619D02*
X159292857Y-96397428D01*
X159292857Y-96397428D02*
X159316666Y-96445047D01*
X159316666Y-96445047D02*
X159316666Y-96516476D01*
X159316666Y-96516476D02*
X159292857Y-96564095D01*
X159292857Y-96564095D02*
X159269047Y-96587904D01*
X159269047Y-96587904D02*
X159221428Y-96611714D01*
X159221428Y-96611714D02*
X159030952Y-96611714D01*
X159745238Y-96516476D02*
X159745238Y-96849809D01*
X159626190Y-96326000D02*
X159507143Y-96683142D01*
X159507143Y-96683142D02*
X159816666Y-96683142D01*
X150893571Y-92944809D02*
X150726905Y-92706714D01*
X150607857Y-92944809D02*
X150607857Y-92444809D01*
X150607857Y-92444809D02*
X150798333Y-92444809D01*
X150798333Y-92444809D02*
X150845952Y-92468619D01*
X150845952Y-92468619D02*
X150869762Y-92492428D01*
X150869762Y-92492428D02*
X150893571Y-92540047D01*
X150893571Y-92540047D02*
X150893571Y-92611476D01*
X150893571Y-92611476D02*
X150869762Y-92659095D01*
X150869762Y-92659095D02*
X150845952Y-92682904D01*
X150845952Y-92682904D02*
X150798333Y-92706714D01*
X150798333Y-92706714D02*
X150607857Y-92706714D01*
X151369762Y-92944809D02*
X151084048Y-92944809D01*
X151226905Y-92944809D02*
X151226905Y-92444809D01*
X151226905Y-92444809D02*
X151179286Y-92516238D01*
X151179286Y-92516238D02*
X151131667Y-92563857D01*
X151131667Y-92563857D02*
X151084048Y-92587666D01*
X151536428Y-92444809D02*
X151869761Y-92444809D01*
X151869761Y-92444809D02*
X151655476Y-92944809D01*
X150963571Y-78024809D02*
X150796905Y-77786714D01*
X150677857Y-78024809D02*
X150677857Y-77524809D01*
X150677857Y-77524809D02*
X150868333Y-77524809D01*
X150868333Y-77524809D02*
X150915952Y-77548619D01*
X150915952Y-77548619D02*
X150939762Y-77572428D01*
X150939762Y-77572428D02*
X150963571Y-77620047D01*
X150963571Y-77620047D02*
X150963571Y-77691476D01*
X150963571Y-77691476D02*
X150939762Y-77739095D01*
X150939762Y-77739095D02*
X150915952Y-77762904D01*
X150915952Y-77762904D02*
X150868333Y-77786714D01*
X150868333Y-77786714D02*
X150677857Y-77786714D01*
X151439762Y-78024809D02*
X151154048Y-78024809D01*
X151296905Y-78024809D02*
X151296905Y-77524809D01*
X151296905Y-77524809D02*
X151249286Y-77596238D01*
X151249286Y-77596238D02*
X151201667Y-77643857D01*
X151201667Y-77643857D02*
X151154048Y-77667666D01*
X151892142Y-77524809D02*
X151654047Y-77524809D01*
X151654047Y-77524809D02*
X151630238Y-77762904D01*
X151630238Y-77762904D02*
X151654047Y-77739095D01*
X151654047Y-77739095D02*
X151701666Y-77715285D01*
X151701666Y-77715285D02*
X151820714Y-77715285D01*
X151820714Y-77715285D02*
X151868333Y-77739095D01*
X151868333Y-77739095D02*
X151892142Y-77762904D01*
X151892142Y-77762904D02*
X151915952Y-77810523D01*
X151915952Y-77810523D02*
X151915952Y-77929571D01*
X151915952Y-77929571D02*
X151892142Y-77977190D01*
X151892142Y-77977190D02*
X151868333Y-78001000D01*
X151868333Y-78001000D02*
X151820714Y-78024809D01*
X151820714Y-78024809D02*
X151701666Y-78024809D01*
X151701666Y-78024809D02*
X151654047Y-78001000D01*
X151654047Y-78001000D02*
X151630238Y-77977190D01*
X146803571Y-85949809D02*
X146636905Y-85711714D01*
X146517857Y-85949809D02*
X146517857Y-85449809D01*
X146517857Y-85449809D02*
X146708333Y-85449809D01*
X146708333Y-85449809D02*
X146755952Y-85473619D01*
X146755952Y-85473619D02*
X146779762Y-85497428D01*
X146779762Y-85497428D02*
X146803571Y-85545047D01*
X146803571Y-85545047D02*
X146803571Y-85616476D01*
X146803571Y-85616476D02*
X146779762Y-85664095D01*
X146779762Y-85664095D02*
X146755952Y-85687904D01*
X146755952Y-85687904D02*
X146708333Y-85711714D01*
X146708333Y-85711714D02*
X146517857Y-85711714D01*
X147279762Y-85949809D02*
X146994048Y-85949809D01*
X147136905Y-85949809D02*
X147136905Y-85449809D01*
X147136905Y-85449809D02*
X147089286Y-85521238D01*
X147089286Y-85521238D02*
X147041667Y-85568857D01*
X147041667Y-85568857D02*
X146994048Y-85592666D01*
X147517857Y-85949809D02*
X147613095Y-85949809D01*
X147613095Y-85949809D02*
X147660714Y-85926000D01*
X147660714Y-85926000D02*
X147684523Y-85902190D01*
X147684523Y-85902190D02*
X147732142Y-85830761D01*
X147732142Y-85830761D02*
X147755952Y-85735523D01*
X147755952Y-85735523D02*
X147755952Y-85545047D01*
X147755952Y-85545047D02*
X147732142Y-85497428D01*
X147732142Y-85497428D02*
X147708333Y-85473619D01*
X147708333Y-85473619D02*
X147660714Y-85449809D01*
X147660714Y-85449809D02*
X147565476Y-85449809D01*
X147565476Y-85449809D02*
X147517857Y-85473619D01*
X147517857Y-85473619D02*
X147494047Y-85497428D01*
X147494047Y-85497428D02*
X147470238Y-85545047D01*
X147470238Y-85545047D02*
X147470238Y-85664095D01*
X147470238Y-85664095D02*
X147494047Y-85711714D01*
X147494047Y-85711714D02*
X147517857Y-85735523D01*
X147517857Y-85735523D02*
X147565476Y-85759333D01*
X147565476Y-85759333D02*
X147660714Y-85759333D01*
X147660714Y-85759333D02*
X147708333Y-85735523D01*
X147708333Y-85735523D02*
X147732142Y-85711714D01*
X147732142Y-85711714D02*
X147755952Y-85664095D01*
X151991666Y-96999809D02*
X151825000Y-96761714D01*
X151705952Y-96999809D02*
X151705952Y-96499809D01*
X151705952Y-96499809D02*
X151896428Y-96499809D01*
X151896428Y-96499809D02*
X151944047Y-96523619D01*
X151944047Y-96523619D02*
X151967857Y-96547428D01*
X151967857Y-96547428D02*
X151991666Y-96595047D01*
X151991666Y-96595047D02*
X151991666Y-96666476D01*
X151991666Y-96666476D02*
X151967857Y-96714095D01*
X151967857Y-96714095D02*
X151944047Y-96737904D01*
X151944047Y-96737904D02*
X151896428Y-96761714D01*
X151896428Y-96761714D02*
X151705952Y-96761714D01*
X152182143Y-96547428D02*
X152205952Y-96523619D01*
X152205952Y-96523619D02*
X152253571Y-96499809D01*
X152253571Y-96499809D02*
X152372619Y-96499809D01*
X152372619Y-96499809D02*
X152420238Y-96523619D01*
X152420238Y-96523619D02*
X152444047Y-96547428D01*
X152444047Y-96547428D02*
X152467857Y-96595047D01*
X152467857Y-96595047D02*
X152467857Y-96642666D01*
X152467857Y-96642666D02*
X152444047Y-96714095D01*
X152444047Y-96714095D02*
X152158333Y-96999809D01*
X152158333Y-96999809D02*
X152467857Y-96999809D01*
X129894047Y-69449809D02*
X129894047Y-69854571D01*
X129894047Y-69854571D02*
X129917857Y-69902190D01*
X129917857Y-69902190D02*
X129941666Y-69926000D01*
X129941666Y-69926000D02*
X129989285Y-69949809D01*
X129989285Y-69949809D02*
X130084523Y-69949809D01*
X130084523Y-69949809D02*
X130132142Y-69926000D01*
X130132142Y-69926000D02*
X130155952Y-69902190D01*
X130155952Y-69902190D02*
X130179761Y-69854571D01*
X130179761Y-69854571D02*
X130179761Y-69449809D01*
X130632143Y-69616476D02*
X130632143Y-69949809D01*
X130513095Y-69426000D02*
X130394048Y-69783142D01*
X130394048Y-69783142D02*
X130703571Y-69783142D01*
X156789880Y-78967428D02*
X156742261Y-78943619D01*
X156742261Y-78943619D02*
X156694642Y-78896000D01*
X156694642Y-78896000D02*
X156623214Y-78824571D01*
X156623214Y-78824571D02*
X156575595Y-78800761D01*
X156575595Y-78800761D02*
X156527976Y-78800761D01*
X156551785Y-78919809D02*
X156504166Y-78896000D01*
X156504166Y-78896000D02*
X156456547Y-78848380D01*
X156456547Y-78848380D02*
X156432738Y-78753142D01*
X156432738Y-78753142D02*
X156432738Y-78586476D01*
X156432738Y-78586476D02*
X156456547Y-78491238D01*
X156456547Y-78491238D02*
X156504166Y-78443619D01*
X156504166Y-78443619D02*
X156551785Y-78419809D01*
X156551785Y-78419809D02*
X156647023Y-78419809D01*
X156647023Y-78419809D02*
X156694642Y-78443619D01*
X156694642Y-78443619D02*
X156742261Y-78491238D01*
X156742261Y-78491238D02*
X156766071Y-78586476D01*
X156766071Y-78586476D02*
X156766071Y-78753142D01*
X156766071Y-78753142D02*
X156742261Y-78848380D01*
X156742261Y-78848380D02*
X156694642Y-78896000D01*
X156694642Y-78896000D02*
X156647023Y-78919809D01*
X156647023Y-78919809D02*
X156551785Y-78919809D01*
X156932738Y-78419809D02*
X157242262Y-78419809D01*
X157242262Y-78419809D02*
X157075595Y-78610285D01*
X157075595Y-78610285D02*
X157147024Y-78610285D01*
X157147024Y-78610285D02*
X157194643Y-78634095D01*
X157194643Y-78634095D02*
X157218452Y-78657904D01*
X157218452Y-78657904D02*
X157242262Y-78705523D01*
X157242262Y-78705523D02*
X157242262Y-78824571D01*
X157242262Y-78824571D02*
X157218452Y-78872190D01*
X157218452Y-78872190D02*
X157194643Y-78896000D01*
X157194643Y-78896000D02*
X157147024Y-78919809D01*
X157147024Y-78919809D02*
X157004167Y-78919809D01*
X157004167Y-78919809D02*
X156956548Y-78896000D01*
X156956548Y-78896000D02*
X156932738Y-78872190D01*
X156704880Y-85117428D02*
X156657261Y-85093619D01*
X156657261Y-85093619D02*
X156609642Y-85046000D01*
X156609642Y-85046000D02*
X156538214Y-84974571D01*
X156538214Y-84974571D02*
X156490595Y-84950761D01*
X156490595Y-84950761D02*
X156442976Y-84950761D01*
X156466785Y-85069809D02*
X156419166Y-85046000D01*
X156419166Y-85046000D02*
X156371547Y-84998380D01*
X156371547Y-84998380D02*
X156347738Y-84903142D01*
X156347738Y-84903142D02*
X156347738Y-84736476D01*
X156347738Y-84736476D02*
X156371547Y-84641238D01*
X156371547Y-84641238D02*
X156419166Y-84593619D01*
X156419166Y-84593619D02*
X156466785Y-84569809D01*
X156466785Y-84569809D02*
X156562023Y-84569809D01*
X156562023Y-84569809D02*
X156609642Y-84593619D01*
X156609642Y-84593619D02*
X156657261Y-84641238D01*
X156657261Y-84641238D02*
X156681071Y-84736476D01*
X156681071Y-84736476D02*
X156681071Y-84903142D01*
X156681071Y-84903142D02*
X156657261Y-84998380D01*
X156657261Y-84998380D02*
X156609642Y-85046000D01*
X156609642Y-85046000D02*
X156562023Y-85069809D01*
X156562023Y-85069809D02*
X156466785Y-85069809D01*
X157109643Y-84736476D02*
X157109643Y-85069809D01*
X156990595Y-84546000D02*
X156871548Y-84903142D01*
X156871548Y-84903142D02*
X157181071Y-84903142D01*
X141574809Y-97958333D02*
X141336714Y-98124999D01*
X141574809Y-98244047D02*
X141074809Y-98244047D01*
X141074809Y-98244047D02*
X141074809Y-98053571D01*
X141074809Y-98053571D02*
X141098619Y-98005952D01*
X141098619Y-98005952D02*
X141122428Y-97982142D01*
X141122428Y-97982142D02*
X141170047Y-97958333D01*
X141170047Y-97958333D02*
X141241476Y-97958333D01*
X141241476Y-97958333D02*
X141289095Y-97982142D01*
X141289095Y-97982142D02*
X141312904Y-98005952D01*
X141312904Y-98005952D02*
X141336714Y-98053571D01*
X141336714Y-98053571D02*
X141336714Y-98244047D01*
X141074809Y-97529761D02*
X141074809Y-97624999D01*
X141074809Y-97624999D02*
X141098619Y-97672618D01*
X141098619Y-97672618D02*
X141122428Y-97696428D01*
X141122428Y-97696428D02*
X141193857Y-97744047D01*
X141193857Y-97744047D02*
X141289095Y-97767856D01*
X141289095Y-97767856D02*
X141479571Y-97767856D01*
X141479571Y-97767856D02*
X141527190Y-97744047D01*
X141527190Y-97744047D02*
X141551000Y-97720237D01*
X141551000Y-97720237D02*
X141574809Y-97672618D01*
X141574809Y-97672618D02*
X141574809Y-97577380D01*
X141574809Y-97577380D02*
X141551000Y-97529761D01*
X141551000Y-97529761D02*
X141527190Y-97505952D01*
X141527190Y-97505952D02*
X141479571Y-97482142D01*
X141479571Y-97482142D02*
X141360523Y-97482142D01*
X141360523Y-97482142D02*
X141312904Y-97505952D01*
X141312904Y-97505952D02*
X141289095Y-97529761D01*
X141289095Y-97529761D02*
X141265285Y-97577380D01*
X141265285Y-97577380D02*
X141265285Y-97672618D01*
X141265285Y-97672618D02*
X141289095Y-97720237D01*
X141289095Y-97720237D02*
X141312904Y-97744047D01*
X141312904Y-97744047D02*
X141360523Y-97767856D01*
X145733452Y-74519809D02*
X145733452Y-74019809D01*
X145733452Y-74019809D02*
X145852500Y-74019809D01*
X145852500Y-74019809D02*
X145923928Y-74043619D01*
X145923928Y-74043619D02*
X145971547Y-74091238D01*
X145971547Y-74091238D02*
X145995357Y-74138857D01*
X145995357Y-74138857D02*
X146019166Y-74234095D01*
X146019166Y-74234095D02*
X146019166Y-74305523D01*
X146019166Y-74305523D02*
X145995357Y-74400761D01*
X145995357Y-74400761D02*
X145971547Y-74448380D01*
X145971547Y-74448380D02*
X145923928Y-74496000D01*
X145923928Y-74496000D02*
X145852500Y-74519809D01*
X145852500Y-74519809D02*
X145733452Y-74519809D01*
X146495357Y-74519809D02*
X146209643Y-74519809D01*
X146352500Y-74519809D02*
X146352500Y-74019809D01*
X146352500Y-74019809D02*
X146304881Y-74091238D01*
X146304881Y-74091238D02*
X146257262Y-74138857D01*
X146257262Y-74138857D02*
X146209643Y-74162666D01*
D10*
X154058095Y-78254819D02*
X154058095Y-77254819D01*
X154629523Y-78254819D02*
X154200952Y-77683390D01*
X154629523Y-77254819D02*
X154058095Y-77826247D01*
D11*
X133680952Y-94724809D02*
X133680952Y-94224809D01*
X133966666Y-94724809D02*
X133752381Y-94439095D01*
X133966666Y-94224809D02*
X133680952Y-94510523D01*
X134442857Y-94724809D02*
X134157143Y-94724809D01*
X134300000Y-94724809D02*
X134300000Y-94224809D01*
X134300000Y-94224809D02*
X134252381Y-94296238D01*
X134252381Y-94296238D02*
X134204762Y-94343857D01*
X134204762Y-94343857D02*
X134157143Y-94367666D01*
X150989166Y-98427190D02*
X150965357Y-98451000D01*
X150965357Y-98451000D02*
X150893928Y-98474809D01*
X150893928Y-98474809D02*
X150846309Y-98474809D01*
X150846309Y-98474809D02*
X150774881Y-98451000D01*
X150774881Y-98451000D02*
X150727262Y-98403380D01*
X150727262Y-98403380D02*
X150703452Y-98355761D01*
X150703452Y-98355761D02*
X150679643Y-98260523D01*
X150679643Y-98260523D02*
X150679643Y-98189095D01*
X150679643Y-98189095D02*
X150703452Y-98093857D01*
X150703452Y-98093857D02*
X150727262Y-98046238D01*
X150727262Y-98046238D02*
X150774881Y-97998619D01*
X150774881Y-97998619D02*
X150846309Y-97974809D01*
X150846309Y-97974809D02*
X150893928Y-97974809D01*
X150893928Y-97974809D02*
X150965357Y-97998619D01*
X150965357Y-97998619D02*
X150989166Y-98022428D01*
X151465357Y-98474809D02*
X151179643Y-98474809D01*
X151322500Y-98474809D02*
X151322500Y-97974809D01*
X151322500Y-97974809D02*
X151274881Y-98046238D01*
X151274881Y-98046238D02*
X151227262Y-98093857D01*
X151227262Y-98093857D02*
X151179643Y-98117666D01*
%TO.C,C3*%
D12*
X158338733Y-98990000D02*
X158631267Y-98990000D01*
X158338733Y-100010000D02*
X158631267Y-100010000D01*
%TO.C,C5*%
X151450000Y-87288767D02*
X151450000Y-86996233D01*
X152470000Y-87288767D02*
X152470000Y-86996233D01*
%TO.C,J3*%
X113160000Y-77755000D02*
X119160000Y-77755000D01*
X113160000Y-78615000D02*
X113160000Y-77755000D01*
X119160000Y-78615000D02*
X113160000Y-78615000D01*
X121920000Y-79455000D02*
X119160000Y-79455000D01*
X122150000Y-80295000D02*
X121920000Y-80295000D01*
X122150000Y-81155000D02*
X121920000Y-81155000D01*
X122232642Y-77755000D02*
X121920000Y-77755000D01*
X122232642Y-78615000D02*
X121920000Y-78615000D01*
X124580000Y-80725000D02*
X124580000Y-81995000D01*
X124580000Y-81995000D02*
X123310000Y-81995000D01*
X113160000Y-80295000D02*
X119160000Y-80295000D01*
X119160000Y-81155000D01*
X113160000Y-81155000D01*
X113160000Y-80295000D01*
G36*
X113160000Y-80295000D02*
G01*
X119160000Y-80295000D01*
X119160000Y-81155000D01*
X113160000Y-81155000D01*
X113160000Y-80295000D01*
G37*
X119160000Y-76805000D02*
X121920000Y-76805000D01*
X121920000Y-82105000D01*
X119160000Y-82105000D01*
X119160000Y-76805000D01*
%TO.C,U1*%
D13*
X146472500Y-96005000D02*
X146602500Y-96005000D01*
X146472500Y-100405000D02*
X146472500Y-96005000D01*
X146602500Y-100405000D02*
X146472500Y-100405000D01*
X149332500Y-100405000D02*
X149472500Y-100405000D01*
X149472500Y-96005000D02*
X149332500Y-96005000D01*
X149472500Y-100405000D02*
X149472500Y-96005000D01*
D10*
X146497500Y-101595000D02*
G75*
G02*
X146347500Y-101595000I-75000J0D01*
G01*
X146347500Y-101595000D02*
G75*
G02*
X146497500Y-101595000I75000J0D01*
G01*
D14*
X147252500Y-99705000D02*
G75*
G02*
X146952500Y-99705000I-150000J0D01*
G01*
X146952500Y-99705000D02*
G75*
G02*
X147252500Y-99705000I150000J0D01*
G01*
%TO.C,R12*%
D12*
X158062500Y-72957776D02*
X158062500Y-73467224D01*
X159107500Y-72957776D02*
X159107500Y-73467224D01*
%TO.C,C6*%
X156225000Y-73333767D02*
X156225000Y-73041233D01*
X157245000Y-73333767D02*
X157245000Y-73041233D01*
%TO.C,R18*%
X147367224Y-86477500D02*
X146857776Y-86477500D01*
X147367224Y-87522500D02*
X146857776Y-87522500D01*
%TO.C,R7*%
X150882776Y-84077500D02*
X151392224Y-84077500D01*
X150882776Y-85122500D02*
X151392224Y-85122500D01*
%TO.C,J4*%
X113185000Y-70555000D02*
X119185000Y-70555000D01*
X113185000Y-71415000D02*
X113185000Y-70555000D01*
X119185000Y-71415000D02*
X113185000Y-71415000D01*
X121945000Y-72255000D02*
X119185000Y-72255000D01*
X122175000Y-73095000D02*
X121945000Y-73095000D01*
X122175000Y-73955000D02*
X121945000Y-73955000D01*
X122257642Y-70555000D02*
X121945000Y-70555000D01*
X122257642Y-71415000D02*
X121945000Y-71415000D01*
X124605000Y-73525000D02*
X124605000Y-74795000D01*
X124605000Y-74795000D02*
X123335000Y-74795000D01*
X113185000Y-73095000D02*
X119185000Y-73095000D01*
X119185000Y-73955000D01*
X113185000Y-73955000D01*
X113185000Y-73095000D01*
G36*
X113185000Y-73095000D02*
G01*
X119185000Y-73095000D01*
X119185000Y-73955000D01*
X113185000Y-73955000D01*
X113185000Y-73095000D01*
G37*
X119185000Y-69605000D02*
X121945000Y-69605000D01*
X121945000Y-74905000D01*
X119185000Y-74905000D01*
X119185000Y-69605000D01*
%TO.C,R3*%
X154475000Y-100082776D02*
X154475000Y-100592224D01*
X155520000Y-100082776D02*
X155520000Y-100592224D01*
%TO.C,R10*%
X149737500Y-87397224D02*
X149737500Y-86887776D01*
X150782500Y-87397224D02*
X150782500Y-86887776D01*
%TO.C,R11*%
X157432776Y-75477500D02*
X157942224Y-75477500D01*
X157432776Y-76522500D02*
X157942224Y-76522500D01*
%TO.C,U5*%
X119440000Y-86000000D02*
X119440000Y-89760000D01*
X119440000Y-89760000D02*
X120700000Y-89760000D01*
X126260000Y-86000000D02*
X126260000Y-89760000D01*
X126260000Y-89760000D02*
X125000000Y-89760000D01*
X126490000Y-84960000D02*
X126160000Y-84720000D01*
X126490000Y-84480000D01*
X126490000Y-84960000D01*
G36*
X126490000Y-84960000D02*
G01*
X126160000Y-84720000D01*
X126490000Y-84480000D01*
X126490000Y-84960000D01*
G37*
%TO.C,R13*%
X146552500Y-90232776D02*
X146552500Y-90742224D01*
X147597500Y-90232776D02*
X147597500Y-90742224D01*
%TO.C,R16*%
X147827224Y-78452500D02*
X147317776Y-78452500D01*
X147827224Y-79497500D02*
X147317776Y-79497500D01*
%TO.C,J1*%
X145890000Y-74105000D02*
X145890000Y-72835000D01*
X146730000Y-71675000D02*
X146730000Y-71445000D01*
X147160000Y-74105000D02*
X145890000Y-74105000D01*
X147590000Y-71675000D02*
X147590000Y-71445000D01*
X148430000Y-71445000D02*
X148430000Y-68685000D01*
X149270000Y-62685000D02*
X150130000Y-62685000D01*
X149270000Y-68685000D02*
X149270000Y-62685000D01*
X149270000Y-71757642D02*
X149270000Y-71445000D01*
X150130000Y-62685000D02*
X150130000Y-68685000D01*
X150130000Y-71757642D02*
X150130000Y-71445000D01*
X150970000Y-71445000D02*
X150970000Y-68685000D01*
X151810000Y-62685000D02*
X152670000Y-62685000D01*
X151810000Y-68685000D02*
X151810000Y-62685000D01*
X151810000Y-71757642D02*
X151810000Y-71445000D01*
X152670000Y-62685000D02*
X152670000Y-68685000D01*
X152670000Y-71757642D02*
X152670000Y-71445000D01*
X145780000Y-68685000D02*
X153620000Y-68685000D01*
X153620000Y-71445000D01*
X145780000Y-71445000D01*
X145780000Y-68685000D01*
X146730000Y-62685000D02*
X147590000Y-62685000D01*
X147590000Y-68685000D01*
X146730000Y-68685000D01*
X146730000Y-62685000D01*
G36*
X146730000Y-62685000D02*
G01*
X147590000Y-62685000D01*
X147590000Y-68685000D01*
X146730000Y-68685000D01*
X146730000Y-62685000D01*
G37*
%TO.C,C2*%
X155437500Y-97058767D02*
X155437500Y-96766233D01*
X156457500Y-97058767D02*
X156457500Y-96766233D01*
%TO.C,J2*%
X135630000Y-100417358D02*
X135630000Y-100730000D01*
X135630000Y-109490000D02*
X135630000Y-103490000D01*
X136490000Y-100417358D02*
X136490000Y-100730000D01*
X136490000Y-103490000D02*
X136490000Y-109490000D01*
X136490000Y-109490000D02*
X135630000Y-109490000D01*
X137330000Y-100730000D02*
X137330000Y-103490000D01*
X138170000Y-100500000D02*
X138170000Y-100730000D01*
X138600000Y-98070000D02*
X139870000Y-98070000D01*
X139030000Y-100500000D02*
X139030000Y-100730000D01*
X139870000Y-98070000D02*
X139870000Y-99340000D01*
X138170000Y-103490000D02*
X139030000Y-103490000D01*
X139030000Y-109490000D01*
X138170000Y-109490000D01*
X138170000Y-103490000D01*
G36*
X138170000Y-103490000D02*
G01*
X139030000Y-103490000D01*
X139030000Y-109490000D01*
X138170000Y-109490000D01*
X138170000Y-103490000D01*
G37*
X134680000Y-100730000D02*
X139980000Y-100730000D01*
X139980000Y-103490000D01*
X134680000Y-103490000D01*
X134680000Y-100730000D01*
%TO.C,C4*%
X143316233Y-99090000D02*
X143608767Y-99090000D01*
X143316233Y-100110000D02*
X143608767Y-100110000D01*
%TO.C,R5*%
X143207776Y-95602500D02*
X143717224Y-95602500D01*
X143207776Y-96647500D02*
X143717224Y-96647500D01*
%TO.C,U2*%
X154865000Y-86920000D02*
X158985000Y-86920000D01*
X154865000Y-87015000D02*
X154865000Y-86920000D01*
X154865000Y-92040000D02*
X154865000Y-91945000D01*
X158985000Y-86920000D02*
X158985000Y-87015000D01*
X158985000Y-91945000D02*
X158985000Y-92040000D01*
X158985000Y-92040000D02*
X154865000Y-92040000D01*
X154325000Y-87010000D02*
X154085000Y-86680000D01*
X154565000Y-86680000D01*
X154325000Y-87010000D01*
G36*
X154325000Y-87010000D02*
G01*
X154085000Y-86680000D01*
X154565000Y-86680000D01*
X154325000Y-87010000D01*
G37*
%TO.C,U3*%
D13*
X147085000Y-80500000D02*
X147085000Y-80640000D01*
X147085000Y-83500000D02*
X147085000Y-83370000D01*
X151485000Y-80500000D02*
X147085000Y-80500000D01*
X151485000Y-80640000D02*
X151485000Y-80500000D01*
X151485000Y-83370000D02*
X151485000Y-83500000D01*
X151485000Y-83500000D02*
X147085000Y-83500000D01*
D14*
X150935000Y-82870000D02*
G75*
G02*
X150635000Y-82870000I-150000J0D01*
G01*
X150635000Y-82870000D02*
G75*
G02*
X150935000Y-82870000I150000J0D01*
G01*
D10*
X152750000Y-83550000D02*
G75*
G02*
X152600000Y-83550000I-75000J0D01*
G01*
X152600000Y-83550000D02*
G75*
G02*
X152750000Y-83550000I75000J0D01*
G01*
%TO.C,R14*%
D12*
X151442224Y-89227500D02*
X150932776Y-89227500D01*
X151442224Y-90272500D02*
X150932776Y-90272500D01*
%TO.C,R1*%
X152200000Y-100592224D02*
X152200000Y-100082776D01*
X153245000Y-100592224D02*
X153245000Y-100082776D01*
%TO.C,R4*%
X158205276Y-97327500D02*
X158714724Y-97327500D01*
X158205276Y-98372500D02*
X158714724Y-98372500D01*
%TO.C,R17*%
X151432224Y-90972500D02*
X150922776Y-90972500D01*
X151432224Y-92017500D02*
X150922776Y-92017500D01*
%TO.C,R15*%
X151502224Y-78452500D02*
X150992776Y-78452500D01*
X151502224Y-79497500D02*
X150992776Y-79497500D01*
%TO.C,R19*%
X146832776Y-84077500D02*
X147342224Y-84077500D01*
X146832776Y-85122500D02*
X147342224Y-85122500D01*
%TO.C,R2*%
X153080276Y-97327500D02*
X153589724Y-97327500D01*
X153080276Y-98372500D02*
X153589724Y-98372500D01*
%TO.C,U4*%
D13*
X126925000Y-93125000D02*
X126925000Y-70425000D01*
X131425000Y-69125000D02*
X131425000Y-70425000D01*
X131425000Y-70425000D02*
X126925000Y-70425000D01*
X140425000Y-69125000D02*
X131425000Y-69125000D01*
X140425000Y-69125000D02*
X140425000Y-70425000D01*
X144925000Y-70425000D02*
X140425000Y-70425000D01*
X144925000Y-93125000D02*
X126925000Y-93125000D01*
X144925000Y-93125000D02*
X144925000Y-70425000D01*
%TO.C,Q3*%
X154686800Y-79226000D02*
X154754570Y-79068270D01*
X154688310Y-81370000D02*
X154632650Y-80974000D01*
X154754570Y-79068270D02*
X154852520Y-78887000D01*
X154852520Y-78887000D02*
X154966300Y-78715210D01*
X154966300Y-78715210D02*
X155095000Y-78554310D01*
X155095000Y-78554310D02*
X155237590Y-78405560D01*
X155237590Y-78405560D02*
X155392910Y-78270170D01*
X155392910Y-78270170D02*
X155559730Y-78149230D01*
X155559730Y-78149230D02*
X155736710Y-78043700D01*
X155736710Y-78043700D02*
X155922413Y-77954430D01*
X155922413Y-77954430D02*
X156115362Y-77882150D01*
X156115362Y-77882150D02*
X156314009Y-77827410D01*
X156314009Y-77827410D02*
X156516756Y-77790680D01*
X156516756Y-77790680D02*
X156721975Y-77772240D01*
X156721975Y-77772240D02*
X156928025Y-77772240D01*
X156928025Y-77772240D02*
X157133244Y-77790680D01*
X157133244Y-77790680D02*
X157335991Y-77827410D01*
X157335991Y-77827410D02*
X157534638Y-77882150D01*
X157534638Y-77882150D02*
X157727587Y-77954430D01*
X157727587Y-77954430D02*
X157913290Y-78043700D01*
X157913290Y-78043700D02*
X158090270Y-78149230D01*
X158090270Y-78149230D02*
X158257090Y-78270170D01*
X158257090Y-78270170D02*
X158412410Y-78405560D01*
X158412410Y-78405560D02*
X158555000Y-78554310D01*
X158555000Y-78554310D02*
X158683700Y-78715210D01*
X158683700Y-78715210D02*
X158797480Y-78887000D01*
X158797480Y-78887000D02*
X158895430Y-79068270D01*
X158895430Y-79068270D02*
X158976770Y-79257584D01*
X158959120Y-81370000D02*
X154688310Y-81370000D01*
X159024530Y-80904566D02*
X158959120Y-81370000D01*
D15*
X153081000Y-80100000D02*
G75*
G02*
X152881000Y-80100000I-100000J0D01*
G01*
X152881000Y-80100000D02*
G75*
G02*
X153081000Y-80100000I100000J0D01*
G01*
%TO.C,Q4*%
D13*
X154637970Y-82565434D02*
X154703380Y-82100000D01*
X154703380Y-82100000D02*
X158974190Y-82100000D01*
X154767070Y-84401730D02*
X154685730Y-84212416D01*
X154865020Y-84583000D02*
X154767070Y-84401730D01*
X154978800Y-84754790D02*
X154865020Y-84583000D01*
X155107500Y-84915690D02*
X154978800Y-84754790D01*
X155250090Y-85064440D02*
X155107500Y-84915690D01*
X155405410Y-85199830D02*
X155250090Y-85064440D01*
X155572230Y-85320770D02*
X155405410Y-85199830D01*
X155749210Y-85426300D02*
X155572230Y-85320770D01*
X155934913Y-85515570D02*
X155749210Y-85426300D01*
X156127862Y-85587850D02*
X155934913Y-85515570D01*
X156326509Y-85642590D02*
X156127862Y-85587850D01*
X156529256Y-85679320D02*
X156326509Y-85642590D01*
X156734475Y-85697760D02*
X156529256Y-85679320D01*
X156940525Y-85697760D02*
X156734475Y-85697760D01*
X157145744Y-85679320D02*
X156940525Y-85697760D01*
X157348491Y-85642590D02*
X157145744Y-85679320D01*
X157547138Y-85587850D02*
X157348491Y-85642590D01*
X157740087Y-85515570D02*
X157547138Y-85587850D01*
X157925790Y-85426300D02*
X157740087Y-85515570D01*
X158102770Y-85320770D02*
X157925790Y-85426300D01*
X158269590Y-85199830D02*
X158102770Y-85320770D01*
X158424910Y-85064440D02*
X158269590Y-85199830D01*
X158567500Y-84915690D02*
X158424910Y-85064440D01*
X158696200Y-84754790D02*
X158567500Y-84915690D01*
X158809980Y-84583000D02*
X158696200Y-84754790D01*
X158907930Y-84401730D02*
X158809980Y-84583000D01*
X158974190Y-82100000D02*
X159029850Y-82496000D01*
X158975700Y-84244000D02*
X158907930Y-84401730D01*
D15*
X160781500Y-83370000D02*
G75*
G02*
X160581500Y-83370000I-100000J0D01*
G01*
X160581500Y-83370000D02*
G75*
G02*
X160781500Y-83370000I100000J0D01*
G01*
%TO.C,R6*%
D12*
X143717224Y-97327500D02*
X143207776Y-97327500D01*
X143717224Y-98372500D02*
X143207776Y-98372500D01*
%TO.C,D1*%
X147740000Y-76000000D02*
X148390000Y-76000000D01*
X151790000Y-77120000D02*
X151790000Y-74880000D01*
X151910000Y-77120000D02*
X151910000Y-74880000D01*
X152030000Y-77120000D02*
X152030000Y-74880000D01*
X153280000Y-76000000D02*
X152630000Y-76000000D01*
X148390000Y-74880000D02*
X152630000Y-74880000D01*
X152630000Y-77120000D01*
X148390000Y-77120000D01*
X148390000Y-74880000D01*
%TO.C,K1*%
D16*
X119575000Y-94100000D02*
X120675000Y-94100000D01*
X119575000Y-102900000D02*
X119575000Y-94100000D01*
X120675000Y-102900000D02*
X119575000Y-102900000D01*
X132275000Y-94100000D02*
X133375000Y-94100000D01*
X133375000Y-94100000D02*
X133375000Y-102900000D01*
X133375000Y-102900000D02*
X132275000Y-102900000D01*
D17*
X132825000Y-101040000D02*
X132190000Y-101040000D01*
X132190000Y-95960000D01*
X132825000Y-95960000D01*
X132825000Y-101040000D01*
G36*
X132825000Y-101040000D02*
G01*
X132190000Y-101040000D01*
X132190000Y-95960000D01*
X132825000Y-95960000D01*
X132825000Y-101040000D01*
G37*
%TO.C,C1*%
D12*
X150537500Y-100483767D02*
X150537500Y-100191233D01*
X151557500Y-100483767D02*
X151557500Y-100191233D01*
%TD*%
M02*
