%TF.GenerationSoftware,KiCad,Pcbnew,10.0.1*%
%TF.CreationDate,2026-05-20T11:00:06+02:00*%
%TF.ProjectId,Luminosite,4c756d69-6e6f-4736-9974-652e6b696361,rev?*%
%TF.SameCoordinates,Original*%
%TF.FileFunction,Paste,Top*%
%TF.FilePolarity,Positive*%
%FSLAX46Y46*%
G04 Gerber Fmt 4.6, Leading zero omitted, Abs format (unit mm)*
G04 Created by KiCad (PCBNEW 10.0.1) date 2026-05-20 11:00:06*
%MOMM*%
%LPD*%
G01*
G04 APERTURE LIST*
G04 Aperture macros list*
%AMRoundRect*
0 Rectangle with rounded corners*
0 $1 Rounding radius*
0 $2 $3 $4 $5 $6 $7 $8 $9 X,Y pos of 4 corners*
0 Add a 4 corners polygon primitive as box body*
4,1,4,$2,$3,$4,$5,$6,$7,$8,$9,$2,$3,0*
0 Add four circle primitives for the rounded corners*
1,1,$1+$1,$2,$3*
1,1,$1+$1,$4,$5*
1,1,$1+$1,$6,$7*
1,1,$1+$1,$8,$9*
0 Add four rect primitives between the rounded corners*
20,1,$1+$1,$2,$3,$4,$5,0*
20,1,$1+$1,$4,$5,$6,$7,0*
20,1,$1+$1,$6,$7,$8,$9,0*
20,1,$1+$1,$8,$9,$2,$3,0*%
G04 Aperture macros list end*
%ADD10RoundRect,0.237500X-0.300000X-0.237500X0.300000X-0.237500X0.300000X0.237500X-0.300000X0.237500X0*%
%ADD11RoundRect,0.237500X0.237500X-0.300000X0.237500X0.300000X-0.237500X0.300000X-0.237500X-0.300000X0*%
%ADD12RoundRect,0.103350X0.091650X-0.541650X0.091650X0.541650X-0.091650X0.541650X-0.091650X-0.541650X0*%
%ADD13RoundRect,0.237500X-0.237500X0.250000X-0.237500X-0.250000X0.237500X-0.250000X0.237500X0.250000X0*%
%ADD14RoundRect,0.237500X0.250000X0.237500X-0.250000X0.237500X-0.250000X-0.237500X0.250000X-0.237500X0*%
%ADD15RoundRect,0.237500X-0.250000X-0.237500X0.250000X-0.237500X0.250000X0.237500X-0.250000X0.237500X0*%
%ADD16RoundRect,0.237500X0.237500X-0.250000X0.237500X0.250000X-0.237500X0.250000X-0.237500X-0.250000X0*%
%ADD17RoundRect,0.375000X-0.375000X0.625000X-0.375000X-0.625000X0.375000X-0.625000X0.375000X0.625000X0*%
%ADD18RoundRect,0.500000X-1.400000X0.500000X-1.400000X-0.500000X1.400000X-0.500000X1.400000X0.500000X0*%
%ADD19RoundRect,0.150000X-0.825000X-0.150000X0.825000X-0.150000X0.825000X0.150000X-0.825000X0.150000X0*%
%ADD20RoundRect,0.103350X0.541650X0.091650X-0.541650X0.091650X-0.541650X-0.091650X0.541650X-0.091650X0*%
G04 APERTURE END LIST*
D10*
%TO.C,C3*%
X157622500Y-99500000D03*
X159347500Y-99500000D03*
%TD*%
D11*
%TO.C,C5*%
X151960000Y-88005000D03*
X151960000Y-86280000D03*
%TD*%
D12*
%TO.C,U1*%
X146997500Y-101025000D03*
X147647500Y-101025000D03*
X148297500Y-101025000D03*
X148947500Y-101025000D03*
X148947500Y-95385000D03*
X148297500Y-95385000D03*
X147647500Y-95385000D03*
X146997500Y-95385000D03*
%TD*%
D13*
%TO.C,R12*%
X158585000Y-72300000D03*
X158585000Y-74125000D03*
%TD*%
D11*
%TO.C,C6*%
X156735000Y-74050000D03*
X156735000Y-72325000D03*
%TD*%
D14*
%TO.C,R18*%
X148025000Y-87000000D03*
X146200000Y-87000000D03*
%TD*%
D15*
%TO.C,R7*%
X150225000Y-84600000D03*
X152050000Y-84600000D03*
%TD*%
D13*
%TO.C,R3*%
X154997500Y-99425000D03*
X154997500Y-101250000D03*
%TD*%
D16*
%TO.C,R10*%
X150260000Y-88055000D03*
X150260000Y-86230000D03*
%TD*%
D15*
%TO.C,R11*%
X156775000Y-76000000D03*
X158600000Y-76000000D03*
%TD*%
D17*
%TO.C,U5*%
X125150000Y-84700000D03*
X122850000Y-84700000D03*
D18*
X122850000Y-91000000D03*
D17*
X120550000Y-84700000D03*
%TD*%
D13*
%TO.C,R13*%
X147075000Y-89575000D03*
X147075000Y-91400000D03*
%TD*%
D14*
%TO.C,R16*%
X148485000Y-78975000D03*
X146660000Y-78975000D03*
%TD*%
D11*
%TO.C,C2*%
X155947500Y-97775000D03*
X155947500Y-96050000D03*
%TD*%
D10*
%TO.C,C4*%
X142600000Y-99600000D03*
X144325000Y-99600000D03*
%TD*%
D15*
%TO.C,R5*%
X142550000Y-96125000D03*
X144375000Y-96125000D03*
%TD*%
D19*
%TO.C,U2*%
X154450000Y-87575000D03*
X154450000Y-88845000D03*
X154450000Y-90115000D03*
X154450000Y-91385000D03*
X159400000Y-91385000D03*
X159400000Y-90115000D03*
X159400000Y-88845000D03*
X159400000Y-87575000D03*
%TD*%
D20*
%TO.C,U3*%
X152105000Y-82975000D03*
X152105000Y-82325000D03*
X152105000Y-81675000D03*
X152105000Y-81025000D03*
X146465000Y-81025000D03*
X146465000Y-81675000D03*
X146465000Y-82325000D03*
X146465000Y-82975000D03*
%TD*%
D14*
%TO.C,R14*%
X152100000Y-89750000D03*
X150275000Y-89750000D03*
%TD*%
D16*
%TO.C,R1*%
X152722500Y-101250000D03*
X152722500Y-99425000D03*
%TD*%
D15*
%TO.C,R4*%
X157547500Y-97850000D03*
X159372500Y-97850000D03*
%TD*%
D14*
%TO.C,R17*%
X152090000Y-91495000D03*
X150265000Y-91495000D03*
%TD*%
%TO.C,R15*%
X152160000Y-78975000D03*
X150335000Y-78975000D03*
%TD*%
D15*
%TO.C,R19*%
X146175000Y-84600000D03*
X148000000Y-84600000D03*
%TD*%
%TO.C,R2*%
X152422500Y-97850000D03*
X154247500Y-97850000D03*
%TD*%
D14*
%TO.C,R6*%
X144375000Y-97850000D03*
X142550000Y-97850000D03*
%TD*%
D11*
%TO.C,C1*%
X151047500Y-101200000D03*
X151047500Y-99475000D03*
%TD*%
M02*
